<?xml version="1.0" encoding="UTF-8" standalone="no"?>
<!-- Created with Inkscape (http://www.inkscape.org/) -->

<svg
   xmlns:dc="http://purl.org/dc/elements/1.1/"
   xmlns:cc="http://creativecommons.org/ns#"
   xmlns:rdf="http://www.w3.org/1999/02/22-rdf-syntax-ns#"
   xmlns:svg="http://www.w3.org/2000/svg"
   xmlns="http://www.w3.org/2000/svg"
   xmlns:sodipodi="http://sodipodi.sourceforge.net/DTD/sodipodi-0.dtd"
   xmlns:inkscape="http://www.inkscape.org/namespaces/inkscape"
   width="210mm"
   height="297mm"
   viewBox="0 0 210 297"
   version="1.1"
   id="svg8"
   inkscape:version="0.92.0 r15299"
   sodipodi:docname="logo-USUS-2017-krivky.svg">
  <defs
     id="defs2" />
  <sodipodi:namedview
     id="base"
     pagecolor="#ffffff"
     bordercolor="#666666"
     borderopacity="1.0"
     inkscape:pageopacity="0.0"
     inkscape:pageshadow="2"
     inkscape:zoom="0.70000001"
     inkscape:cx="70.97362"
     inkscape:cy="610.80499"
     inkscape:document-units="mm"
     inkscape:current-layer="Layer_1"
     showgrid="false"
     showguides="true"
     inkscape:guide-bbox="true"
     inkscape:window-width="1920"
     inkscape:window-height="1018"
     inkscape:window-x="1358"
     inkscape:window-y="108"
     inkscape:window-maximized="1">
    <sodipodi:guide
       position="179.91666,224.51786"
       orientation="0,1"
       id="guide4875"
       inkscape:locked="false" />
    <sodipodi:guide
       position="196.54761,175.75893"
       orientation="0,1"
       id="guide4877"
       inkscape:locked="false" />
    <sodipodi:guide
       position="80.13095,246.44048"
       orientation="1,0"
       id="guide4624"
       inkscape:locked="false" />
    <sodipodi:guide
       position="108.85714,258.53572"
       orientation="1,0"
       id="guide4626"
       inkscape:locked="false" />
  </sodipodi:namedview>
  <metadata
     id="metadata5">
    <rdf:RDF>
      <cc:Work
         rdf:about="">
        <dc:format>image/svg+xml</dc:format>
        <dc:type
           rdf:resource="http://purl.org/dc/dcmitype/StillImage" />
        <dc:title></dc:title>
      </cc:Work>
    </rdf:RDF>
  </metadata>
  <g
     inkscape:label="Layer 1"
     inkscape:groupmode="layer"
     id="layer1">
    <g
       id="g4863"
       transform="matrix(0.26458333,0,0,0.26458333,17.256054,36.476151)">
      <g
         id="Layer_2" />
      <g
         id="Layer_1">
        <g
           aria-label="Upracme svet"
           style="font-style:normal;font-variant:normal;font-weight:normal;font-stretch:normal;font-size:32px;line-height:24.99999809px;font-family:'Museo Slab';-inkscape-font-specification:'Museo Slab, Normal';font-variant-ligatures:normal;font-variant-caps:normal;font-variant-numeric:normal;font-feature-settings:normal;text-align:start;writing-mode:lr-tb;text-anchor:start;opacity:1;fill:#000000;fill-opacity:1;fill-rule:evenodd;stroke:none;stroke-width:3.77952766;stroke-linecap:round;stroke-linejoin:miter;stroke-miterlimit:4;stroke-dasharray:none;stroke-dashoffset:0;stroke-opacity:1"
           id="text4869">
          <path
             d="m 21.920839,128.97022 c 0,2.304 0.512,4.224 1.696,5.728 1.568,2.048 4.32,3.2 7.552,3.2 3.072,0 5.888,-1.056 7.552,-3.232 1.056,-1.44 1.664,-3.488 1.664,-5.696 v -11.008 h 2.72 v -3.168 h -9.632 v 3.168 h 2.72 v 10.976 c 0,1.28 -0.256,2.368 -0.768,3.232 -0.864,1.376 -2.336,2.048 -4.256,2.048 -1.92,0 -3.488,-0.736 -4.288,-2.016 -0.48,-0.8 -0.768,-1.952 -0.768,-3.232 v -11.008 h 2.752 v -3.168 h -9.664 v 3.168 h 2.72 z"
             style=""
             id="path4742" />
          <path
             d="m 44.546839,140.87422 v 3.04 h 8.8 v -3.04 h -2.368 v -3.872 c 0,-0.416 0,-0.768 -0.032,-1.024 l -0.064,-0.384 h 0.064 c 0.32,0.416 0.704,0.8 1.152,1.152 0.768,0.608 1.92,1.152 3.552,1.152 4.288,0 7.456,-3.36 7.456,-8.544 0,-5.056 -2.816,-8.544 -7.232,-8.544 -1.92,0 -3.2,0.64 -4.064,1.376 -0.48,0.416 -0.896,0.864 -1.184,1.376 h -0.064 c 0.032,-0.064 0.032,-0.128 0.032,-0.224 v -0.512 -0.096 c 0,-0.864 -0.512,-1.536 -2.016,-1.536 h -4.192 v 3.04 h 1.824 c 0.48,0 0.704,0.224 0.704,0.704 v 15.936 z m 6.304,-11.424 c 0,-3.584 1.952,-5.152 4.096,-5.152 2.432,0 4.064,2.016 4.064,5.12 0,3.232 -1.856,5.056 -4.096,5.056 -2.688,0 -4.064,-2.496 -4.064,-5.024 z"
             style=""
             id="path4744" />
          <path
             d="m 65.743339,137.51422 h 8.768 v -3.04 h -2.336 v -3.552 c 0,-3.072 1.472,-5.952 4.768,-5.952 0.288,0 0.48,0 0.704,0.032 0.096,0.032 0.192,0.032 0.288,0.032 v -4 c -0.064,0 -0.128,0 -0.224,-0.032 -0.128,-0.032 -0.288,-0.032 -0.512,-0.032 -2.528,0 -4.416,1.856 -5.184,4.192 h -0.064 c 0,-0.096 0,-0.192 0.032,-0.288 0.032,-0.224 0.032,-0.448 0.032,-0.736 v -0.96 c 0,-1.312 -0.736,-1.984 -2.176,-1.984 h -4.256 v 3.04 h 1.824 c 0.48,0 0.704,0.224 0.704,0.704 v 9.536 h -2.368 z"
             style=""
             id="path4746" />
          <path
             d="m 79.417339,132.93822 c 0,3.328 2.592,4.96 5.408,4.96 1.92,0 3.136,-0.768 4,-1.568 0.48,-0.48 0.864,-0.992 1.152,-1.568 h 0.064 c 0,0.064 0,0.128 -0.032,0.224 -0.032,0.16 -0.064,0.352 -0.064,0.608 v 0.192 c 0,0.928 0.576,1.728 2.08,1.728 h 3.84 v -3.04 h -1.472 c -0.48,0 -0.704,-0.224 -0.704,-0.704 v -6.528 c 0,-4.192 -2.336,-6.432 -6.72,-6.432 -1.952,0 -3.584,0.48 -4.704,0.992 -0.672,0.288 -1.248,0.64 -1.76,1.024 l 1.504,2.816 c 0.416,-0.288 0.896,-0.576 1.408,-0.8 0.864,-0.384 1.952,-0.768 3.2,-0.768 1.696,0 3.008,0.736 3.008,2.816 v 0.544 h -1.024 c -2.624,0 -9.184,0.512 -9.184,5.504 z m 4.096,-0.32 c 0,-2.464 3.84,-2.72 5.472,-2.72 h 0.672 v 0.544 c 0,2.048 -1.568,4.416 -3.776,4.416 -1.504,0 -2.368,-0.992 -2.368,-2.24 z"
             style=""
             id="path4748" />
          <path
             d="m 97.671839,129.38622 c 0,5.248 4.224001,8.512 8.992001,8.512 3.136,0 5.632,-1.472 6.752,-2.528 l -1.44,-2.88 c -0.896,0.704 -2.784,1.984 -5.088,1.984 -2.784,0 -5.12,-1.824 -5.12,-5.184 0,-2.976 1.824,-5.024 4.8,-5.024 1.376,0 3.04,0.48 3.04,1.6 v 1.088 h 3.52 v -2.24 c 0,-2.88 -3.968,-3.904 -6.688,-3.904 -5.024,0 -8.768001,3.712 -8.768001,8.576 z"
             style=""
             id="path4750" />
          <path
             d="m 115.93084,137.51422 h 8.768 v -3.04 h -2.336 v -3.968 c 0,-2.944 1.312,-5.984 4.192,-5.984 1.92,0 2.208,1.472 2.208,3.264 v 9.728 h 6.4 v -3.04 h -2.368 v -4.16 c 0,-3.008 1.376,-5.792 4.16,-5.792 1.92,0 2.24,1.408 2.24,3.264 v 9.728 h 6.432 v -3.04 h -2.368 v -7.456 c 0,-4.32 -1.92,-6.208 -5.248,-6.208 -2.592,0 -4.736,1.632 -5.664,3.552 h -0.064 c -0.64,-2.528 -2.24,-3.552 -4.544,-3.552 -2.656,0 -4.736,1.984 -5.568,3.648 h -0.064 c 0,-0.064 0,-0.128 0.032,-0.224 0.032,-0.128 0.032,-0.32 0.032,-0.48 v -0.736 c 0,-1.152 -0.704,-1.824 -2.144,-1.824 h -4.256 v 3.04 h 1.824 c 0.48,0 0.704,0.224 0.704,0.672 v 9.568 h -2.368 z"
             style=""
             id="path4752" />
          <path
             d="m 147.45384,129.35422 c 0,4.608 3.36,8.544 8.768,8.544 2.048,0 3.68,-0.544 4.832,-1.152 0.672,-0.352 1.28,-0.704 1.76,-1.12 l -1.568,-2.88 c -0.416,0.32 -0.864,0.608 -1.376,0.864 -0.864,0.48 -1.984,0.864 -3.36,0.864 -2.464,0 -4.64,-1.568 -4.896,-4.544 h 11.296 l 0.064,-0.512 c 0.032,-0.288 0.032,-0.64 0.032,-0.864 0,-4.32 -2.56,-7.744 -7.264,-7.744 -4.896,0 -8.288,3.52 -8.288,8.544 z m 4.256,-1.824 c 0.384,-2.176 1.856,-3.584 3.936,-3.584 1.76,0 3.072,1.312 3.168,3.584 z"
             style=""
             id="path4754" />
          <path
             d="m 173.32884,133.96222 c 0,2.656 3.68,3.936 6.624,3.936 3.744,0 6.88,-1.632 6.88,-4.96 0,-3.2 -2.944,-4.256 -5.44,-5.024 -1.824,-0.512 -3.424,-1.088 -3.424,-2.432 0,-1.024 1.088,-1.472 2.368,-1.472 1.44,0 2.4,0.48 2.4,1.344 v 0.928 h 3.488 v -2.08 c 0,-2.464 -3.52,-3.392 -5.888,-3.392 -2.944,0 -6.432,1.216 -6.432,4.672 0,3.136 2.784,4.192 5.152,5.056 2.176,0.768 3.712,1.184 3.712,2.528 0,1.12 -1.152,1.664 -2.784,1.664 -1.696,0 -3.2,-0.576 -3.2,-1.696 v -0.96 h -3.456 z"
             style=""
             id="path4756" />
          <path
             d="m 188.27884,124.23422 h 1.984 l 4.96,13.28 h 4.672 l 4.992,-13.28 h 1.952 v -3.04 h -7.84 v 3.04 h 1.856 l -2.848,8.064 c -0.128,0.416 -0.192,0.864 -0.288,1.216 l -0.096,0.576 h -0.096 l -0.096,-0.576 c -0.096,-0.352 -0.16,-0.8 -0.32,-1.216 l -2.816,-8.064 h 1.824 v -3.04 h -7.84 z"
             style=""
             id="path4758" />
          <path
             d="m 208.26634,129.35422 c 0,4.608 3.36,8.544 8.768,8.544 2.048,0 3.68,-0.544 4.832,-1.152 0.672,-0.352 1.28,-0.704 1.76,-1.12 l -1.568,-2.88 c -0.416,0.32 -0.864,0.608 -1.376,0.864 -0.864,0.48 -1.984,0.864 -3.36,0.864 -2.464,0 -4.64,-1.568 -4.896,-4.544 h 11.296 l 0.064,-0.512 c 0.032,-0.288 0.032,-0.64 0.032,-0.864 0,-4.32 -2.56,-7.744 -7.264,-7.744 -4.896,0 -8.288,3.52 -8.288,8.544 z m 4.256,-1.824 c 0.384,-2.176 1.856,-3.584 3.936,-3.584 1.76,0 3.072,1.312 3.168,3.584 z"
             style=""
             id="path4760" />
          <path
             d="m 228.15734,131.53022 c 0,5.472 4.512,6.144 6.816,6.144 0.384,0 0.672,0 0.896,-0.032 l 0.352,-0.064 v -3.328 h -0.192 c -0.128,0 -0.32,0.032 -0.544,0.032 -1.152,0 -3.264,-0.352 -3.264,-3.168 v -6.88 h 3.712 v -3.04 h -3.712 v -4.448 h -3.936 v 4.448 h -2.624 v 3.04 h 2.496 z"
             style=""
             id="path4762" />
        </g>
        <g
           aria-label="Upracme Slovensko"
           style="font-style:normal;font-variant:normal;font-weight:normal;font-stretch:normal;font-size:32px;line-height:24.99999809px;font-family:'Museo Slab';-inkscape-font-specification:'Museo Slab, Normal';font-variant-ligatures:normal;font-variant-caps:normal;font-variant-numeric:normal;font-feature-settings:normal;text-align:start;writing-mode:lr-tb;text-anchor:start;opacity:1;fill:#000000;fill-opacity:1;fill-rule:evenodd;stroke:none;stroke-width:3.77952766;stroke-linecap:round;stroke-linejoin:miter;stroke-miterlimit:4;stroke-dasharray:none;stroke-dashoffset:0;stroke-opacity:1"
           id="text4873">
          <path
             d="m 349.92083,127.54166 c 0,2.304 0.512,4.224 1.696,5.728 1.568,2.048 4.32,3.2 7.552,3.2 3.072,0 5.888,-1.056 7.552,-3.232 1.056,-1.44 1.664,-3.488 1.664,-5.696 v -11.008 h 2.72 v -3.168 h -9.632 v 3.168 h 2.72 v 10.976 c 0,1.28 -0.256,2.368 -0.768,3.232 -0.864,1.376 -2.336,2.048 -4.256,2.048 -1.92,0 -3.488,-0.736 -4.288,-2.016 -0.48,-0.8 -0.768,-1.952 -0.768,-3.232 v -11.008 h 2.752 v -3.168 h -9.664 v 3.168 h 2.72 z"
             style=""
             id="path4686" />
          <path
             d="m 372.54683,139.44566 v 3.04 h 8.8 v -3.04 h -2.368 v -3.872 c 0,-0.416 0,-0.768 -0.032,-1.024 l -0.064,-0.384 h 0.064 c 0.32,0.416 0.704,0.8 1.152,1.152 0.768,0.608 1.92,1.152 3.552,1.152 4.288,0 7.456,-3.36 7.456,-8.544 0,-5.056 -2.816,-8.544 -7.232,-8.544 -1.92,0 -3.2,0.64 -4.064,1.376 -0.48,0.416 -0.896,0.864 -1.184,1.376 h -0.064 c 0.032,-0.064 0.032,-0.128 0.032,-0.224 v -0.512 -0.096 c 0,-0.864 -0.512,-1.536 -2.016,-1.536 h -4.192 v 3.04 h 1.824 c 0.48,0 0.704,0.224 0.704,0.704 v 15.936 z m 6.304,-11.424 c 0,-3.584 1.952,-5.152 4.096,-5.152 2.432,0 4.064,2.016 4.064,5.12 0,3.232 -1.856,5.056 -4.096,5.056 -2.688,0 -4.064,-2.496 -4.064,-5.024 z"
             style=""
             id="path4688" />
          <path
             d="m 393.74333,136.08566 h 8.768 v -3.04 h -2.336 v -3.552 c 0,-3.072 1.472,-5.952 4.768,-5.952 0.288,0 0.48,0 0.704,0.032 0.096,0.032 0.192,0.032 0.288,0.032 v -4 c -0.064,0 -0.128,0 -0.224,-0.032 -0.128,-0.032 -0.288,-0.032 -0.512,-0.032 -2.528,0 -4.416,1.856 -5.184,4.192 h -0.064 c 0,-0.096 0,-0.192 0.032,-0.288 0.032,-0.224 0.032,-0.448 0.032,-0.736 v -0.96 c 0,-1.312 -0.736,-1.984 -2.176,-1.984 h -4.256 v 3.04 h 1.824 c 0.48,0 0.704,0.224 0.704,0.704 v 9.536 h -2.368 z"
             style=""
             id="path4690" />
          <path
             d="m 407.41733,131.50966 c 0,3.328 2.592,4.96 5.408,4.96 1.92,0 3.136,-0.768 4,-1.568 0.48,-0.48 0.864,-0.992 1.152,-1.568 h 0.064 c 0,0.064 0,0.128 -0.032,0.224 -0.032,0.16 -0.064,0.352 -0.064,0.608 v 0.192 c 0,0.928 0.576,1.728 2.08,1.728 h 3.84 v -3.04 h -1.472 c -0.48,0 -0.704,-0.224 -0.704,-0.704 v -6.528 c 0,-4.192 -2.336,-6.432 -6.72,-6.432 -1.952,0 -3.584,0.48 -4.704,0.992 -0.672,0.288 -1.248,0.64 -1.76,1.024 l 1.504,2.816 c 0.416,-0.288 0.896,-0.576 1.408,-0.8 0.864,-0.384 1.952,-0.768 3.2,-0.768 1.696,0 3.008,0.736 3.008,2.816 v 0.544 h -1.024 c -2.624,0 -9.184,0.512 -9.184,5.504 z m 4.096,-0.32 c 0,-2.464 3.84,-2.72 5.472,-2.72 h 0.672 v 0.544 c 0,2.048 -1.568,4.416 -3.776,4.416 -1.504,0 -2.368,-0.992 -2.368,-2.24 z"
             style=""
             id="path4692" />
          <path
             d="m 425.67183,127.95766 c 0,5.248 4.224,8.512 8.992,8.512 3.136,0 5.632,-1.472 6.752,-2.528 l -1.44,-2.88 c -0.896,0.704 -2.784,1.984 -5.088,1.984 -2.784,0 -5.12,-1.824 -5.12,-5.184 0,-2.976 1.824,-5.024 4.8,-5.024 1.376,0 3.04,0.48 3.04,1.6 v 1.088 h 3.52 v -2.24 c 0,-2.88 -3.968,-3.904 -6.688,-3.904 -5.024,0 -8.768,3.712 -8.768,8.576 z"
             style=""
             id="path4694" />
          <path
             d="m 443.93083,136.08566 h 8.768 v -3.04 h -2.336 v -3.968 c 0,-2.944 1.312,-5.984 4.192,-5.984 1.92,0 2.208,1.472 2.208,3.264 v 9.728 h 6.4 v -3.04 h -2.368 v -4.16 c 0,-3.008 1.376,-5.792 4.16,-5.792 1.92,0 2.24,1.408 2.24,3.264 v 9.728 h 6.432 v -3.04 h -2.368 v -7.456 c 0,-4.32 -1.92,-6.208 -5.248,-6.208 -2.592,0 -4.736,1.632 -5.664,3.552 h -0.064 c -0.64,-2.528 -2.24,-3.552 -4.544,-3.552 -2.656,0 -4.736,1.984 -5.568,3.648 h -0.064 c 0,-0.064 0,-0.128 0.032,-0.224 0.032,-0.128 0.032,-0.32 0.032,-0.48 v -0.736 c 0,-1.152 -0.704,-1.824 -2.144,-1.824 h -4.256 v 3.04 h 1.824 c 0.48,0 0.704,0.224 0.704,0.672 v 9.568 h -2.368 z"
             style=""
             id="path4696" />
          <path
             d="m 475.45383,127.92566 c 0,4.608 3.36,8.544 8.768,8.544 2.048,0 3.68,-0.544 4.832,-1.152 0.672,-0.352 1.28,-0.704 1.76,-1.12 l -1.568,-2.88 c -0.416,0.32 -0.864,0.608 -1.376,0.864 -0.864,0.48 -1.984,0.864 -3.36,0.864 -2.464,0 -4.64,-1.568 -4.896,-4.544 h 11.296 l 0.064,-0.512 c 0.032,-0.288 0.032,-0.64 0.032,-0.864 0,-4.32 -2.56,-7.744 -7.264,-7.744 -4.896,0 -8.288,3.52 -8.288,8.544 z m 4.256,-1.824 c 0.384,-2.176 1.856,-3.584 3.936,-3.584 1.76,0 3.072,1.312 3.168,3.584 z"
             style=""
             id="path4698" />
          <path
             d="m 501.74483,128.75766 v 2.592 c 0,3.424 4.032,5.12 7.808,5.12 4.288,0 8.192,-2.144 8.192,-6.784 0,-4.224 -3.36,-5.632 -6.784,-6.816 -2.336,-0.928 -4.48,-1.6 -4.48,-3.712 0,-1.728 1.536,-2.496 3.392,-2.496 1.696,0 3.392,0.608 3.392,1.76 v 1.536 h 3.808 v -2.976 c 0,-2.656 -3.616,-4 -7.2,-4 -3.936,0 -7.616,1.76 -7.616,6.336 0,4.096 2.976,5.408 6.016,6.592 2.624,1.024 5.216,1.792 5.216,4.064 0,1.824 -1.632,2.816 -3.936,2.816 -2.144,0 -4,-0.896 -4,-2.336 v -1.696 z"
             style=""
             id="path4700" />
          <path
             d="m 521.67133,130.90166 c 0,4.448 2.4,5.312 4.992,5.312 0.416,0 0.768,0 1.024,-0.032 l 0.448,-0.064 v -3.264 h -0.224 c -0.128,0 -0.32,0.032 -0.544,0.032 -1.376,0 -1.664,-0.736 -1.664,-2.24 v -17.28 h -6.56 v 3.04 h 2.528 z"
             style=""
             id="path4702" />
          <path
             d="m 530.23433,127.92566 c 0,5.024 4,8.544 8.992,8.544 4.96,0 8.96,-3.52 8.96,-8.544 0,-4.992 -4,-8.544 -8.992,-8.544 -4.96,0 -8.96,3.552 -8.96,8.544 z m 4.128,0 c 0,-3.008 2.208,-5.088 4.864,-5.088 2.656,0 4.832,2.08 4.832,5.088 0,3.04 -2.176,5.088 -4.832,5.088 -2.656,0 -4.864,-2.048 -4.864,-5.088 z"
             style=""
             id="path4704" />
          <path
             d="m 549.46633,122.80566 h 1.984 l 4.96,13.28 h 4.672 l 4.992,-13.28 h 1.952 v -3.04 h -7.84 v 3.04 h 1.856 l -2.848,8.064 c -0.128,0.416 -0.192,0.864 -0.288,1.216 l -0.096,0.576 h -0.096 l -0.096,-0.576 c -0.096,-0.352 -0.16,-0.8 -0.32,-1.216 l -2.816,-8.064 h 1.824 v -3.04 h -7.84 z"
             style=""
             id="path4706" />
          <path
             d="m 569.45383,127.92566 c 0,4.608 3.36,8.544 8.768,8.544 2.048,0 3.68,-0.544 4.832,-1.152 0.672,-0.352 1.28,-0.704 1.76,-1.12 l -1.568,-2.88 c -0.416,0.32 -0.864,0.608 -1.376,0.864 -0.864,0.48 -1.984,0.864 -3.36,0.864 -2.464,0 -4.64,-1.568 -4.896,-4.544 h 11.296 l 0.064,-0.512 c 0.032,-0.288 0.032,-0.64 0.032,-0.864 0,-4.32 -2.56,-7.744 -7.264,-7.744 -4.896,0 -8.288,3.52 -8.288,8.544 z m 4.256,-1.824 c 0.384,-2.176 1.856,-3.584 3.936,-3.584 1.76,0 3.072,1.312 3.168,3.584 z"
             style=""
             id="path4708" />
          <path
             d="m 587.68083,136.08566 h 8.768 v -3.04 h -2.336 v -4.288 c 0,-2.848 1.728,-5.664 4.672,-5.664 2.048,0 2.592,1.312 2.592,3.328 v 9.664 h 6.4 v -3.04 h -2.368 v -7.456 c 0,-4.352 -1.984,-6.208 -5.472,-6.208 -4.064,0 -5.856,3.136 -6.016,3.648 h -0.064 c 0,-0.064 0,-0.128 0.032,-0.224 0.032,-0.128 0.032,-0.32 0.032,-0.48 v -0.736 c 0,-1.152 -0.672,-1.824 -2.112,-1.824 h -4.288 v 3.04 h 1.824 c 0.48,0 0.704,0.224 0.704,0.704 v 9.536 h -2.368 z"
             style=""
             id="path4710" />
          <path
             d="m 609.64133,132.53366 c 0,2.656 3.68,3.936 6.624,3.936 3.744,0 6.88,-1.632 6.88,-4.96 0,-3.2 -2.944,-4.256 -5.44,-5.024 -1.824,-0.512 -3.424,-1.088 -3.424,-2.432 0,-1.024 1.088,-1.472 2.368,-1.472 1.44,0 2.4,0.48 2.4,1.344 v 0.928 h 3.488 v -2.08 c 0,-2.464 -3.52,-3.392 -5.888,-3.392 -2.944,0 -6.432,1.216 -6.432,4.672 0,3.136 2.784,4.192 5.152,5.056 2.176,0.768 3.712,1.184 3.712,2.528 0,1.12 -1.152,1.664 -2.784,1.664 -1.696,0 -3.2,-0.576 -3.2,-1.696 v -0.96 h -3.456 z"
             style=""
             id="path4712" />
          <path
             d="m 625.19933,136.08566 h 8.192 v -3.04 h -1.76 v -4.128 h 0.96 c 0.608,0 1.056,0 1.408,0.608 l 2.944,5.152 c 0.64,1.184 1.184,1.408 2.56,1.408 h 3.04 v -3.04 h -0.928 c -0.768,0 -1.056,-0.096 -1.344,-0.576 l -2.304,-4.032 c -0.64,-1.12 -1.216,-1.376 -1.248,-1.376 v -0.064 l 3.552,-4.192 h 2.112 v -3.04 h -7.84 v 3.04 h 1.888 l -2.656,3.136 h -2.144 v -12.576 h -6.592 v 3.04 h 2.528 v 16.64 h -2.368 z"
             style=""
             id="path4714" />
          <path
             d="m 644.79683,127.92566 c 0,5.024 4,8.544 8.992,8.544 4.96,0 8.96,-3.52 8.96,-8.544 0,-4.992 -4,-8.544 -8.992,-8.544 -4.96,0 -8.96,3.552 -8.96,8.544 z m 4.128,0 c 0,-3.008 2.208,-5.088 4.864,-5.088 2.656,0 4.832,2.08 4.832,5.088 0,3.04 -2.176,5.088 -4.832,5.088 -2.656,0 -4.864,-2.048 -4.864,-5.088 z"
             style=""
             id="path4716" />
        </g>
        <g
           id="g4944">
          <g
             id="g4500">
            <circle
               style="fill:#ffffff"
               cx="275.63501"
               cy="94.200996"
               r="17.065001"
               id="circle4486" />
            <circle
               style="fill:#ffffff"
               cx="306.31799"
               cy="90.831001"
               r="17.065001"
               id="circle4488" />
            <circle
               style="fill:#ffffff"
               cx="324.50699"
               cy="116.062"
               r="17.065001"
               id="circle4490" />
            <circle
               style="fill:#ffffff"
               cx="312.362"
               cy="144.545"
               r="17.065001"
               id="circle4492" />
            <circle
               style="fill:#ffffff"
               cx="281.82001"
               cy="148.959"
               r="17.065001"
               id="circle4494" />
            <circle
               style="fill:#ffffff"
               cx="263.76099"
               cy="123.804"
               r="17.065001"
               id="circle4496" />
            <ellipse
               style="fill:#ffffff"
               cx="294.25"
               cy="118.903"
               rx="21.375999"
               ry="22.129"
               id="ellipse4498" />
          </g>
          <path
             style="fill:#a9bd5b"
             inkscape:connector-curvature="0"
             d="m 297.965,144.508 c 0.154,-8.322 6.736,-14.71 14.972,-14.633 7.987,0.074 14.891,6.935 14.496,15.664 -0.346,7.67 -7.066,14.103 -14.981,13.968 -8.139,-0.138 -14.637,-6.865 -14.487,-14.999 z"
             id="path4502" />
          <path
             style="fill:#885d40"
             inkscape:connector-curvature="0"
             d="m 306.257,105.757 c -8.176,-0.012 -14.703,-6.65 -14.69,-14.938 0.014,-8.168 6.657,-14.672 14.967,-14.653 7.999,0.019 14.585,6.701 14.581,14.795 -0.003,8.202 -6.636,14.808 -14.858,14.796 z"
             id="path4504" />
          <path
             style="fill:#158c46"
             inkscape:connector-curvature="0"
             d="m 278.527,124.007 c -0.023,8.235 -6.595,14.752 -14.871,14.744 -8.186,-0.007 -14.649,-6.63 -14.614,-14.974 0.034,-8.081 6.662,-14.673 14.705,-14.625 8.273,0.049 14.803,6.612 14.78,14.855 z"
             id="path4506" />
          <path
             style="fill:#ed902a"
             inkscape:connector-curvature="0"
             d="m 339.305,116.216 c 10e-4,8.269 -6.536,14.796 -14.813,14.79 -8.088,-0.006 -14.821,-6.77 -14.736,-14.803 0.087,-8.256 6.675,-14.802 14.882,-14.79 8.147,0.012 14.666,6.593 14.667,14.803 z"
             id="path4508" />
          <path
             style="fill:#106db1"
             inkscape:connector-curvature="0"
             d="m 292.993,109.545 c 0.966,1.517 1.95,2.876 2.73,4.344 0.648,1.219 1.211,1.144 2.01,0.226 0.264,-0.303 0.612,-0.533 0.921,-0.797 1.6,-1.366 1.6,-1.366 2.509,0.457 1.189,2.384 1.189,2.384 3.475,1.002 0.347,-0.21 0.699,-0.413 1.049,-0.619 1.595,-0.938 1.595,-0.938 2.28,0.726 2.327,5.66 0.83,12.399 -3.674,16.528 -4.605,4.223 -11.408,5.115 -16.878,2.213 -5.461,-2.897 -8.606,-8.976 -7.782,-15.041 0.217,-1.602 0.217,-1.602 1.646,-0.908 2.317,1.126 2.484,1.186 3.363,-1.246 0.878,-2.429 2.151,-3.807 4.894,-3.198 1.219,0.271 1.913,-0.301 2.319,-1.446 0.267,-0.747 0.718,-1.43 1.138,-2.241 z"
             id="path4510" />
          <path
             style="fill:#e0292b"
             inkscape:connector-curvature="0"
             d="m 281.873,163.897 c -8.154,0.035 -14.865,-6.638 -14.799,-14.677 0.007,-0.816 0.092,-1.224 1.08,-1.098 1.578,0.201 2.66,-0.553 3.325,-2.003 0.658,-1.434 1.279,-2.894 2.213,-4.183 1.516,-2.092 3.011,-2.517 5.41,-1.555 1.443,0.578 2.787,1.378 3.883,2.439 2.803,2.717 6.209,2.815 9.747,2.487 0.626,-0.058 1.275,-0.146 1.853,-0.374 1.017,-0.4 1.411,-0.236 1.672,0.944 2.037,9.193 -4.943,17.981 -14.384,18.02 z"
             id="path4512" />
          <path
             style="fill:#e45b2c"
             inkscape:connector-curvature="0"
             d="m 263.232,94.318 c 6.003,-0.047 11.446,-1.935 15.688,-6.625 0.679,-0.75 1.058,-0.714 1.663,-0.02 0.442,0.507 0.996,0.917 1.501,1.369 1.941,1.737 4.181,2.253 6.677,1.563 0.79,-0.219 1.18,-0.126 1.372,0.779 1.966,9.275 -5.407,18.135 -14.895,17.861 -7.522,-0.218 -13.761,-6.167 -14.34,-13.672 -0.103,-1.332 -0.103,-1.332 2.334,-1.255 z"
             id="path4514" />
          <path
             style="fill:#e45b2c"
             inkscape:connector-curvature="0"
             d="m 286.653,89.778 c -1.44,0.124 -2.636,-0.585 -3.735,-1.497 -0.765,-0.634 -1.532,-1.278 -2.211,-1.999 -0.808,-0.859 -1.318,-0.83 -2.13,0.116 -4.342,5.062 -9.968,7.084 -16.541,6.744 -0.755,-0.039 -1.093,-0.168 -0.973,-1.098 0.788,-6.14 6.218,-11.506 12.56,-12.319 6.602,-0.846 13.253,2.897 15.552,8.71 0.281,0.711 0.151,0.95 -0.573,1.105 -0.625,0.135 -1.239,0.244 -1.949,0.238 z"
             id="path4516" />
          <path
             style="fill:#e0292b"
             inkscape:connector-curvature="0"
             d="m 289.882,144.323 c -2.012,0.156 -4.06,-0.51 -5.866,-2.122 -1.343,-1.198 -2.86,-2.205 -4.571,-2.867 -2.91,-1.126 -4.911,-0.525 -6.704,2.035 -0.886,1.264 -1.487,2.68 -2.171,4.052 -0.218,0.438 -0.468,0.899 -0.819,1.222 -0.626,0.575 -1.511,0.613 -2.175,0.29 -0.649,-0.316 -0.171,-1.053 -0.032,-1.576 1.604,-6.071 6.559,-10.32 12.832,-11.031 5.808,-0.658 11.692,2.523 14.496,7.838 0.719,1.362 0.671,1.485 -0.867,1.816 -1.24,0.269 -2.498,0.399 -4.123,0.343 z"
             id="path4518" />
          <path
             style="fill:#106db1"
             inkscape:connector-curvature="0"
             d="m 292.859,107.26 c -0.746,1.48 -1.418,2.739 -2.017,4.032 -0.287,0.618 -0.675,0.987 -1.348,0.821 -3.451,-0.855 -4.938,1.131 -5.907,3.976 -0.134,0.392 -0.228,1.204 -0.841,1.02 -0.841,-0.252 -1.608,-0.773 -2.363,-1.249 -0.081,-0.051 0.096,-0.586 0.216,-0.869 2.224,-5.257 6.18,-8.424 11.809,-9.156 5.52,-0.718 10.079,1.303 13.616,5.629 0.574,0.702 0.383,0.986 -0.317,1.41 -2.898,1.756 -2.884,1.78 -4.39,-1.244 -0.716,-1.438 -0.697,-1.414 -1.953,-0.414 -0.867,0.69 -1.693,2.143 -2.56,1.916 -0.811,-0.213 -1.29,-1.717 -1.902,-2.662 -0.652,-1.007 -1.289,-2.024 -2.043,-3.21 z"
             id="path4520" />
          <path
             style="fill:#fdfdfc"
             inkscape:connector-curvature="0"
             d="m 313.927,155.189 c -3.41,-0.081 -5.981,-1.549 -8.242,-3.687 -0.305,-0.289 -0.595,-0.708 -0.252,-1.06 0.447,-0.458 0.802,0.008 1.113,0.319 1.033,1.029 2.207,1.87 3.53,2.467 3.629,1.639 7.123,0.804 9.996,-2.366 0.91,-1.004 1.717,-2.09 2.411,-3.256 0.242,-0.406 0.513,-0.848 1.044,-0.524 0.512,0.312 0.145,0.717 -0.06,1.044 -2.002,3.198 -4.307,6.039 -8.268,6.88 -0.481,0.102 -0.976,0.141 -1.272,0.183 z"
             id="path4522" />
          <path
             style="fill:#fcfdfa"
             inkscape:connector-curvature="0"
             d="m 315.647,140.319 c 0.023,-1.051 0.657,-1.564 1.615,-1.636 0.937,-0.071 1.736,0.802 1.672,1.748 -0.068,1.004 -0.654,1.58 -1.64,1.646 -0.931,0.062 -1.667,-0.772 -1.647,-1.758 z"
             id="path4524" />
          <path
             style="fill:#fcfdfb"
             inkscape:connector-curvature="0"
             d="m 307.302,144.733 c -0.894,-0.106 -1.488,-0.653 -1.605,-1.625 -0.11,-0.917 0.707,-1.738 1.665,-1.752 0.909,-0.014 1.774,0.826 1.702,1.737 -0.079,0.997 -0.691,1.526 -1.762,1.64 z"
             id="path4526" />
          <path
             style="fill:#fcfcfc"
             inkscape:connector-curvature="0"
             d="m 314.235,82.529 c 0.257,-0.005 0.568,0.059 0.608,0.466 0.05,0.497 -0.363,0.591 -0.702,0.667 -1.892,0.424 -3.79,0.825 -5.686,1.233 -1.878,0.404 -1.885,0.407 -1.039,2.068 1.31,2.572 2.605,5.152 3.963,7.699 0.399,0.748 0.319,1.054 -0.518,1.299 -1.338,0.391 -2.639,0.91 -3.963,1.353 -0.368,0.123 -0.846,0.34 -1.034,-0.22 -0.177,-0.526 0.268,-0.691 0.661,-0.831 0.934,-0.332 1.852,-0.723 2.808,-0.971 0.811,-0.21 0.863,-0.502 0.492,-1.204 -1.473,-2.792 -2.863,-5.628 -4.342,-8.417 -0.442,-0.833 -0.496,-1.192 0.603,-1.395 2.481,-0.459 4.936,-1.058 7.402,-1.599 0.221,-0.048 0.443,-0.088 0.747,-0.148 z"
             id="path4528" />
          <path
             style="fill:#fbfbfa"
             inkscape:connector-curvature="0"
             d="m 314.351,87.808 c -0.066,0.89 -0.614,1.456 -1.613,1.519 -0.963,0.061 -1.731,-0.715 -1.695,-1.688 0.037,-1.02 0.625,-1.572 1.612,-1.644 0.956,-0.07 1.709,0.719 1.696,1.813 z"
             id="path4530" />
          <path
             style="fill:#fcfbfa"
             inkscape:connector-curvature="0"
             d="m 301.707,90.977 c -0.974,0.035 -1.784,-0.698 -1.759,-1.647 0.027,-1.008 0.614,-1.583 1.579,-1.702 0.944,-0.116 1.702,0.66 1.716,1.658 0.013,0.976 -0.605,1.657 -1.536,1.691 z"
             id="path4532" />
          <path
             style="fill:#fcfdfc"
             inkscape:connector-curvature="0"
             d="m 262.865,135.638 c -1.861,-0.126 -3.671,-0.433 -5.103,-1.794 -1.631,-1.55 -1.564,-3.603 0.145,-5.042 2.552,-2.149 7.572,-2.15 10.099,-0.002 1.686,1.433 1.757,3.544 0.134,5.058 -1.479,1.378 -3.335,1.69 -5.275,1.78 z"
             id="path4534" />
          <path
             style="fill:#fafcfa"
             inkscape:connector-curvature="0"
             d="m 258.779,114.951 c 0.957,0.011 1.744,0.805 1.65,1.75 -0.098,0.982 -0.666,1.558 -1.683,1.578 -0.955,0.019 -1.7,-0.789 -1.654,-1.746 0.044,-0.9 0.782,-1.593 1.687,-1.582 z"
             id="path4536" />
          <path
             style="fill:#fafcfb"
             inkscape:connector-curvature="0"
             d="m 270.387,117.216 c 0.023,0.987 -0.696,1.737 -1.679,1.697 -1.006,-0.041 -1.581,-0.572 -1.614,-1.604 -0.032,-0.984 0.706,-1.743 1.658,-1.732 0.892,0.011 1.614,0.734 1.635,1.639 z"
             id="path4538" />
          <path
             style="fill:#fdfdfc"
             inkscape:connector-curvature="0"
             d="m 326.66,113.79 c 0.274,-0.697 -0.095,-1.096 -0.701,-1.361 -0.625,-0.274 -1.226,-0.26 -1.785,0.178 -0.566,0.444 -0.284,0.941 -0.142,1.472 0.811,3.047 -0.879,5.862 -3.884,6.516 -2.717,0.591 -5.527,-1.339 -6.028,-4.143 -0.518,-2.895 1.492,-5.563 4.54,-5.975 1.264,-0.171 2.432,0.193 3.443,0.944 0.585,0.435 1.023,0.722 1.72,0.111 0.606,-0.532 1.529,-0.608 2.188,-0.232 1.02,0.582 1.432,0.106 2.048,-0.609 1.504,-1.746 4.013,-2.123 6.068,-1.05 1.956,1.021 3.085,3.359 2.646,5.479 -0.484,2.336 -2.413,4.039 -4.725,4.173 -2.237,0.129 -4.289,-1.232 -5.063,-3.353 -0.253,-0.689 -0.347,-1.399 -0.325,-2.15 z"
             id="path4540" />
          <path
             style="fill:#f8fbfc"
             inkscape:connector-curvature="0"
             d="m 298.315,118.72 c 0.091,-0.838 0.657,-1.415 1.63,-1.5 0.92,-0.081 1.686,0.762 1.67,1.728 -0.017,1.056 -0.645,1.567 -1.604,1.651 -0.936,0.081 -1.721,-0.771 -1.696,-1.879 z"
             id="path4542" />
          <path
             style="fill:#fbfcfc"
             inkscape:connector-curvature="0"
             d="m 290.235,121.54 c -1.209,0.024 -2.004,-0.709 -1.94,-1.662 0.066,-0.982 0.61,-1.576 1.628,-1.628 0.952,-0.048 1.766,0.732 1.708,1.679 -0.06,0.983 -0.589,1.57 -1.396,1.611 z"
             id="path4544" />
          <path
             style="fill:#fdfafa"
             inkscape:connector-curvature="0"
             d="m 277.387,150.782 c -1.092,-0.036 -1.816,-0.819 -1.747,-1.79 0.074,-1.029 0.697,-1.535 1.682,-1.562 0.927,-0.025 1.772,0.875 1.643,1.765 -0.137,0.951 -0.704,1.527 -1.578,1.587 z"
             id="path4546" />
          <path
             style="fill:#fdfbfa"
             inkscape:connector-curvature="0"
             d="m 286.694,149.05 c 1.125,0.145 1.682,0.727 1.611,1.822 -0.068,1.044 -0.705,1.522 -1.689,1.523 -0.958,0 -1.701,-0.848 -1.59,-1.794 0.117,-1 0.756,-1.474 1.668,-1.551 z"
             id="path4548" />
          <path
             style="fill:#fdfbfa"
             inkscape:connector-curvature="0"
             d="m 272.088,96.865 c -0.047,1.029 -0.593,1.623 -1.569,1.742 -0.881,0.108 -1.772,-0.767 -1.787,-1.663 -0.015,-0.892 0.84,-1.788 1.727,-1.714 0.98,0.082 1.547,0.653 1.629,1.635 z"
             id="path4550" />
          <path
             style="fill:#fdfbfa"
             inkscape:connector-curvature="0"
             d="m 280.235,95.296 c -1.126,-0.016 -1.793,-0.728 -1.739,-1.746 0.056,-1.039 0.679,-1.538 1.655,-1.583 0.942,-0.044 1.693,0.785 1.63,1.753 -0.066,1.026 -0.683,1.504 -1.546,1.576 z"
             id="path4552" />
          <path
             style="fill:#158d46"
             inkscape:connector-curvature="0"
             d="m 263.077,128.275 c 1.511,0.064 3.001,0.36 4.219,1.413 1.265,1.094 1.242,2.34 -0.013,3.446 -2.096,1.846 -6.597,1.839 -8.69,-0.013 -1.22,-1.08 -1.233,-2.396 0.025,-3.451 1.267,-1.064 2.802,-1.362 4.459,-1.395 z"
             id="path4554" />
          <path
             style="fill:#ed912a"
             inkscape:connector-curvature="0"
             d="m 323.144,115.494 c 0.017,2.237 -1.783,4.091 -3.986,4.105 -2.109,0.013 -3.979,-1.828 -4.013,-3.951 -0.034,-2.176 1.836,-4.102 4.003,-4.124 2.102,-0.021 3.979,1.844 3.996,3.97 z"
             id="path4556" />
          <path
             style="fill:#ed912a"
             inkscape:connector-curvature="0"
             d="m 331.821,110.143 c 2.094,0.025 3.943,1.906 3.951,4.018 0.007,2.153 -1.943,4.089 -4.072,4.041 -2.221,-0.05 -3.957,-1.901 -3.899,-4.158 0.057,-2.179 1.859,-3.927 4.02,-3.901 z"
             id="path4558" />
        </g>
        <g
           id="g4622">
          <circle
             id="circle4608"
             r="17.065001"
             cy="280.86801"
             cx="275.63501"
             style="fill:#ffffff" />
          <circle
             id="circle4610"
             r="17.065001"
             cy="277.49701"
             cx="306.31799"
             style="fill:#ffffff" />
          <circle
             id="circle4612"
             r="17.065001"
             cy="302.729"
             cx="324.50699"
             style="fill:#ffffff" />
          <circle
             id="circle4614"
             r="17.065001"
             cy="331.211"
             cx="312.362"
             style="fill:#ffffff" />
          <circle
             id="circle4616"
             r="17.065001"
             cy="335.62601"
             cx="281.82001"
             style="fill:#ffffff" />
          <circle
             id="circle4618"
             r="17.065001"
             cy="310.47101"
             cx="263.76099"
             style="fill:#ffffff" />
          <ellipse
             id="ellipse4620"
             ry="22.129"
             rx="21.375999"
             cy="305.57001"
             cx="294.25"
             style="fill:#ffffff" />
        </g>
        <path
           id="path4624"
           d="m 297.965,331.175 c 0.154,-8.322 6.736,-14.71 14.972,-14.633 7.987,0.074 14.891,6.935 14.496,15.664 -0.346,7.671 -7.066,14.103 -14.981,13.968 -8.139,-0.138 -14.637,-6.865 -14.487,-14.999 z"
           inkscape:connector-curvature="0"
           style="fill:#a9bd5b" />
        <path
           id="path4626"
           d="m 306.257,292.424 c -8.176,-0.012 -14.703,-6.65 -14.69,-14.938 0.014,-8.168 6.657,-14.672 14.967,-14.653 7.999,0.019 14.585,6.701 14.581,14.794 -0.003,8.203 -6.636,14.808 -14.858,14.797 z"
           inkscape:connector-curvature="0"
           style="fill:#885d40" />
        <path
           id="path4628"
           d="m 278.527,310.674 c -0.023,8.235 -6.595,14.752 -14.871,14.745 -8.186,-0.007 -14.649,-6.63 -14.614,-14.974 0.034,-8.081 6.662,-14.673 14.705,-14.625 8.273,0.048 14.803,6.61 14.78,14.854 z"
           inkscape:connector-curvature="0"
           style="fill:#158c46" />
        <path
           id="path4630"
           d="m 339.306,302.883 c 0.001,8.269 -6.536,14.796 -14.813,14.79 -8.088,-0.006 -14.821,-6.77 -14.736,-14.803 0.087,-8.256 6.675,-14.802 14.882,-14.79 8.146,0.011 14.666,6.592 14.667,14.803 z"
           inkscape:connector-curvature="0"
           style="fill:#ed902a" />
        <path
           id="path4632"
           d="m 292.993,296.212 c 0.966,1.517 1.95,2.876 2.73,4.344 0.648,1.219 1.211,1.144 2.01,0.226 0.264,-0.303 0.612,-0.533 0.921,-0.797 1.6,-1.366 1.6,-1.366 2.509,0.457 1.189,2.384 1.189,2.384 3.475,1.002 0.347,-0.21 0.699,-0.413 1.049,-0.619 1.595,-0.938 1.595,-0.938 2.28,0.726 2.327,5.66 0.83,12.399 -3.674,16.528 -4.606,4.223 -11.408,5.115 -16.878,2.213 -5.461,-2.897 -8.606,-8.976 -7.782,-15.041 0.217,-1.602 0.217,-1.602 1.646,-0.908 2.317,1.126 2.484,1.186 3.363,-1.246 0.878,-2.429 2.151,-3.807 4.894,-3.198 1.219,0.271 1.913,-0.301 2.319,-1.446 0.267,-0.748 0.718,-1.43 1.138,-2.241 z"
           inkscape:connector-curvature="0"
           style="fill:#106db1" />
        <path
           id="path4634"
           d="m 281.874,350.564 c -8.154,0.035 -14.865,-6.638 -14.799,-14.677 0.007,-0.816 0.092,-1.224 1.08,-1.098 1.578,0.201 2.66,-0.553 3.325,-2.003 0.658,-1.434 1.279,-2.894 2.213,-4.183 1.516,-2.092 3.011,-2.517 5.41,-1.555 1.443,0.578 2.788,1.378 3.883,2.439 2.803,2.717 6.209,2.815 9.747,2.487 0.626,-0.058 1.275,-0.146 1.853,-0.374 1.017,-0.4 1.411,-0.236 1.672,0.944 2.036,9.192 -4.944,17.98 -14.384,18.02 z"
           inkscape:connector-curvature="0"
           style="fill:#e0292b" />
        <path
           id="path4636"
           d="m 263.232,280.984 c 6.003,-0.047 11.446,-1.935 15.688,-6.625 0.679,-0.75 1.058,-0.714 1.663,-0.02 0.442,0.507 0.996,0.917 1.501,1.369 1.941,1.737 4.181,2.253 6.677,1.563 0.79,-0.219 1.18,-0.126 1.372,0.779 1.966,9.275 -5.407,18.135 -14.895,17.861 -7.522,-0.218 -13.761,-6.167 -14.34,-13.672 -0.103,-1.332 -0.103,-1.332 2.334,-1.255 z"
           inkscape:connector-curvature="0"
           style="fill:#e45b2c" />
        <path
           id="path4638"
           d="m 286.653,276.445 c -1.44,0.124 -2.636,-0.585 -3.735,-1.497 -0.765,-0.634 -1.532,-1.278 -2.211,-1.999 -0.808,-0.859 -1.318,-0.83 -2.13,0.116 -4.342,5.062 -9.968,7.084 -16.541,6.744 -0.755,-0.039 -1.093,-0.168 -0.973,-1.098 0.788,-6.14 6.218,-11.506 12.56,-12.319 6.602,-0.846 13.253,2.897 15.552,8.71 0.281,0.711 0.151,0.95 -0.573,1.105 -0.624,0.135 -1.239,0.244 -1.949,0.238 z"
           inkscape:connector-curvature="0"
           style="fill:#e45b2c" />
        <path
           id="path4640"
           d="m 289.882,330.99 c -2.012,0.156 -4.06,-0.51 -5.866,-2.122 -1.343,-1.198 -2.86,-2.205 -4.571,-2.867 -2.91,-1.126 -4.911,-0.525 -6.704,2.035 -0.886,1.264 -1.487,2.68 -2.171,4.052 -0.218,0.438 -0.468,0.899 -0.819,1.222 -0.626,0.575 -1.511,0.613 -2.175,0.29 -0.649,-0.316 -0.17,-1.053 -0.032,-1.576 1.604,-6.071 6.559,-10.32 12.832,-11.031 5.808,-0.658 11.692,2.523 14.496,7.838 0.719,1.362 0.671,1.485 -0.867,1.816 -1.24,0.268 -2.498,0.399 -4.123,0.343 z"
           inkscape:connector-curvature="0"
           style="fill:#e0292b" />
        <path
           id="path4642"
           d="m 292.859,293.926 c -0.746,1.48 -1.418,2.739 -2.017,4.032 -0.287,0.618 -0.675,0.987 -1.348,0.821 -3.451,-0.855 -4.938,1.131 -5.907,3.976 -0.134,0.392 -0.228,1.204 -0.841,1.02 -0.841,-0.252 -1.608,-0.773 -2.363,-1.249 -0.081,-0.051 0.096,-0.586 0.216,-0.869 2.224,-5.257 6.18,-8.424 11.809,-9.156 5.52,-0.718 10.079,1.303 13.616,5.629 0.574,0.702 0.383,0.986 -0.317,1.41 -2.898,1.756 -2.884,1.78 -4.39,-1.244 -0.716,-1.438 -0.697,-1.414 -1.953,-0.414 -0.867,0.69 -1.693,2.143 -2.56,1.916 -0.811,-0.213 -1.29,-1.717 -1.902,-2.662 -0.652,-1.006 -1.289,-2.023 -2.043,-3.21 z"
           inkscape:connector-curvature="0"
           style="fill:#106db1" />
        <path
           id="path4644"
           d="m 313.927,341.856 c -3.41,-0.081 -5.981,-1.549 -8.242,-3.687 -0.305,-0.289 -0.595,-0.708 -0.252,-1.06 0.447,-0.458 0.802,0.008 1.113,0.319 1.033,1.029 2.207,1.87 3.53,2.467 3.629,1.639 7.123,0.804 9.996,-2.366 0.91,-1.004 1.717,-2.09 2.411,-3.256 0.242,-0.406 0.513,-0.848 1.044,-0.524 0.512,0.312 0.145,0.717 -0.06,1.044 -2.002,3.198 -4.307,6.039 -8.268,6.88 -0.481,0.102 -0.976,0.141 -1.272,0.183 z"
           inkscape:connector-curvature="0"
           style="fill:#fdfdfc" />
        <path
           id="path4646"
           d="m 315.647,326.986 c 0.023,-1.051 0.657,-1.564 1.615,-1.636 0.937,-0.071 1.736,0.802 1.672,1.748 -0.068,1.004 -0.654,1.58 -1.64,1.646 -0.931,0.062 -1.667,-0.773 -1.647,-1.758 z"
           inkscape:connector-curvature="0"
           style="fill:#fcfdfa" />
        <path
           id="path4648"
           d="m 307.302,331.4 c -0.894,-0.106 -1.488,-0.653 -1.605,-1.625 -0.11,-0.917 0.707,-1.738 1.665,-1.752 0.909,-0.014 1.774,0.826 1.702,1.737 -0.079,0.997 -0.691,1.526 -1.762,1.64 z"
           inkscape:connector-curvature="0"
           style="fill:#fcfdfb" />
        <path
           id="path4650"
           d="m 314.235,269.196 c 0.257,-0.005 0.568,0.059 0.608,0.466 0.05,0.497 -0.363,0.591 -0.702,0.667 -1.892,0.424 -3.79,0.825 -5.686,1.233 -1.878,0.404 -1.885,0.407 -1.039,2.068 1.31,2.572 2.605,5.152 3.963,7.699 0.399,0.748 0.319,1.054 -0.518,1.299 -1.338,0.391 -2.639,0.91 -3.963,1.353 -0.368,0.123 -0.846,0.34 -1.034,-0.22 -0.177,-0.526 0.268,-0.691 0.661,-0.831 0.934,-0.332 1.852,-0.723 2.808,-0.971 0.811,-0.21 0.863,-0.502 0.492,-1.204 -1.473,-2.792 -2.863,-5.628 -4.343,-8.417 -0.442,-0.833 -0.496,-1.192 0.603,-1.395 2.481,-0.459 4.936,-1.058 7.402,-1.599 0.222,-0.048 0.444,-0.088 0.748,-0.148 z"
           inkscape:connector-curvature="0"
           style="fill:#fcfcfc" />
        <path
           id="path4652"
           d="m 314.351,274.475 c -0.066,0.89 -0.614,1.456 -1.613,1.519 -0.963,0.061 -1.731,-0.715 -1.695,-1.688 0.037,-1.02 0.625,-1.572 1.612,-1.644 0.956,-0.07 1.709,0.718 1.696,1.813 z"
           inkscape:connector-curvature="0"
           style="fill:#fbfbfa" />
        <path
           id="path4654"
           d="m 301.707,277.643 c -0.974,0.035 -1.784,-0.698 -1.759,-1.647 0.027,-1.008 0.614,-1.583 1.579,-1.702 0.944,-0.116 1.702,0.66 1.716,1.658 0.013,0.977 -0.605,1.658 -1.536,1.691 z"
           inkscape:connector-curvature="0"
           style="fill:#fcfbfa" />
        <path
           id="path4656"
           d="m 262.865,322.305 c -1.861,-0.126 -3.671,-0.433 -5.104,-1.794 -1.631,-1.55 -1.564,-3.603 0.145,-5.042 2.552,-2.149 7.572,-2.15 10.099,-0.002 1.686,1.433 1.757,3.544 0.134,5.058 -1.478,1.377 -3.334,1.69 -5.274,1.78 z"
           inkscape:connector-curvature="0"
           style="fill:#fcfdfc" />
        <path
           id="path4658"
           d="m 258.779,301.617 c 0.957,0.011 1.744,0.805 1.65,1.75 -0.098,0.982 -0.666,1.558 -1.683,1.578 -0.955,0.019 -1.7,-0.789 -1.654,-1.746 0.044,-0.9 0.782,-1.592 1.687,-1.582 z"
           inkscape:connector-curvature="0"
           style="fill:#fafcfa" />
        <path
           id="path4660"
           d="m 270.387,303.882 c 0.023,0.987 -0.696,1.737 -1.679,1.697 -1.006,-0.041 -1.581,-0.572 -1.614,-1.604 -0.032,-0.984 0.706,-1.743 1.658,-1.732 0.892,0.012 1.614,0.735 1.635,1.639 z"
           inkscape:connector-curvature="0"
           style="fill:#fafcfb" />
        <path
           id="path4662"
           d="m 326.661,300.457 c 0.274,-0.697 -0.095,-1.096 -0.701,-1.361 -0.625,-0.274 -1.226,-0.26 -1.785,0.178 -0.566,0.444 -0.284,0.941 -0.142,1.472 0.811,3.047 -0.879,5.862 -3.884,6.516 -2.717,0.591 -5.527,-1.339 -6.028,-4.143 -0.518,-2.895 1.492,-5.563 4.54,-5.975 1.264,-0.171 2.432,0.193 3.443,0.944 0.585,0.435 1.023,0.722 1.72,0.111 0.606,-0.532 1.529,-0.608 2.188,-0.232 1.02,0.582 1.432,0.106 2.048,-0.609 1.504,-1.746 4.013,-2.123 6.068,-1.05 1.956,1.021 3.085,3.359 2.646,5.479 -0.484,2.336 -2.413,4.039 -4.725,4.173 -2.237,0.129 -4.289,-1.232 -5.064,-3.353 -0.253,-0.689 -0.347,-1.399 -0.324,-2.15 z"
           inkscape:connector-curvature="0"
           style="fill:#fdfdfc" />
        <path
           id="path4664"
           d="m 298.315,305.387 c 0.091,-0.838 0.657,-1.415 1.63,-1.5 0.92,-0.081 1.686,0.762 1.67,1.728 -0.017,1.056 -0.645,1.567 -1.604,1.651 -0.935,0.08 -1.721,-0.771 -1.696,-1.879 z"
           inkscape:connector-curvature="0"
           style="fill:#f8fbfc" />
        <path
           id="path4666"
           d="m 290.235,308.207 c -1.209,0.024 -2.004,-0.709 -1.94,-1.662 0.066,-0.982 0.61,-1.576 1.628,-1.628 0.952,-0.048 1.766,0.732 1.708,1.679 -0.06,0.983 -0.589,1.569 -1.396,1.611 z"
           inkscape:connector-curvature="0"
           style="fill:#fbfcfc" />
        <path
           id="path4668"
           d="m 277.387,337.449 c -1.092,-0.036 -1.816,-0.819 -1.747,-1.79 0.074,-1.029 0.697,-1.535 1.682,-1.562 0.927,-0.025 1.772,0.875 1.643,1.765 -0.137,0.951 -0.704,1.527 -1.578,1.587 z"
           inkscape:connector-curvature="0"
           style="fill:#fdfafa" />
        <path
           id="path4670"
           d="m 286.694,335.717 c 1.125,0.145 1.682,0.727 1.611,1.822 -0.068,1.044 -0.705,1.522 -1.689,1.523 -0.958,0 -1.701,-0.848 -1.59,-1.794 0.117,-1.001 0.756,-1.475 1.668,-1.551 z"
           inkscape:connector-curvature="0"
           style="fill:#fdfbfa" />
        <path
           id="path4672"
           d="m 272.088,283.532 c -0.047,1.029 -0.593,1.622 -1.569,1.742 -0.881,0.108 -1.772,-0.767 -1.787,-1.663 -0.015,-0.893 0.84,-1.788 1.727,-1.714 0.98,0.081 1.547,0.653 1.629,1.635 z"
           inkscape:connector-curvature="0"
           style="fill:#fdfbfa" />
        <path
           id="path4674"
           d="m 280.235,281.963 c -1.126,-0.016 -1.793,-0.728 -1.739,-1.746 0.056,-1.039 0.679,-1.538 1.655,-1.583 0.942,-0.044 1.693,0.785 1.63,1.753 -0.066,1.026 -0.682,1.504 -1.546,1.576 z"
           inkscape:connector-curvature="0"
           style="fill:#fdfbfa" />
        <path
           id="path4676"
           d="m 263.077,314.942 c 1.511,0.064 3.001,0.36 4.219,1.413 1.265,1.094 1.242,2.34 -0.013,3.446 -2.096,1.846 -6.597,1.839 -8.69,-0.013 -1.22,-1.08 -1.233,-2.396 0.025,-3.451 1.267,-1.064 2.802,-1.363 4.459,-1.395 z"
           inkscape:connector-curvature="0"
           style="fill:#158d46" />
        <path
           id="path4678"
           d="m 323.144,302.161 c 0.017,2.237 -1.783,4.091 -3.986,4.105 -2.109,0.013 -3.979,-1.828 -4.013,-3.951 -0.034,-2.176 1.836,-4.102 4.003,-4.124 2.102,-0.021 3.979,1.844 3.996,3.97 z"
           inkscape:connector-curvature="0"
           style="fill:#ed912a" />
        <path
           id="path4680"
           d="m 331.821,296.81 c 2.094,0.025 3.943,1.906 3.951,4.018 0.007,2.153 -1.943,4.089 -4.072,4.041 -2.221,-0.05 -3.957,-1.901 -3.899,-4.158 0.057,-2.179 1.859,-3.927 4.02,-3.901 z"
           inkscape:connector-curvature="0"
           style="fill:#ed912a" />
        <g
           aria-label="Upracme svet"
           style="font-style:normal;font-variant:normal;font-weight:normal;font-stretch:normal;font-size:32px;line-height:24.99999809px;font-family:'Museo Slab';-inkscape-font-specification:'Museo Slab, Normal';font-variant-ligatures:normal;font-variant-caps:normal;font-variant-numeric:normal;font-feature-settings:normal;text-align:start;writing-mode:lr-tb;text-anchor:start;opacity:1;fill:#ffffff;fill-opacity:1;fill-rule:evenodd;stroke:none;stroke-width:3.77952766;stroke-linecap:round;stroke-linejoin:miter;stroke-miterlimit:4;stroke-dasharray:none;stroke-dashoffset:0;stroke-opacity:1"
           id="text4869-0">
          <path
             d="m 22.869125,311.7508 c 0,2.304 0.512,4.224 1.696,5.728 1.568,2.048 4.32,3.2 7.552,3.2 3.072,0 5.888,-1.056 7.552,-3.232 1.056,-1.44 1.664,-3.488 1.664,-5.696 v -11.008 h 2.72 v -3.168 h -9.632 v 3.168 h 2.72 v 10.976 c 0,1.28 -0.256,2.368 -0.768,3.232 -0.864,1.376 -2.336,2.048 -4.256,2.048 -1.92,0 -3.488,-0.736 -4.288,-2.016 -0.48,-0.8 -0.768,-1.952 -0.768,-3.232 v -11.008 h 2.752 v -3.168 h -9.664 v 3.168 h 2.72 z"
             style=""
             id="path4719" />
          <path
             d="m 45.495125,323.6548 v 3.04 h 8.8 v -3.04 h -2.368 v -3.872 c 0,-0.416 0,-0.768 -0.032,-1.024 l -0.064,-0.384 h 0.064 c 0.32,0.416 0.704,0.8 1.152,1.152 0.768,0.608 1.92,1.152 3.552,1.152 4.288,0 7.456,-3.36 7.456,-8.544 0,-5.056 -2.816,-8.544 -7.232,-8.544 -1.92,0 -3.2,0.64 -4.064,1.376 -0.48,0.416 -0.896,0.864 -1.184,1.376 h -0.064 c 0.032,-0.064 0.032,-0.128 0.032,-0.224 v -0.512 -0.096 c 0,-0.864 -0.512,-1.536 -2.016,-1.536 h -4.192 v 3.04 h 1.824 c 0.48,0 0.704,0.224 0.704,0.704 v 15.936 z m 6.304,-11.424 c 0,-3.584 1.952,-5.152 4.096,-5.152 2.432,0 4.064,2.016 4.064,5.12 0,3.232 -1.856,5.056 -4.096,5.056 -2.688,0 -4.064,-2.496 -4.064,-5.024 z"
             style=""
             id="path4721" />
          <path
             d="m 66.691625,320.2948 h 8.768 v -3.04 h -2.336 v -3.552 c 0,-3.072 1.472,-5.952 4.768,-5.952 0.288,0 0.48,0 0.704,0.032 0.096,0.032 0.192,0.032 0.288,0.032 v -4 c -0.064,0 -0.128,0 -0.224,-0.032 -0.128,-0.032 -0.288,-0.032 -0.512,-0.032 -2.528,0 -4.416,1.856 -5.184,4.192 h -0.064 c 0,-0.096 0,-0.192 0.032,-0.288 0.032,-0.224 0.032,-0.448 0.032,-0.736 v -0.96 c 0,-1.312 -0.736,-1.984 -2.176,-1.984 h -4.256 v 3.04 h 1.824 c 0.48,0 0.704,0.224 0.704,0.704 v 9.536 h -2.368 z"
             style=""
             id="path4723" />
          <path
             d="m 80.365625,315.7188 c 0,3.328 2.592,4.96 5.408,4.96 1.92,0 3.136,-0.768 4,-1.568 0.48,-0.48 0.864,-0.992 1.152,-1.568 h 0.064 c 0,0.064 0,0.128 -0.032,0.224 -0.032,0.16 -0.064,0.352 -0.064,0.608 v 0.192 c 0,0.928 0.576,1.728 2.08,1.728 h 3.84 v -3.04 h -1.472 c -0.48,0 -0.704,-0.224 -0.704,-0.704 v -6.528 c 0,-4.192 -2.336,-6.432 -6.72,-6.432 -1.952,0 -3.584,0.48 -4.704,0.992 -0.672,0.288 -1.248,0.64 -1.76,1.024 l 1.504,2.816 c 0.416,-0.288 0.896,-0.576 1.408,-0.8 0.864,-0.384 1.952,-0.768 3.2,-0.768 1.696,0 3.008,0.736 3.008,2.816 v 0.544 h -1.024 c -2.624,0 -9.184,0.512 -9.184,5.504 z m 4.096,-0.32 c 0,-2.464 3.84,-2.72 5.472,-2.72 h 0.672 v 0.544 c 0,2.048 -1.568,4.416 -3.776,4.416 -1.504,0 -2.368,-0.992 -2.368,-2.24 z"
             style=""
             id="path4725" />
          <path
             d="m 98.620125,312.1668 c 0,5.248 4.224005,8.512 8.992005,8.512 3.136,0 5.632,-1.472 6.752,-2.528 l -1.44,-2.88 c -0.896,0.704 -2.784,1.984 -5.088,1.984 -2.784,0 -5.12,-1.824 -5.12,-5.184 0,-2.976 1.824,-5.024 4.8,-5.024 1.376,0 3.04,0.48 3.04,1.6 v 1.088 h 3.52 v -2.24 c 0,-2.88 -3.968,-3.904 -6.688,-3.904 -5.024,0 -8.768005,3.712 -8.768005,8.576 z"
             style=""
             id="path4727" />
          <path
             d="m 116.87913,320.2948 h 8.768 v -3.04 h -2.336 v -3.968 c 0,-2.944 1.312,-5.984 4.192,-5.984 1.92,0 2.208,1.472 2.208,3.264 v 9.728 h 6.4 v -3.04 h -2.368 v -4.16 c 0,-3.008 1.376,-5.792 4.16,-5.792 1.92,0 2.24,1.408 2.24,3.264 v 9.728 h 6.432 v -3.04 h -2.368 v -7.456 c 0,-4.32 -1.92,-6.208 -5.248,-6.208 -2.592,0 -4.736,1.632 -5.664,3.552 h -0.064 c -0.64,-2.528 -2.24,-3.552 -4.544,-3.552 -2.656,0 -4.736,1.984 -5.568,3.648 h -0.064 c 0,-0.064 0,-0.128 0.032,-0.224 0.032,-0.128 0.032,-0.32 0.032,-0.48 v -0.736 c 0,-1.152 -0.704,-1.824 -2.144,-1.824 h -4.256 v 3.04 h 1.824 c 0.48,0 0.704,0.224 0.704,0.672 v 9.568 h -2.368 z"
             style=""
             id="path4729" />
          <path
             d="m 148.40213,312.1348 c 0,4.608 3.36,8.544 8.768,8.544 2.048,0 3.68,-0.544 4.832,-1.152 0.672,-0.352 1.28,-0.704 1.76,-1.12 l -1.568,-2.88 c -0.416,0.32 -0.864,0.608 -1.376,0.864 -0.864,0.48 -1.984,0.864 -3.36,0.864 -2.464,0 -4.64,-1.568 -4.896,-4.544 h 11.296 l 0.064,-0.512 c 0.032,-0.288 0.032,-0.64 0.032,-0.864 0,-4.32 -2.56,-7.744 -7.264,-7.744 -4.896,0 -8.288,3.52 -8.288,8.544 z m 4.256,-1.824 c 0.384,-2.176 1.856,-3.584 3.936,-3.584 1.76,0 3.072,1.312 3.168,3.584 z"
             style=""
             id="path4731" />
          <path
             d="m 174.27713,316.7428 c 0,2.656 3.68,3.936 6.624,3.936 3.744,0 6.88,-1.632 6.88,-4.96 0,-3.2 -2.944,-4.256 -5.44,-5.024 -1.824,-0.512 -3.424,-1.088 -3.424,-2.432 0,-1.024 1.088,-1.472 2.368,-1.472 1.44,0 2.4,0.48 2.4,1.344 v 0.928 h 3.488 v -2.08 c 0,-2.464 -3.52,-3.392 -5.888,-3.392 -2.944,0 -6.432,1.216 -6.432,4.672 0,3.136 2.784,4.192 5.152,5.056 2.176,0.768 3.712,1.184 3.712,2.528 0,1.12 -1.152,1.664 -2.784,1.664 -1.696,0 -3.2,-0.576 -3.2,-1.696 v -0.96 h -3.456 z"
             style=""
             id="path4733" />
          <path
             d="m 189.22713,307.0148 h 1.984 l 4.96,13.28 h 4.672 l 4.992,-13.28 h 1.952 v -3.04 h -7.84 v 3.04 h 1.856 l -2.848,8.064 c -0.128,0.416 -0.192,0.864 -0.288,1.216 l -0.096,0.576 h -0.096 l -0.096,-0.576 c -0.096,-0.352 -0.16,-0.8 -0.32,-1.216 l -2.816,-8.064 h 1.824 v -3.04 h -7.84 z"
             style=""
             id="path4735" />
          <path
             d="m 209.21463,312.1348 c 0,4.608 3.36,8.544 8.768,8.544 2.048,0 3.68,-0.544 4.832,-1.152 0.672,-0.352 1.28,-0.704 1.76,-1.12 l -1.568,-2.88 c -0.416,0.32 -0.864,0.608 -1.376,0.864 -0.864,0.48 -1.984,0.864 -3.36,0.864 -2.464,0 -4.64,-1.568 -4.896,-4.544 h 11.296 l 0.064,-0.512 c 0.032,-0.288 0.032,-0.64 0.032,-0.864 0,-4.32 -2.56,-7.744 -7.264,-7.744 -4.896,0 -8.288,3.52 -8.288,8.544 z m 4.256,-1.824 c 0.384,-2.176 1.856,-3.584 3.936,-3.584 1.76,0 3.072,1.312 3.168,3.584 z"
             style=""
             id="path4737" />
          <path
             d="m 229.10563,314.3108 c 0,5.472 4.512,6.144 6.816,6.144 0.384,0 0.672,0 0.896,-0.032 l 0.352,-0.064 v -3.328 h -0.192 c -0.128,0 -0.32,0.032 -0.544,0.032 -1.152,0 -3.264,-0.352 -3.264,-3.168 v -6.88 h 3.712 v -3.04 h -3.712 v -4.448 h -3.936 v 4.448 h -2.624 v 3.04 h 2.496 z"
             style=""
             id="path4739" />
        </g>
        <g
           aria-label="Upracme Slovensko"
           style="font-style:normal;font-variant:normal;font-weight:normal;font-stretch:normal;font-size:32px;line-height:24.99999809px;font-family:'Museo Slab';-inkscape-font-specification:'Museo Slab, Normal';font-variant-ligatures:normal;font-variant-caps:normal;font-variant-numeric:normal;font-feature-settings:normal;text-align:start;writing-mode:lr-tb;text-anchor:start;opacity:1;fill:#ffffff;fill-opacity:1;fill-rule:evenodd;stroke:none;stroke-width:3.77952766;stroke-linecap:round;stroke-linejoin:miter;stroke-miterlimit:4;stroke-dasharray:none;stroke-dashoffset:0;stroke-opacity:1"
           id="text4873-6">
          <path
             d="m 350.86914,311.7508 c 0,2.304 0.512,4.224 1.696,5.728 1.568,2.048 4.32,3.2 7.552,3.2 3.072,0 5.888,-1.056 7.552,-3.232 1.056,-1.44 1.664,-3.488 1.664,-5.696 v -11.008 h 2.72 v -3.168 h -9.632 v 3.168 h 2.72 v 10.976 c 0,1.28 -0.256,2.368 -0.768,3.232 -0.864,1.376 -2.336,2.048 -4.256,2.048 -1.92,0 -3.488,-0.736 -4.288,-2.016 -0.48,-0.8 -0.768,-1.952 -0.768,-3.232 v -11.008 h 2.752 v -3.168 h -9.664 v 3.168 h 2.72 z"
             style=""
             id="path4653" />
          <path
             d="m 373.49514,323.6548 v 3.04 h 8.8 v -3.04 h -2.368 v -3.872 c 0,-0.416 0,-0.768 -0.032,-1.024 l -0.064,-0.384 h 0.064 c 0.32,0.416 0.704,0.8 1.152,1.152 0.768,0.608 1.92,1.152 3.552,1.152 4.288,0 7.456,-3.36 7.456,-8.544 0,-5.056 -2.816,-8.544 -7.232,-8.544 -1.92,0 -3.2,0.64 -4.064,1.376 -0.48,0.416 -0.896,0.864 -1.184,1.376 h -0.064 c 0.032,-0.064 0.032,-0.128 0.032,-0.224 v -0.512 -0.096 c 0,-0.864 -0.512,-1.536 -2.016,-1.536 h -4.192 v 3.04 h 1.824 c 0.48,0 0.704,0.224 0.704,0.704 v 15.936 z m 6.304,-11.424 c 0,-3.584 1.952,-5.152 4.096,-5.152 2.432,0 4.064,2.016 4.064,5.12 0,3.232 -1.856,5.056 -4.096,5.056 -2.688,0 -4.064,-2.496 -4.064,-5.024 z"
             style=""
             id="path4655" />
          <path
             d="m 394.69164,320.2948 h 8.768 v -3.04 h -2.336 v -3.552 c 0,-3.072 1.472,-5.952 4.768,-5.952 0.288,0 0.48,0 0.704,0.032 0.096,0.032 0.192,0.032 0.288,0.032 v -4 c -0.064,0 -0.128,0 -0.224,-0.032 -0.128,-0.032 -0.288,-0.032 -0.512,-0.032 -2.528,0 -4.416,1.856 -5.184,4.192 h -0.064 c 0,-0.096 0,-0.192 0.032,-0.288 0.032,-0.224 0.032,-0.448 0.032,-0.736 v -0.96 c 0,-1.312 -0.736,-1.984 -2.176,-1.984 h -4.256 v 3.04 h 1.824 c 0.48,0 0.704,0.224 0.704,0.704 v 9.536 h -2.368 z"
             style=""
             id="path4657" />
          <path
             d="m 408.36564,315.7188 c 0,3.328 2.592,4.96 5.408,4.96 1.92,0 3.136,-0.768 4,-1.568 0.48,-0.48 0.864,-0.992 1.152,-1.568 h 0.064 c 0,0.064 0,0.128 -0.032,0.224 -0.032,0.16 -0.064,0.352 -0.064,0.608 v 0.192 c 0,0.928 0.576,1.728 2.08,1.728 h 3.84 v -3.04 h -1.472 c -0.48,0 -0.704,-0.224 -0.704,-0.704 v -6.528 c 0,-4.192 -2.336,-6.432 -6.72,-6.432 -1.952,0 -3.584,0.48 -4.704,0.992 -0.672,0.288 -1.248,0.64 -1.76,1.024 l 1.504,2.816 c 0.416,-0.288 0.896,-0.576 1.408,-0.8 0.864,-0.384 1.952,-0.768 3.2,-0.768 1.696,0 3.008,0.736 3.008,2.816 v 0.544 h -1.024 c -2.624,0 -9.184,0.512 -9.184,5.504 z m 4.096,-0.32 c 0,-2.464 3.84,-2.72 5.472,-2.72 h 0.672 v 0.544 c 0,2.048 -1.568,4.416 -3.776,4.416 -1.504,0 -2.368,-0.992 -2.368,-2.24 z"
             style=""
             id="path4659" />
          <path
             d="m 426.62014,312.1668 c 0,5.248 4.224,8.512 8.992,8.512 3.136,0 5.632,-1.472 6.752,-2.528 l -1.44,-2.88 c -0.896,0.704 -2.784,1.984 -5.088,1.984 -2.784,0 -5.12,-1.824 -5.12,-5.184 0,-2.976 1.824,-5.024 4.8,-5.024 1.376,0 3.04,0.48 3.04,1.6 v 1.088 h 3.52 v -2.24 c 0,-2.88 -3.968,-3.904 -6.688,-3.904 -5.024,0 -8.768,3.712 -8.768,8.576 z"
             style=""
             id="path4661" />
          <path
             d="m 444.87914,320.2948 h 8.768 v -3.04 h -2.336 v -3.968 c 0,-2.944 1.312,-5.984 4.192,-5.984 1.92,0 2.208,1.472 2.208,3.264 v 9.728 h 6.4 v -3.04 h -2.368 v -4.16 c 0,-3.008 1.376,-5.792 4.16,-5.792 1.92,0 2.24,1.408 2.24,3.264 v 9.728 h 6.432 v -3.04 h -2.368 v -7.456 c 0,-4.32 -1.92,-6.208 -5.248,-6.208 -2.592,0 -4.736,1.632 -5.664,3.552 h -0.064 c -0.64,-2.528 -2.24,-3.552 -4.544,-3.552 -2.656,0 -4.736,1.984 -5.568,3.648 h -0.064 c 0,-0.064 0,-0.128 0.032,-0.224 0.032,-0.128 0.032,-0.32 0.032,-0.48 v -0.736 c 0,-1.152 -0.704,-1.824 -2.144,-1.824 h -4.256 v 3.04 h 1.824 c 0.48,0 0.704,0.224 0.704,0.672 v 9.568 h -2.368 z"
             style=""
             id="path4663" />
          <path
             d="m 476.40214,312.1348 c 0,4.608 3.36,8.544 8.768,8.544 2.048,0 3.68,-0.544 4.832,-1.152 0.672,-0.352 1.28,-0.704 1.76,-1.12 l -1.568,-2.88 c -0.416,0.32 -0.864,0.608 -1.376,0.864 -0.864,0.48 -1.984,0.864 -3.36,0.864 -2.464,0 -4.64,-1.568 -4.896,-4.544 h 11.296 l 0.064,-0.512 c 0.032,-0.288 0.032,-0.64 0.032,-0.864 0,-4.32 -2.56,-7.744 -7.264,-7.744 -4.896,0 -8.288,3.52 -8.288,8.544 z m 4.256,-1.824 c 0.384,-2.176 1.856,-3.584 3.936,-3.584 1.76,0 3.072,1.312 3.168,3.584 z"
             style=""
             id="path4665" />
          <path
             d="m 502.69314,312.9668 v 2.592 c 0,3.424 4.032,5.12 7.808,5.12 4.288,0 8.192,-2.144 8.192,-6.784 0,-4.224 -3.36,-5.632 -6.784,-6.816 -2.336,-0.928 -4.48,-1.6 -4.48,-3.712 0,-1.728 1.536,-2.496 3.392,-2.496 1.696,0 3.392,0.608 3.392,1.76 v 1.536 h 3.808 v -2.976 c 0,-2.656 -3.616,-4 -7.2,-4 -3.936,0 -7.616,1.76 -7.616,6.336 0,4.096 2.976,5.408 6.016,6.592 2.624,1.024 5.216,1.792 5.216,4.064 0,1.824 -1.632,2.816 -3.936,2.816 -2.144,0 -4,-0.896 -4,-2.336 v -1.696 z"
             style=""
             id="path4667" />
          <path
             d="m 522.61964,315.1108 c 0,4.448 2.4,5.312 4.992,5.312 0.416,0 0.768,0 1.024,-0.032 l 0.448,-0.064 v -3.264 h -0.224 c -0.128,0 -0.32,0.032 -0.544,0.032 -1.376,0 -1.664,-0.736 -1.664,-2.24 v -17.28 h -6.56 v 3.04 h 2.528 z"
             style=""
             id="path4669" />
          <path
             d="m 531.18264,312.1348 c 0,5.024 4,8.544 8.992,8.544 4.96,0 8.96,-3.52 8.96,-8.544 0,-4.992 -4,-8.544 -8.992,-8.544 -4.96,0 -8.96,3.552 -8.96,8.544 z m 4.128,0 c 0,-3.008 2.208,-5.088 4.864,-5.088 2.656,0 4.832,2.08 4.832,5.088 0,3.04 -2.176,5.088 -4.832,5.088 -2.656,0 -4.864,-2.048 -4.864,-5.088 z"
             style=""
             id="path4671" />
          <path
             d="m 550.41464,307.0148 h 1.984 l 4.96,13.28 h 4.672 l 4.992,-13.28 h 1.952 v -3.04 h -7.84 v 3.04 h 1.856 l -2.848,8.064 c -0.128,0.416 -0.192,0.864 -0.288,1.216 l -0.096,0.576 h -0.096 l -0.096,-0.576 c -0.096,-0.352 -0.16,-0.8 -0.32,-1.216 l -2.816,-8.064 h 1.824 v -3.04 h -7.84 z"
             style=""
             id="path4673" />
          <path
             d="m 570.40214,312.1348 c 0,4.608 3.36,8.544 8.768,8.544 2.048,0 3.68,-0.544 4.832,-1.152 0.672,-0.352 1.28,-0.704 1.76,-1.12 l -1.568,-2.88 c -0.416,0.32 -0.864,0.608 -1.376,0.864 -0.864,0.48 -1.984,0.864 -3.36,0.864 -2.464,0 -4.64,-1.568 -4.896,-4.544 h 11.296 l 0.064,-0.512 c 0.032,-0.288 0.032,-0.64 0.032,-0.864 0,-4.32 -2.56,-7.744 -7.264,-7.744 -4.896,0 -8.288,3.52 -8.288,8.544 z m 4.256,-1.824 c 0.384,-2.176 1.856,-3.584 3.936,-3.584 1.76,0 3.072,1.312 3.168,3.584 z"
             style=""
             id="path4675" />
          <path
             d="m 588.62914,320.2948 h 8.768 v -3.04 h -2.336 v -4.288 c 0,-2.848 1.728,-5.664 4.672,-5.664 2.048,0 2.592,1.312 2.592,3.328 v 9.664 h 6.4 v -3.04 h -2.368 v -7.456 c 0,-4.352 -1.984,-6.208 -5.472,-6.208 -4.064,0 -5.856,3.136 -6.016,3.648 h -0.064 c 0,-0.064 0,-0.128 0.032,-0.224 0.032,-0.128 0.032,-0.32 0.032,-0.48 v -0.736 c 0,-1.152 -0.672,-1.824 -2.112,-1.824 h -4.288 v 3.04 h 1.824 c 0.48,0 0.704,0.224 0.704,0.704 v 9.536 h -2.368 z"
             style=""
             id="path4677" />
          <path
             d="m 610.58964,316.7428 c 0,2.656 3.68,3.936 6.624,3.936 3.744,0 6.88,-1.632 6.88,-4.96 0,-3.2 -2.944,-4.256 -5.44,-5.024 -1.824,-0.512 -3.424,-1.088 -3.424,-2.432 0,-1.024 1.088,-1.472 2.368,-1.472 1.44,0 2.4,0.48 2.4,1.344 v 0.928 h 3.488 v -2.08 c 0,-2.464 -3.52,-3.392 -5.888,-3.392 -2.944,0 -6.432,1.216 -6.432,4.672 0,3.136 2.784,4.192 5.152,5.056 2.176,0.768 3.712,1.184 3.712,2.528 0,1.12 -1.152,1.664 -2.784,1.664 -1.696,0 -3.2,-0.576 -3.2,-1.696 v -0.96 h -3.456 z"
             style=""
             id="path4679" />
          <path
             d="m 626.14764,320.2948 h 8.192 v -3.04 h -1.76 v -4.128 h 0.96 c 0.608,0 1.056,0 1.408,0.608 l 2.944,5.152 c 0.64,1.184 1.184,1.408 2.56,1.408 h 3.04 v -3.04 h -0.928 c -0.768,0 -1.056,-0.096 -1.344,-0.576 l -2.304,-4.032 c -0.64,-1.12 -1.216,-1.376 -1.248,-1.376 v -0.064 l 3.552,-4.192 h 2.112 v -3.04 h -7.84 v 3.04 h 1.888 l -2.656,3.136 h -2.144 v -12.576 h -6.592 v 3.04 h 2.528 v 16.64 h -2.368 z"
             style=""
             id="path4681" />
          <path
             d="m 645.74514,312.1348 c 0,5.024 4,8.544 8.992,8.544 4.96,0 8.96,-3.52 8.96,-8.544 0,-4.992 -4,-8.544 -8.992,-8.544 -4.96,0 -8.96,3.552 -8.96,8.544 z m 4.128,0 c 0,-3.008 2.208,-5.088 4.864,-5.088 2.656,0 4.832,2.08 4.832,5.088 0,3.04 -2.176,5.088 -4.832,5.088 -2.656,0 -4.864,-2.048 -4.864,-5.088 z"
             style=""
             id="path4683" />
        </g>
      </g>
    </g>
  </g>
</svg>
