<?xml version="1.0" encoding="utf-8"?>
<!-- Generator: Adobe Illustrator 17.0.0, SVG Export Plug-In . SVG Version: 6.00 Build 0)  -->
<!DOCTYPE svg PUBLIC "-//W3C//DTD SVG 1.1//EN" "http://www.w3.org/Graphics/SVG/1.1/DTD/svg11.dtd">
<svg version="1.1" xmlns="http://www.w3.org/2000/svg" xmlns:xlink="http://www.w3.org/1999/xlink" x="0px" y="0px" width="612px"
	 height="792px" viewBox="0 0 612 792" enable-background="new 0 0 612 792" xml:space="preserve">
<g id="Layer_2">
</g>
<g id="Layer_1">
	<g>
		<circle fill="#FFFFFF" cx="275.635" cy="94.201" r="17.065"/>
		<circle fill="#FFFFFF" cx="306.318" cy="90.831" r="17.065"/>
		<circle fill="#FFFFFF" cx="324.507" cy="116.062" r="17.065"/>
		<circle fill="#FFFFFF" cx="312.362" cy="144.545" r="17.065"/>
		<circle fill="#FFFFFF" cx="281.82" cy="148.959" r="17.065"/>
		<circle fill="#FFFFFF" cx="263.761" cy="123.804" r="17.065"/>
		<ellipse fill="#FFFFFF" cx="294.25" cy="118.903" rx="21.376" ry="22.129"/>
	</g>
	<path fill="#A9BD5B" d="M297.965,144.508c0.154-8.322,6.736-14.71,14.972-14.633c7.987,0.074,14.891,6.935,14.496,15.664
		c-0.346,7.67-7.066,14.103-14.981,13.968C304.313,159.369,297.815,152.642,297.965,144.508z"/>
	<path fill="#885D40" d="M306.257,105.757c-8.176-0.012-14.703-6.65-14.69-14.938c0.014-8.168,6.657-14.672,14.967-14.653
		c7.999,0.019,14.585,6.701,14.581,14.795C321.112,99.163,314.479,105.769,306.257,105.757z"/>
	<path fill="#158C46" d="M278.527,124.007c-0.023,8.235-6.595,14.752-14.871,14.744c-8.186-0.007-14.649-6.63-14.614-14.974
		c0.034-8.081,6.662-14.673,14.705-14.625C272.02,109.201,278.55,115.764,278.527,124.007z"/>
	<path fill="#ED902A" d="M339.305,116.216c0.001,8.269-6.536,14.796-14.813,14.79c-8.088-0.006-14.821-6.77-14.736-14.803
		c0.087-8.256,6.675-14.802,14.882-14.79C332.785,101.425,339.304,108.006,339.305,116.216z"/>
	<path fill="#106DB1" d="M292.993,109.545c0.966,1.517,1.95,2.876,2.73,4.344c0.648,1.219,1.211,1.144,2.01,0.226
		c0.264-0.303,0.612-0.533,0.921-0.797c1.6-1.366,1.6-1.366,2.509,0.457c1.189,2.384,1.189,2.384,3.475,1.002
		c0.347-0.21,0.699-0.413,1.049-0.619c1.595-0.938,1.595-0.938,2.28,0.726c2.327,5.66,0.83,12.399-3.674,16.528
		c-4.605,4.223-11.408,5.115-16.878,2.213c-5.461-2.897-8.606-8.976-7.782-15.041c0.217-1.602,0.217-1.602,1.646-0.908
		c2.317,1.126,2.484,1.186,3.363-1.246c0.878-2.429,2.151-3.807,4.894-3.198c1.219,0.271,1.913-0.301,2.319-1.446
		C292.122,111.039,292.573,110.356,292.993,109.545z"/>
	<path fill="#E0292B" d="M281.873,163.897c-8.154,0.035-14.865-6.638-14.799-14.677c0.007-0.816,0.092-1.224,1.08-1.098
		c1.578,0.201,2.66-0.553,3.325-2.003c0.658-1.434,1.279-2.894,2.213-4.183c1.516-2.092,3.011-2.517,5.41-1.555
		c1.443,0.578,2.787,1.378,3.883,2.439c2.803,2.717,6.209,2.815,9.747,2.487c0.626-0.058,1.275-0.146,1.853-0.374
		c1.017-0.4,1.411-0.236,1.672,0.944C298.294,155.07,291.314,163.858,281.873,163.897z"/>
	<path fill="#E45B2C" d="M263.232,94.318c6.003-0.047,11.446-1.935,15.688-6.625c0.679-0.75,1.058-0.714,1.663-0.02
		c0.442,0.507,0.996,0.917,1.501,1.369c1.941,1.737,4.181,2.253,6.677,1.563c0.79-0.219,1.18-0.126,1.372,0.779
		c1.966,9.275-5.407,18.135-14.895,17.861c-7.522-0.218-13.761-6.167-14.34-13.672C260.795,94.241,260.795,94.241,263.232,94.318z"
		/>
	<path fill="#E45B2C" d="M286.653,89.778c-1.44,0.124-2.636-0.585-3.735-1.497c-0.765-0.634-1.532-1.278-2.211-1.999
		c-0.808-0.859-1.318-0.83-2.13,0.116c-4.342,5.062-9.968,7.084-16.541,6.744c-0.755-0.039-1.093-0.168-0.973-1.098
		c0.788-6.14,6.218-11.506,12.56-12.319c6.602-0.846,13.253,2.897,15.552,8.71c0.281,0.711,0.151,0.95-0.573,1.105
		C287.977,89.675,287.363,89.784,286.653,89.778z"/>
	<path fill="#E0292B" d="M289.882,144.323c-2.012,0.156-4.06-0.51-5.866-2.122c-1.343-1.198-2.86-2.205-4.571-2.867
		c-2.91-1.126-4.911-0.525-6.704,2.035c-0.886,1.264-1.487,2.68-2.171,4.052c-0.218,0.438-0.468,0.899-0.819,1.222
		c-0.626,0.575-1.511,0.613-2.175,0.29c-0.649-0.316-0.171-1.053-0.032-1.576c1.604-6.071,6.559-10.32,12.832-11.031
		c5.808-0.658,11.692,2.523,14.496,7.838c0.719,1.362,0.671,1.485-0.867,1.816C292.765,144.249,291.507,144.379,289.882,144.323z"/>
	<path fill="#106DB1" d="M292.859,107.26c-0.746,1.48-1.418,2.739-2.017,4.032c-0.287,0.618-0.675,0.987-1.348,0.821
		c-3.451-0.855-4.938,1.131-5.907,3.976c-0.134,0.392-0.228,1.204-0.841,1.02c-0.841-0.252-1.608-0.773-2.363-1.249
		c-0.081-0.051,0.096-0.586,0.216-0.869c2.224-5.257,6.18-8.424,11.809-9.156c5.52-0.718,10.079,1.303,13.616,5.629
		c0.574,0.702,0.383,0.986-0.317,1.41c-2.898,1.756-2.884,1.78-4.39-1.244c-0.716-1.438-0.697-1.414-1.953-0.414
		c-0.867,0.69-1.693,2.143-2.56,1.916c-0.811-0.213-1.29-1.717-1.902-2.662C294.25,109.463,293.613,108.446,292.859,107.26z"/>
	<path fill="#FDFDFC" d="M313.927,155.189c-3.41-0.081-5.981-1.549-8.242-3.687c-0.305-0.289-0.595-0.708-0.252-1.06
		c0.447-0.458,0.802,0.008,1.113,0.319c1.033,1.029,2.207,1.87,3.53,2.467c3.629,1.639,7.123,0.804,9.996-2.366
		c0.91-1.004,1.717-2.09,2.411-3.256c0.242-0.406,0.513-0.848,1.044-0.524c0.512,0.312,0.145,0.717-0.06,1.044
		c-2.002,3.198-4.307,6.039-8.268,6.88C314.718,155.108,314.223,155.147,313.927,155.189z"/>
	<path fill="#FCFDFA" d="M315.647,140.319c0.023-1.051,0.657-1.564,1.615-1.636c0.937-0.071,1.736,0.802,1.672,1.748
		c-0.068,1.004-0.654,1.58-1.64,1.646C316.363,142.139,315.627,141.305,315.647,140.319z"/>
	<path fill="#FCFDFB" d="M307.302,144.733c-0.894-0.106-1.488-0.653-1.605-1.625c-0.11-0.917,0.707-1.738,1.665-1.752
		c0.909-0.014,1.774,0.826,1.702,1.737C308.985,144.09,308.373,144.619,307.302,144.733z"/>
	<path fill="#FCFCFC" d="M314.235,82.529c0.257-0.005,0.568,0.059,0.608,0.466c0.05,0.497-0.363,0.591-0.702,0.667
		c-1.892,0.424-3.79,0.825-5.686,1.233c-1.878,0.404-1.885,0.407-1.039,2.068c1.31,2.572,2.605,5.152,3.963,7.699
		c0.399,0.748,0.319,1.054-0.518,1.299c-1.338,0.391-2.639,0.91-3.963,1.353c-0.368,0.123-0.846,0.34-1.034-0.22
		c-0.177-0.526,0.268-0.691,0.661-0.831c0.934-0.332,1.852-0.723,2.808-0.971c0.811-0.21,0.863-0.502,0.492-1.204
		c-1.473-2.792-2.863-5.628-4.342-8.417c-0.442-0.833-0.496-1.192,0.603-1.395c2.481-0.459,4.936-1.058,7.402-1.599
		C313.709,82.629,313.931,82.589,314.235,82.529z"/>
	<path fill="#FBFBFA" d="M314.351,87.808c-0.066,0.89-0.614,1.456-1.613,1.519c-0.963,0.061-1.731-0.715-1.695-1.688
		c0.037-1.02,0.625-1.572,1.612-1.644C313.611,85.925,314.364,86.714,314.351,87.808z"/>
	<path fill="#FCFBFA" d="M301.707,90.977c-0.974,0.035-1.784-0.698-1.759-1.647c0.027-1.008,0.614-1.583,1.579-1.702
		c0.944-0.116,1.702,0.66,1.716,1.658C303.256,90.262,302.638,90.943,301.707,90.977z"/>
	<path fill="#FCFDFC" d="M262.865,135.638c-1.861-0.126-3.671-0.433-5.103-1.794c-1.631-1.55-1.564-3.603,0.145-5.042
		c2.552-2.149,7.572-2.15,10.099-0.002c1.686,1.433,1.757,3.544,0.134,5.058C266.661,135.236,264.805,135.548,262.865,135.638z"/>
	<path fill="#FAFCFA" d="M258.779,114.951c0.957,0.011,1.744,0.805,1.65,1.75c-0.098,0.982-0.666,1.558-1.683,1.578
		c-0.955,0.019-1.7-0.789-1.654-1.746C257.136,115.633,257.874,114.94,258.779,114.951z"/>
	<path fill="#FAFCFB" d="M270.387,117.216c0.023,0.987-0.696,1.737-1.679,1.697c-1.006-0.041-1.581-0.572-1.614-1.604
		c-0.032-0.984,0.706-1.743,1.658-1.732C269.644,115.588,270.366,116.311,270.387,117.216z"/>
	<path fill="#FDFDFC" d="M326.66,113.79c0.274-0.697-0.095-1.096-0.701-1.361c-0.625-0.274-1.226-0.26-1.785,0.178
		c-0.566,0.444-0.284,0.941-0.142,1.472c0.811,3.047-0.879,5.862-3.884,6.516c-2.717,0.591-5.527-1.339-6.028-4.143
		c-0.518-2.895,1.492-5.563,4.54-5.975c1.264-0.171,2.432,0.193,3.443,0.944c0.585,0.435,1.023,0.722,1.72,0.111
		c0.606-0.532,1.529-0.608,2.188-0.232c1.02,0.582,1.432,0.106,2.048-0.609c1.504-1.746,4.013-2.123,6.068-1.05
		c1.956,1.021,3.085,3.359,2.646,5.479c-0.484,2.336-2.413,4.039-4.725,4.173c-2.237,0.129-4.289-1.232-5.063-3.353
		C326.732,115.251,326.638,114.541,326.66,113.79z"/>
	<path fill="#F8FBFC" d="M298.315,118.72c0.091-0.838,0.657-1.415,1.63-1.5c0.92-0.081,1.686,0.762,1.67,1.728
		c-0.017,1.056-0.645,1.567-1.604,1.651C299.075,120.68,298.29,119.828,298.315,118.72z"/>
	<path fill="#FBFCFC" d="M290.235,121.54c-1.209,0.024-2.004-0.709-1.94-1.662c0.066-0.982,0.61-1.576,1.628-1.628
		c0.952-0.048,1.766,0.732,1.708,1.679C291.571,120.912,291.042,121.499,290.235,121.54z"/>
	<path fill="#FDFAFA" d="M277.387,150.782c-1.092-0.036-1.816-0.819-1.747-1.79c0.074-1.029,0.697-1.535,1.682-1.562
		c0.927-0.025,1.772,0.875,1.643,1.765C278.828,150.146,278.261,150.722,277.387,150.782z"/>
	<path fill="#FDFBFA" d="M286.694,149.05c1.125,0.145,1.682,0.727,1.611,1.822c-0.068,1.044-0.705,1.522-1.689,1.523
		c-0.958,0-1.701-0.848-1.59-1.794C285.143,149.601,285.782,149.127,286.694,149.05z"/>
	<path fill="#FDFBFA" d="M272.088,96.865c-0.047,1.029-0.593,1.623-1.569,1.742c-0.881,0.108-1.772-0.767-1.787-1.663
		c-0.015-0.892,0.84-1.788,1.727-1.714C271.439,95.312,272.006,95.883,272.088,96.865z"/>
	<path fill="#FDFBFA" d="M280.235,95.296c-1.126-0.016-1.793-0.728-1.739-1.746c0.056-1.039,0.679-1.538,1.655-1.583
		c0.942-0.044,1.693,0.785,1.63,1.753C281.715,94.746,281.098,95.224,280.235,95.296z"/>
	<path fill="#158D46" d="M263.077,128.275c1.511,0.064,3.001,0.36,4.219,1.413c1.265,1.094,1.242,2.34-0.013,3.446
		c-2.096,1.846-6.597,1.839-8.69-0.013c-1.22-1.08-1.233-2.396,0.025-3.451C259.885,128.606,261.42,128.308,263.077,128.275z"/>
	<path fill="#ED912A" d="M323.144,115.494c0.017,2.237-1.783,4.091-3.986,4.105c-2.109,0.013-3.979-1.828-4.013-3.951
		c-0.034-2.176,1.836-4.102,4.003-4.124C321.25,111.503,323.127,113.368,323.144,115.494z"/>
	<path fill="#ED912A" d="M331.821,110.143c2.094,0.025,3.943,1.906,3.951,4.018c0.007,2.153-1.943,4.089-4.072,4.041
		c-2.221-0.05-3.957-1.901-3.899-4.158C327.858,111.865,329.66,110.117,331.821,110.143z"/>
	<g>
		<path d="M28.31,114.845h-2.789v-3.248h9.907v3.248h-2.821v11.286c0,1.345,0.263,2.428,0.788,3.313
			c0.853,1.378,2.329,2.067,4.396,2.067c2.034,0,3.478-0.689,4.363-2.1c0.525-0.886,0.787-1.969,0.787-3.313v-11.253h-2.789v-3.248
			h9.875v3.248h-2.789v11.286c0,2.329-0.558,4.297-1.706,5.839c-1.673,2.198-4.56,3.313-7.742,3.313
			c-3.313,0-6.135-1.214-7.742-3.28c-1.148-1.444-1.739-3.412-1.739-5.873V114.845z"/>
		<path d="M51.997,134.89v-3.117h2.428v-17.059h-2.592v-3.117h6.758v12.893h2.198l2.723-3.215h-1.936v-3.117h8.038v3.117h-2.165
			l-3.642,4.298v0.065c0.033,0,0.623,0.295,1.279,1.411l2.362,4.134c0.229,0.394,0.689,0.59,1.378,0.59h0.951v3.117h-3.117
			c-1.443,0-1.968-0.263-2.625-1.443l-3.018-5.282c-0.229-0.427-0.722-0.624-1.443-0.624h-0.984v4.232h1.804v3.117H51.997z"/>
		<path d="M73.421,114.714h-2.592v-3.117h6.726v17.715c0,1.607,0.394,2.296,1.706,2.296l0.788-0.033v3.346
			c-0.459,0.066-0.951,0.099-1.509,0.099c-1.542,0-2.789-0.394-3.74-1.148c-0.918-0.787-1.378-2.231-1.378-4.297V114.714z"/>
		<path d="M82.575,134.89v-3.117h2.427v-10.498h-2.591v-3.117h6.758v13.615h2.395v3.117H82.575z M84.969,115.305v-3.707h4.199v3.707
			H84.969z"/>
		<path d="M95.829,120.16c1.411-1.607,3.28-2.395,5.544-2.395c2.822,0,4.265,1.509,4.691,2.1l0.131,0.263h0.065
			c-0.033-0.328-0.065-0.722-0.065-1.181v-4.232h-2.592v-3.117h6.726v19.454c0,0.492,0.229,0.722,0.722,0.722h1.509v3.117h-3.937
			c-1.443,0-2.132-0.722-2.132-1.771v-0.197l0.098-0.755h-0.065c-0.099,0.164-0.131,0.394-0.754,1.083
			c-0.722,0.886-2.198,2.034-4.724,2.034c-2.198,0-3.97-0.82-5.315-2.428c-1.345-1.607-2.001-3.74-2.001-6.332
			C93.729,123.867,94.418,121.768,95.829,120.16z M102.062,131.773c2.395,0,4.232-1.771,4.232-5.15c0-1.477-0.361-2.723-1.083-3.74
			c-0.689-1.017-1.706-1.542-3.018-1.542c-2.46,0-4.265,2.001-4.265,5.183C97.929,129.674,99.602,131.773,102.062,131.773z
			 M115.972,111.598c0.164,0.492,0.262,1.083,0.262,1.706c0,1.936-1.214,3.477-3.051,4.232l-1.607-1.378
			c0.886-0.754,1.312-1.64,1.312-2.592c0-0.59-0.131-1.247-0.394-1.968H115.972z"/>
		<path d="M115.087,134.89v-3.117h2.427v-9.809c0-0.459-0.229-0.689-0.722-0.689h-1.87v-3.117h4.363c1.476,0,2.198,0.624,2.198,1.87
			v0.754l-0.065,0.722h0.065c0.952-1.969,3.182-3.74,5.708-3.74c2.493,0,4.035,1.214,4.658,3.642h0.066
			c0.951-2.067,3.281-3.642,5.807-3.642c3.576,0,5.38,2.132,5.38,6.364v7.644h2.428v3.117h-6.594v-9.973
			c0-2.198-0.492-3.346-2.296-3.346c-1.345,0-2.395,0.59-3.149,1.739c-0.754,1.148-1.116,2.526-1.116,4.199v4.265h2.428v3.117
			h-6.561v-9.973c0-2.132-0.459-3.346-2.264-3.346c-1.378,0-2.428,0.623-3.182,1.837c-0.755,1.214-1.116,2.625-1.116,4.298v4.068
			h2.395v3.117H115.087z"/>
		<path d="M149.798,120.226c1.575-1.64,3.609-2.46,6.135-2.46c2.329,0,4.167,0.754,5.479,2.264c1.313,1.477,1.969,3.379,1.969,5.676
			l-0.099,1.411h-11.581c0.262,2.985,2.362,4.658,5.02,4.658c1.607,0,3.444-0.722,4.265-1.345l0.59-0.426l1.608,2.953l-0.853,0.656
			c-0.361,0.262-1.116,0.623-2.296,1.05c-1.148,0.426-2.362,0.623-3.609,0.623c-2.69,0-4.855-0.853-6.528-2.526
			c-1.641-1.706-2.46-3.773-2.46-6.233C147.437,123.933,148.224,121.833,149.798,120.226z M159.083,124.655
			c-0.033-2.231-1.411-3.675-3.248-3.675c-2.1,0-3.642,1.444-4.035,3.675H159.083z"/>
		<path d="M173.946,129.313h3.543v0.984c0,1.083,1.443,1.739,3.281,1.739c1.706,0,2.854-0.624,2.854-1.706
			c0-0.722-0.361-1.148-1.083-1.509c-0.23-0.131-0.886-0.394-1.181-0.525c-0.295-0.131-1.181-0.426-1.542-0.558
			c-1.542-0.525-2.362-0.886-3.543-1.673c-1.148-0.82-1.739-1.969-1.739-3.51c0-1.608,0.656-2.822,1.968-3.609
			c1.313-0.788,2.854-1.181,4.626-1.181c1.476,0,2.821,0.295,4.101,0.886c1.279,0.591,1.936,1.443,1.936,2.592v2.132h-3.576v-0.951
			c0-0.82-0.984-1.378-2.46-1.378c-1.411,0-2.428,0.492-2.428,1.509c0,0.426,0.164,0.82,0.525,1.148
			c0.754,0.656,1.443,0.853,2.985,1.345c1.673,0.525,2.428,0.82,3.707,1.64c1.279,0.788,1.87,1.936,1.87,3.51
			c0,1.607-0.656,2.887-2.001,3.773c-1.345,0.886-3.018,1.312-5.052,1.312c-3.051,0-6.791-1.345-6.791-4.035V129.313z"/>
		<path d="M189.3,121.275v-3.117h8.038v3.117h-1.87l2.887,8.267c0.164,0.525,0.361,1.214,0.394,1.575l0.033,0.263h0.099
			c0.065-0.656,0.197-1.279,0.394-1.837l2.92-8.267h-1.903v-3.117h8.038v3.117h-2.001l-5.118,13.615h-4.79l-5.085-13.615H189.3z"/>
		<path d="M212.167,120.226c1.575-1.64,3.609-2.46,6.135-2.46c2.329,0,4.167,0.754,5.479,2.264c1.313,1.477,1.969,3.379,1.969,5.676
			l-0.099,1.411H214.07c0.262,2.985,2.362,4.658,5.02,4.658c1.607,0,3.444-0.722,4.265-1.345l0.59-0.426l1.608,2.953l-0.853,0.656
			c-0.361,0.262-1.116,0.623-2.296,1.05c-1.148,0.426-2.362,0.623-3.609,0.623c-2.69,0-4.855-0.853-6.528-2.526
			c-1.641-1.706-2.46-3.773-2.46-6.233C209.805,123.933,210.592,121.833,212.167,120.226z M216.137,116.092l-3.019-4.462h3.478
			l1.641,2.657h0.065l1.641-2.657h3.477l-3.018,4.462H216.137z M221.451,124.655c-0.033-2.231-1.411-3.675-3.248-3.675
			c-2.1,0-3.642,1.444-4.036,3.675H221.451z"/>
		<path d="M230.179,121.275h-2.559v-3.117h2.69v-4.56h4.035v4.56h3.806v3.117h-3.806v7.053c0,2.854,2.166,3.248,3.346,3.248
			l0.755-0.033v3.412c-0.361,0.066-0.788,0.099-1.28,0.099c-1.148,0-2.132-0.099-3.478-0.624c-1.87-0.722-3.51-2.296-3.51-5.675
			V121.275z"/>
		<path d="M349.897,114.845h-2.789v-3.248h9.908v3.248h-2.821v11.286c0,1.345,0.262,2.428,0.787,3.313
			c0.853,1.378,2.329,2.067,4.396,2.067c2.034,0,3.478-0.689,4.363-2.1c0.525-0.886,0.788-1.969,0.788-3.313v-11.253h-2.789v-3.248
			h9.875v3.248h-2.789v11.286c0,2.329-0.558,4.297-1.705,5.839c-1.674,2.198-4.561,3.313-7.743,3.313
			c-3.313,0-6.135-1.214-7.742-3.28c-1.147-1.444-1.738-3.412-1.738-5.873V114.845z"/>
		<path d="M373.585,134.89v-3.117h2.428v-17.059h-2.592v-3.117h6.759v12.893h2.197l2.724-3.215h-1.936v-3.117h8.037v3.117h-2.165
			l-3.642,4.298v0.065c0.033,0,0.623,0.295,1.279,1.411l2.362,4.134c0.229,0.394,0.688,0.59,1.378,0.59h0.951v3.117h-3.116
			c-1.444,0-1.969-0.263-2.625-1.443l-3.019-5.282c-0.229-0.427-0.722-0.624-1.443-0.624h-0.983v4.232h1.804v3.117H373.585z"/>
		<path d="M395.01,114.714h-2.592v-3.117h6.725v17.715c0,1.607,0.394,2.296,1.706,2.296l0.787-0.033v3.346
			c-0.459,0.066-0.951,0.099-1.509,0.099c-1.542,0-2.788-0.394-3.74-1.148c-0.918-0.787-1.377-2.231-1.377-4.297V114.714z"/>
		<path d="M404.162,134.89v-3.117h2.428v-10.498h-2.592v-3.117h6.759v13.615h2.395v3.117H404.162z M406.558,115.305v-3.707h4.199
			v3.707H406.558z"/>
		<path d="M417.416,120.16c1.411-1.607,3.281-2.395,5.545-2.395c2.821,0,4.265,1.509,4.691,2.1l0.131,0.263h0.065
			c-0.032-0.328-0.065-0.722-0.065-1.181v-4.232h-2.592v-3.117h6.726v19.454c0,0.492,0.229,0.722,0.722,0.722h1.509v3.117h-3.937
			c-1.443,0-2.133-0.722-2.133-1.771v-0.197l0.099-0.755h-0.065c-0.099,0.164-0.131,0.394-0.755,1.083
			c-0.722,0.886-2.197,2.034-4.724,2.034c-2.198,0-3.97-0.82-5.314-2.428c-1.346-1.607-2.002-3.74-2.002-6.332
			C415.316,123.867,416.006,121.768,417.416,120.16z M423.649,131.773c2.396,0,4.232-1.771,4.232-5.15
			c0-1.477-0.361-2.723-1.083-3.74c-0.688-1.017-1.706-1.542-3.018-1.542c-2.461,0-4.266,2.001-4.266,5.183
			C419.516,129.674,421.189,131.773,423.649,131.773z M437.56,111.598c0.164,0.492,0.263,1.083,0.263,1.706
			c0,1.936-1.214,3.477-3.052,4.232l-1.607-1.378c0.886-0.754,1.313-1.64,1.313-2.592c0-0.59-0.131-1.247-0.394-1.968H437.56z"/>
		<path d="M436.675,134.89v-3.117h2.428v-9.809c0-0.459-0.229-0.689-0.722-0.689h-1.87v-3.117h4.363c1.477,0,2.198,0.624,2.198,1.87
			v0.754l-0.065,0.722h0.065c0.951-1.969,3.183-3.74,5.708-3.74c2.494,0,4.035,1.214,4.659,3.642h0.065
			c0.951-2.067,3.28-3.642,5.807-3.642c3.576,0,5.38,2.132,5.38,6.364v7.644h2.428v3.117h-6.594v-9.973
			c0-2.198-0.492-3.346-2.297-3.346c-1.345,0-2.395,0.59-3.149,1.739c-0.754,1.148-1.115,2.526-1.115,4.199v4.265h2.428v3.117
			h-6.562v-9.973c0-2.132-0.459-3.346-2.264-3.346c-1.378,0-2.427,0.623-3.182,1.837s-1.115,2.625-1.115,4.298v4.068h2.395v3.117
			H436.675z"/>
		<path d="M471.387,120.226c1.574-1.64,3.608-2.46,6.135-2.46c2.329,0,4.166,0.754,5.479,2.264c1.312,1.477,1.968,3.379,1.968,5.676
			l-0.098,1.411h-11.581c0.263,2.985,2.362,4.658,5.02,4.658c1.607,0,3.444-0.722,4.265-1.345l0.591-0.426l1.607,2.953l-0.854,0.656
			c-0.36,0.262-1.115,0.623-2.296,1.05c-1.148,0.426-2.362,0.623-3.609,0.623c-2.689,0-4.854-0.853-6.528-2.526
			c-1.64-1.706-2.46-3.773-2.46-6.233C469.024,123.933,469.812,121.833,471.387,120.226z M480.671,124.655
			c-0.033-2.231-1.411-3.675-3.248-3.675c-2.1,0-3.642,1.444-4.035,3.675H480.671z"/>
		<path d="M513.381,112.155c2.001,0.624,3.51,2.001,3.51,3.707v3.149h-3.903v-1.804c-0.066-1.706-3.019-2.395-4.987-2.329
			c-2.264,0-4.133,0.754-5.609,2.23c-1.443,1.477-2.165,3.412-2.165,5.84c0,2.592,0.754,4.691,2.264,6.299
			c1.509,1.575,3.411,2.362,5.741,2.362c0.623,0,1.279-0.065,1.968-0.164c0.689-0.098,1.378-0.361,2.067-0.722
			c0.688-0.361,1.017-0.853,1.017-1.411v-1.804h3.904v3.182c0,1.607-1.443,2.953-3.445,3.609c-1.968,0.656-3.97,0.984-5.773,0.984
			c-3.511,0-6.397-1.148-8.727-3.478c-2.297-2.329-3.444-5.216-3.444-8.661s1.147-6.266,3.444-8.53
			c2.329-2.264,5.184-3.412,8.563-3.412C509.411,111.204,511.38,111.499,513.381,112.155z M505.343,110.056l-3.018-4.461h3.478
			l1.64,2.657h0.066l1.64-2.657h3.478l-3.018,4.461H505.343z"/>
		<path d="M522.339,120.226c1.574-1.64,3.608-2.46,6.135-2.46c2.329,0,4.166,0.754,5.479,2.264c1.312,1.477,1.968,3.379,1.968,5.676
			l-0.098,1.411h-11.581c0.263,2.985,2.362,4.658,5.02,4.658c1.607,0,3.444-0.722,4.265-1.345l0.591-0.426l1.607,2.953l-0.854,0.656
			c-0.36,0.262-1.115,0.623-2.296,1.05c-1.148,0.426-2.362,0.623-3.609,0.623c-2.689,0-4.854-0.853-6.528-2.526
			c-1.64-1.706-2.46-3.773-2.46-6.233C519.977,123.933,520.764,121.833,522.339,120.226z M531.623,124.655
			c-0.033-2.231-1.411-3.675-3.248-3.675c-2.1,0-3.642,1.444-4.035,3.675H531.623z"/>
		<path d="M538.283,129.313h3.543v0.984c0,1.083,1.443,1.739,3.28,1.739c1.706,0,2.854-0.624,2.854-1.706
			c0-0.722-0.361-1.148-1.083-1.509c-0.229-0.131-0.886-0.394-1.181-0.525c-0.295-0.131-1.181-0.426-1.542-0.558
			c-1.542-0.525-2.362-0.886-3.543-1.673c-1.148-0.82-1.739-1.969-1.739-3.51c0-1.608,0.656-2.822,1.969-3.609
			c1.313-0.788,2.854-1.181,4.626-1.181c1.477,0,2.821,0.295,4.101,0.886c1.279,0.591,1.936,1.443,1.936,2.592v2.132h-3.576v-0.951
			c0-0.82-0.983-1.378-2.46-1.378c-1.411,0-2.428,0.492-2.428,1.509c0,0.426,0.164,0.82,0.524,1.148
			c0.755,0.656,1.444,0.853,2.985,1.345c1.674,0.525,2.428,0.82,3.707,1.64c1.28,0.788,1.87,1.936,1.87,3.51
			c0,1.607-0.656,2.887-2.001,3.773s-3.018,1.312-5.052,1.312c-3.052,0-6.791-1.345-6.791-4.035V129.313z"/>
		<path d="M554.261,134.89v-3.117h2.428v-17.059h-2.592v-3.117h6.759v12.893h2.197l2.724-3.215h-1.936v-3.117h8.037v3.117h-2.165
			l-3.642,4.298v0.065c0.033,0,0.623,0.295,1.279,1.411l2.362,4.134c0.229,0.394,0.688,0.59,1.378,0.59h0.951v3.117h-3.116
			c-1.444,0-1.969-0.263-2.625-1.443l-3.019-5.282c-0.229-0.427-0.722-0.624-1.443-0.624h-0.983v4.232h1.804v3.117H554.261z"/>
		<path d="M576.865,132.823c-1.771-1.673-2.657-3.772-2.657-6.299c0-2.526,0.886-4.625,2.657-6.266
			c1.771-1.673,3.938-2.493,6.528-2.493c2.592,0,4.758,0.82,6.529,2.493c1.804,1.641,2.689,3.74,2.689,6.266
			c0,2.526-0.886,4.626-2.657,6.299c-1.771,1.641-3.937,2.46-6.528,2.46S578.637,134.464,576.865,132.823z M579.884,130.297
			c0.951,0.951,2.133,1.443,3.543,1.443c1.378,0,2.559-0.492,3.511-1.443c0.951-0.984,1.443-2.231,1.443-3.773
			c0-1.509-0.492-2.756-1.443-3.74c-0.952-0.984-2.133-1.477-3.511-1.477s-2.559,0.492-3.543,1.477
			c-0.951,0.984-1.443,2.231-1.443,3.74C578.44,128.066,578.933,129.313,579.884,130.297z"/>
	</g>
	<g>
		<circle fill="#FFFFFF" cx="275.635" cy="280.868" r="17.065"/>
		<circle fill="#FFFFFF" cx="306.318" cy="277.497" r="17.065"/>
		<circle fill="#FFFFFF" cx="324.507" cy="302.729" r="17.065"/>
		<circle fill="#FFFFFF" cx="312.362" cy="331.211" r="17.065"/>
		<circle fill="#FFFFFF" cx="281.82" cy="335.626" r="17.065"/>
		<circle fill="#FFFFFF" cx="263.761" cy="310.471" r="17.065"/>
		<ellipse fill="#FFFFFF" cx="294.25" cy="305.57" rx="21.376" ry="22.129"/>
	</g>
	<path fill="#A9BD5B" d="M297.965,331.175c0.154-8.322,6.736-14.71,14.972-14.633c7.987,0.074,14.891,6.935,14.496,15.664
		c-0.346,7.671-7.066,14.103-14.981,13.968C304.313,346.036,297.815,339.309,297.965,331.175z"/>
	<path fill="#885D40" d="M306.257,292.424c-8.176-0.012-14.703-6.65-14.69-14.938c0.014-8.168,6.657-14.672,14.967-14.653
		c7.999,0.019,14.585,6.701,14.581,14.794C321.112,285.83,314.479,292.435,306.257,292.424z"/>
	<path fill="#158C46" d="M278.527,310.674c-0.023,8.235-6.595,14.752-14.871,14.745c-8.186-0.007-14.649-6.63-14.614-14.974
		c0.034-8.081,6.662-14.673,14.705-14.625C272.02,295.868,278.55,302.43,278.527,310.674z"/>
	<path fill="#ED902A" d="M339.306,302.883c0.001,8.269-6.536,14.796-14.813,14.79c-8.088-0.006-14.821-6.77-14.736-14.803
		c0.087-8.256,6.675-14.802,14.882-14.79C332.785,288.091,339.305,294.672,339.306,302.883z"/>
	<path fill="#106DB1" d="M292.993,296.212c0.966,1.517,1.95,2.876,2.73,4.344c0.648,1.219,1.211,1.144,2.01,0.226
		c0.264-0.303,0.612-0.533,0.921-0.797c1.6-1.366,1.6-1.366,2.509,0.457c1.189,2.384,1.189,2.384,3.475,1.002
		c0.347-0.21,0.699-0.413,1.049-0.619c1.595-0.938,1.595-0.938,2.28,0.726c2.327,5.66,0.83,12.399-3.674,16.528
		c-4.606,4.223-11.408,5.115-16.878,2.213c-5.461-2.897-8.606-8.976-7.782-15.041c0.217-1.602,0.217-1.602,1.646-0.908
		c2.317,1.126,2.484,1.186,3.363-1.246c0.878-2.429,2.151-3.807,4.894-3.198c1.219,0.271,1.913-0.301,2.319-1.446
		C292.122,297.705,292.573,297.023,292.993,296.212z"/>
	<path fill="#E0292B" d="M281.874,350.564c-8.154,0.035-14.865-6.638-14.799-14.677c0.007-0.816,0.092-1.224,1.08-1.098
		c1.578,0.201,2.66-0.553,3.325-2.003c0.658-1.434,1.279-2.894,2.213-4.183c1.516-2.092,3.011-2.517,5.41-1.555
		c1.443,0.578,2.788,1.378,3.883,2.439c2.803,2.717,6.209,2.815,9.747,2.487c0.626-0.058,1.275-0.146,1.853-0.374
		c1.017-0.4,1.411-0.236,1.672,0.944C298.294,341.736,291.314,350.524,281.874,350.564z"/>
	<path fill="#E45B2C" d="M263.232,280.984c6.003-0.047,11.446-1.935,15.688-6.625c0.679-0.75,1.058-0.714,1.663-0.02
		c0.442,0.507,0.996,0.917,1.501,1.369c1.941,1.737,4.181,2.253,6.677,1.563c0.79-0.219,1.18-0.126,1.372,0.779
		c1.966,9.275-5.407,18.135-14.895,17.861c-7.522-0.218-13.761-6.167-14.34-13.672C260.795,280.907,260.795,280.907,263.232,280.984
		z"/>
	<path fill="#E45B2C" d="M286.653,276.445c-1.44,0.124-2.636-0.585-3.735-1.497c-0.765-0.634-1.532-1.278-2.211-1.999
		c-0.808-0.859-1.318-0.83-2.13,0.116c-4.342,5.062-9.968,7.084-16.541,6.744c-0.755-0.039-1.093-0.168-0.973-1.098
		c0.788-6.14,6.218-11.506,12.56-12.319c6.602-0.846,13.253,2.897,15.552,8.71c0.281,0.711,0.151,0.95-0.573,1.105
		C287.978,276.342,287.363,276.451,286.653,276.445z"/>
	<path fill="#E0292B" d="M289.882,330.99c-2.012,0.156-4.06-0.51-5.866-2.122c-1.343-1.198-2.86-2.205-4.571-2.867
		c-2.91-1.126-4.911-0.525-6.704,2.035c-0.886,1.264-1.487,2.68-2.171,4.052c-0.218,0.438-0.468,0.899-0.819,1.222
		c-0.626,0.575-1.511,0.613-2.175,0.29c-0.649-0.316-0.17-1.053-0.032-1.576c1.604-6.071,6.559-10.32,12.832-11.031
		c5.808-0.658,11.692,2.523,14.496,7.838c0.719,1.362,0.671,1.485-0.867,1.816C292.765,330.915,291.507,331.046,289.882,330.99z"/>
	<path fill="#106DB1" d="M292.859,293.926c-0.746,1.48-1.418,2.739-2.017,4.032c-0.287,0.618-0.675,0.987-1.348,0.821
		c-3.451-0.855-4.938,1.131-5.907,3.976c-0.134,0.392-0.228,1.204-0.841,1.02c-0.841-0.252-1.608-0.773-2.363-1.249
		c-0.081-0.051,0.096-0.586,0.216-0.869c2.224-5.257,6.18-8.424,11.809-9.156c5.52-0.718,10.079,1.303,13.616,5.629
		c0.574,0.702,0.383,0.986-0.317,1.41c-2.898,1.756-2.884,1.78-4.39-1.244c-0.716-1.438-0.697-1.414-1.953-0.414
		c-0.867,0.69-1.693,2.143-2.56,1.916c-0.811-0.213-1.29-1.717-1.902-2.662C294.25,296.13,293.613,295.113,292.859,293.926z"/>
	<path fill="#FDFDFC" d="M313.927,341.856c-3.41-0.081-5.981-1.549-8.242-3.687c-0.305-0.289-0.595-0.708-0.252-1.06
		c0.447-0.458,0.802,0.008,1.113,0.319c1.033,1.029,2.207,1.87,3.53,2.467c3.629,1.639,7.123,0.804,9.996-2.366
		c0.91-1.004,1.717-2.09,2.411-3.256c0.242-0.406,0.513-0.848,1.044-0.524c0.512,0.312,0.145,0.717-0.06,1.044
		c-2.002,3.198-4.307,6.039-8.268,6.88C314.718,341.775,314.223,341.814,313.927,341.856z"/>
	<path fill="#FCFDFA" d="M315.647,326.986c0.023-1.051,0.657-1.564,1.615-1.636c0.937-0.071,1.736,0.802,1.672,1.748
		c-0.068,1.004-0.654,1.58-1.64,1.646C316.363,328.806,315.627,327.971,315.647,326.986z"/>
	<path fill="#FCFDFB" d="M307.302,331.4c-0.894-0.106-1.488-0.653-1.605-1.625c-0.11-0.917,0.707-1.738,1.665-1.752
		c0.909-0.014,1.774,0.826,1.702,1.737C308.985,330.757,308.373,331.286,307.302,331.4z"/>
	<path fill="#FCFCFC" d="M314.235,269.196c0.257-0.005,0.568,0.059,0.608,0.466c0.05,0.497-0.363,0.591-0.702,0.667
		c-1.892,0.424-3.79,0.825-5.686,1.233c-1.878,0.404-1.885,0.407-1.039,2.068c1.31,2.572,2.605,5.152,3.963,7.699
		c0.399,0.748,0.319,1.054-0.518,1.299c-1.338,0.391-2.639,0.91-3.963,1.353c-0.368,0.123-0.846,0.34-1.034-0.22
		c-0.177-0.526,0.268-0.691,0.661-0.831c0.934-0.332,1.852-0.723,2.808-0.971c0.811-0.21,0.863-0.502,0.492-1.204
		c-1.473-2.792-2.863-5.628-4.343-8.417c-0.442-0.833-0.496-1.192,0.603-1.395c2.481-0.459,4.936-1.058,7.402-1.599
		C313.709,269.296,313.931,269.256,314.235,269.196z"/>
	<path fill="#FBFBFA" d="M314.351,274.475c-0.066,0.89-0.614,1.456-1.613,1.519c-0.963,0.061-1.731-0.715-1.695-1.688
		c0.037-1.02,0.625-1.572,1.612-1.644C313.611,272.592,314.364,273.38,314.351,274.475z"/>
	<path fill="#FCFBFA" d="M301.707,277.643c-0.974,0.035-1.784-0.698-1.759-1.647c0.027-1.008,0.614-1.583,1.579-1.702
		c0.944-0.116,1.702,0.66,1.716,1.658C303.256,276.929,302.638,277.61,301.707,277.643z"/>
	<path fill="#FCFDFC" d="M262.865,322.305c-1.861-0.126-3.671-0.433-5.104-1.794c-1.631-1.55-1.564-3.603,0.145-5.042
		c2.552-2.149,7.572-2.15,10.099-0.002c1.686,1.433,1.757,3.544,0.134,5.058C266.661,321.902,264.805,322.215,262.865,322.305z"/>
	<path fill="#FAFCFA" d="M258.779,301.617c0.957,0.011,1.744,0.805,1.65,1.75c-0.098,0.982-0.666,1.558-1.683,1.578
		c-0.955,0.019-1.7-0.789-1.654-1.746C257.136,302.299,257.874,301.607,258.779,301.617z"/>
	<path fill="#FAFCFB" d="M270.387,303.882c0.023,0.987-0.696,1.737-1.679,1.697c-1.006-0.041-1.581-0.572-1.614-1.604
		c-0.032-0.984,0.706-1.743,1.658-1.732C269.644,302.255,270.366,302.978,270.387,303.882z"/>
	<path fill="#FDFDFC" d="M326.661,300.457c0.274-0.697-0.095-1.096-0.701-1.361c-0.625-0.274-1.226-0.26-1.785,0.178
		c-0.566,0.444-0.284,0.941-0.142,1.472c0.811,3.047-0.879,5.862-3.884,6.516c-2.717,0.591-5.527-1.339-6.028-4.143
		c-0.518-2.895,1.492-5.563,4.54-5.975c1.264-0.171,2.432,0.193,3.443,0.944c0.585,0.435,1.023,0.722,1.72,0.111
		c0.606-0.532,1.529-0.608,2.188-0.232c1.02,0.582,1.432,0.106,2.048-0.609c1.504-1.746,4.013-2.123,6.068-1.05
		c1.956,1.021,3.085,3.359,2.646,5.479c-0.484,2.336-2.413,4.039-4.725,4.173c-2.237,0.129-4.289-1.232-5.064-3.353
		C326.732,301.918,326.638,301.208,326.661,300.457z"/>
	<path fill="#F8FBFC" d="M298.315,305.387c0.091-0.838,0.657-1.415,1.63-1.5c0.92-0.081,1.686,0.762,1.67,1.728
		c-0.017,1.056-0.645,1.567-1.604,1.651C299.076,307.346,298.29,306.495,298.315,305.387z"/>
	<path fill="#FBFCFC" d="M290.235,308.207c-1.209,0.024-2.004-0.709-1.94-1.662c0.066-0.982,0.61-1.576,1.628-1.628
		c0.952-0.048,1.766,0.732,1.708,1.679C291.571,307.579,291.042,308.165,290.235,308.207z"/>
	<path fill="#FDFAFA" d="M277.387,337.449c-1.092-0.036-1.816-0.819-1.747-1.79c0.074-1.029,0.697-1.535,1.682-1.562
		c0.927-0.025,1.772,0.875,1.643,1.765C278.828,336.813,278.261,337.389,277.387,337.449z"/>
	<path fill="#FDFBFA" d="M286.694,335.717c1.125,0.145,1.682,0.727,1.611,1.822c-0.068,1.044-0.705,1.522-1.689,1.523
		c-0.958,0-1.701-0.848-1.59-1.794C285.143,336.267,285.782,335.793,286.694,335.717z"/>
	<path fill="#FDFBFA" d="M272.088,283.532c-0.047,1.029-0.593,1.622-1.569,1.742c-0.881,0.108-1.772-0.767-1.787-1.663
		c-0.015-0.893,0.84-1.788,1.727-1.714C271.439,281.978,272.006,282.55,272.088,283.532z"/>
	<path fill="#FDFBFA" d="M280.235,281.963c-1.126-0.016-1.793-0.728-1.739-1.746c0.056-1.039,0.679-1.538,1.655-1.583
		c0.942-0.044,1.693,0.785,1.63,1.753C281.715,281.413,281.099,281.891,280.235,281.963z"/>
	<path fill="#158D46" d="M263.077,314.942c1.511,0.064,3.001,0.36,4.219,1.413c1.265,1.094,1.242,2.34-0.013,3.446
		c-2.096,1.846-6.597,1.839-8.69-0.013c-1.22-1.08-1.233-2.396,0.025-3.451C259.885,315.273,261.42,314.974,263.077,314.942z"/>
	<path fill="#ED912A" d="M323.144,302.161c0.017,2.237-1.783,4.091-3.986,4.105c-2.109,0.013-3.979-1.828-4.013-3.951
		c-0.034-2.176,1.836-4.102,4.003-4.124C321.25,298.17,323.127,300.035,323.144,302.161z"/>
	<path fill="#ED912A" d="M331.821,296.81c2.094,0.025,3.943,1.906,3.951,4.018c0.007,2.153-1.943,4.089-4.072,4.041
		c-2.221-0.05-3.957-1.901-3.899-4.158C327.858,298.532,329.66,296.784,331.821,296.81z"/>
	<g>
		<path fill="#FFFFFF" d="M28.31,301.512h-2.789v-3.248h9.907v3.248h-2.821v11.286c0,1.345,0.263,2.428,0.788,3.313
			c0.853,1.378,2.329,2.067,4.396,2.067c2.034,0,3.478-0.689,4.363-2.1c0.525-0.886,0.787-1.969,0.787-3.313v-11.253h-2.789v-3.248
			h9.875v3.248h-2.789v11.286c0,2.329-0.558,4.297-1.706,5.839c-1.673,2.198-4.56,3.313-7.742,3.313
			c-3.313,0-6.135-1.214-7.742-3.28c-1.148-1.444-1.739-3.412-1.739-5.873V301.512z"/>
		<path fill="#FFFFFF" d="M51.997,321.557v-3.117h2.428v-17.059h-2.592v-3.117h6.758v12.893h2.198l2.723-3.215h-1.936v-3.117h8.038
			v3.117h-2.165l-3.642,4.298v0.065c0.033,0,0.623,0.295,1.279,1.411l2.362,4.134c0.229,0.394,0.689,0.59,1.378,0.59h0.951v3.117
			h-3.117c-1.443,0-1.968-0.263-2.625-1.443l-3.018-5.282c-0.229-0.427-0.722-0.624-1.443-0.624h-0.984v4.232h1.804v3.117H51.997z"
			/>
		<path fill="#FFFFFF" d="M73.421,301.381h-2.592v-3.117h6.726v17.715c0,1.607,0.394,2.296,1.706,2.296l0.788-0.033v3.346
			c-0.459,0.066-0.951,0.099-1.509,0.099c-1.542,0-2.789-0.394-3.74-1.148c-0.918-0.787-1.378-2.231-1.378-4.297V301.381z"/>
		<path fill="#FFFFFF" d="M82.575,321.557v-3.117h2.427v-10.498h-2.591v-3.117h6.758v13.615h2.395v3.117H82.575z M84.969,301.971
			v-3.707h4.199v3.707H84.969z"/>
		<path fill="#FFFFFF" d="M95.829,306.827c1.411-1.607,3.28-2.395,5.544-2.395c2.822,0,4.265,1.509,4.691,2.1l0.131,0.263h0.065
			c-0.033-0.328-0.065-0.722-0.065-1.181v-4.232h-2.592v-3.117h6.726v19.454c0,0.492,0.229,0.722,0.722,0.722h1.509v3.117h-3.937
			c-1.443,0-2.132-0.722-2.132-1.771v-0.197l0.098-0.755h-0.065c-0.099,0.164-0.131,0.394-0.754,1.083
			c-0.722,0.886-2.198,2.034-4.724,2.034c-2.198,0-3.97-0.82-5.315-2.428c-1.345-1.607-2.001-3.74-2.001-6.332
			C93.729,310.534,94.418,308.434,95.829,306.827z M102.062,318.44c2.395,0,4.232-1.771,4.232-5.15c0-1.477-0.361-2.723-1.083-3.74
			c-0.689-1.017-1.706-1.542-3.018-1.542c-2.46,0-4.265,2.001-4.265,5.183C97.929,316.34,99.602,318.44,102.062,318.44z
			 M115.972,298.264c0.164,0.492,0.262,1.083,0.262,1.706c0,1.936-1.214,3.477-3.051,4.232l-1.607-1.378
			c0.886-0.754,1.312-1.64,1.312-2.592c0-0.59-0.131-1.247-0.394-1.968H115.972z"/>
		<path fill="#FFFFFF" d="M115.087,321.557v-3.117h2.427v-9.809c0-0.459-0.229-0.689-0.722-0.689h-1.87v-3.117h4.363
			c1.476,0,2.198,0.624,2.198,1.87v0.754l-0.065,0.722h0.065c0.952-1.969,3.182-3.74,5.708-3.74c2.493,0,4.035,1.214,4.658,3.642
			h0.066c0.951-2.067,3.281-3.642,5.807-3.642c3.576,0,5.38,2.132,5.38,6.364v7.644h2.428v3.117h-6.594v-9.973
			c0-2.198-0.492-3.346-2.296-3.346c-1.345,0-2.395,0.59-3.149,1.739c-0.754,1.148-1.116,2.526-1.116,4.199v4.265h2.428v3.117
			h-6.561v-9.973c0-2.132-0.459-3.346-2.264-3.346c-1.378,0-2.428,0.623-3.182,1.837c-0.755,1.214-1.116,2.625-1.116,4.298v4.068
			h2.395v3.117H115.087z"/>
		<path fill="#FFFFFF" d="M149.798,306.892c1.575-1.64,3.609-2.46,6.135-2.46c2.329,0,4.167,0.754,5.479,2.264
			c1.313,1.477,1.969,3.379,1.969,5.676l-0.099,1.411h-11.581c0.262,2.985,2.362,4.658,5.02,4.658c1.607,0,3.444-0.722,4.265-1.345
			l0.59-0.426l1.608,2.953l-0.853,0.656c-0.361,0.262-1.116,0.623-2.296,1.05c-1.148,0.426-2.362,0.623-3.609,0.623
			c-2.69,0-4.855-0.853-6.528-2.526c-1.641-1.706-2.46-3.773-2.46-6.233C147.437,310.599,148.224,308.5,149.798,306.892z
			 M159.083,311.321c-0.033-2.231-1.411-3.675-3.248-3.675c-2.1,0-3.642,1.444-4.035,3.675H159.083z"/>
		<path fill="#FFFFFF" d="M173.946,315.979h3.543v0.984c0,1.083,1.443,1.739,3.281,1.739c1.706,0,2.854-0.624,2.854-1.706
			c0-0.722-0.361-1.148-1.083-1.509c-0.23-0.131-0.886-0.394-1.181-0.525c-0.295-0.131-1.181-0.426-1.542-0.558
			c-1.542-0.525-2.362-0.886-3.543-1.673c-1.148-0.82-1.739-1.969-1.739-3.51c0-1.608,0.656-2.822,1.968-3.609
			c1.313-0.788,2.854-1.181,4.626-1.181c1.476,0,2.821,0.295,4.101,0.886c1.279,0.591,1.936,1.443,1.936,2.592v2.132h-3.576v-0.951
			c0-0.82-0.984-1.378-2.46-1.378c-1.411,0-2.428,0.492-2.428,1.509c0,0.426,0.164,0.82,0.525,1.148
			c0.754,0.656,1.443,0.853,2.985,1.345c1.673,0.525,2.428,0.82,3.707,1.64c1.279,0.788,1.87,1.936,1.87,3.51
			c0,1.607-0.656,2.887-2.001,3.773c-1.345,0.886-3.018,1.312-5.052,1.312c-3.051,0-6.791-1.345-6.791-4.035V315.979z"/>
		<path fill="#FFFFFF" d="M189.3,307.942v-3.117h8.038v3.117h-1.87l2.887,8.267c0.164,0.525,0.361,1.214,0.394,1.575l0.033,0.263
			h0.099c0.065-0.656,0.197-1.279,0.394-1.837l2.92-8.267h-1.903v-3.117h8.038v3.117h-2.001l-5.118,13.615h-4.79l-5.085-13.615
			H189.3z"/>
		<path fill="#FFFFFF" d="M212.167,306.892c1.575-1.64,3.609-2.46,6.135-2.46c2.329,0,4.167,0.754,5.479,2.264
			c1.313,1.477,1.969,3.379,1.969,5.676l-0.099,1.411H214.07c0.262,2.985,2.362,4.658,5.02,4.658c1.607,0,3.444-0.722,4.265-1.345
			l0.59-0.426l1.608,2.953l-0.853,0.656c-0.361,0.262-1.116,0.623-2.296,1.05c-1.148,0.426-2.362,0.623-3.609,0.623
			c-2.69,0-4.855-0.853-6.528-2.526c-1.641-1.706-2.46-3.773-2.46-6.233C209.805,310.599,210.592,308.5,212.167,306.892z
			 M216.137,302.759l-3.019-4.462h3.478l1.641,2.657h0.065l1.641-2.657h3.477l-3.018,4.462H216.137z M221.451,311.321
			c-0.033-2.231-1.411-3.675-3.248-3.675c-2.1,0-3.642,1.444-4.036,3.675H221.451z"/>
		<path fill="#FFFFFF" d="M230.179,307.942h-2.559v-3.117h2.69v-4.56h4.035v4.56h3.806v3.117h-3.806v7.053
			c0,2.854,2.166,3.248,3.346,3.248l0.755-0.033v3.412c-0.361,0.066-0.788,0.099-1.28,0.099c-1.148,0-2.132-0.099-3.478-0.624
			c-1.87-0.722-3.51-2.296-3.51-5.675V307.942z"/>
		<path fill="#FFFFFF" d="M349.897,301.512h-2.789v-3.248h9.908v3.248h-2.821v11.286c0,1.345,0.262,2.428,0.787,3.313
			c0.853,1.378,2.329,2.067,4.396,2.067c2.034,0,3.478-0.689,4.363-2.1c0.525-0.886,0.788-1.969,0.788-3.313v-11.253h-2.789v-3.248
			h9.875v3.248h-2.789v11.286c0,2.329-0.558,4.297-1.705,5.839c-1.674,2.198-4.561,3.313-7.743,3.313
			c-3.313,0-6.135-1.214-7.742-3.28c-1.147-1.444-1.738-3.412-1.738-5.873V301.512z"/>
		<path fill="#FFFFFF" d="M373.585,321.557v-3.117h2.428v-17.059h-2.592v-3.117h6.759v12.893h2.197l2.724-3.215h-1.936v-3.117h8.037
			v3.117h-2.165l-3.642,4.298v0.065c0.033,0,0.623,0.295,1.279,1.411l2.362,4.134c0.229,0.394,0.688,0.59,1.378,0.59h0.951v3.117
			h-3.116c-1.444,0-1.969-0.263-2.625-1.443l-3.019-5.282c-0.229-0.427-0.722-0.624-1.443-0.624h-0.983v4.232h1.804v3.117H373.585z"
			/>
		<path fill="#FFFFFF" d="M395.01,301.381h-2.592v-3.117h6.725v17.715c0,1.607,0.394,2.296,1.706,2.296l0.787-0.033v3.346
			c-0.459,0.066-0.951,0.099-1.509,0.099c-1.542,0-2.788-0.394-3.74-1.148c-0.918-0.787-1.377-2.231-1.377-4.297V301.381z"/>
		<path fill="#FFFFFF" d="M404.162,321.557v-3.117h2.428v-10.498h-2.592v-3.117h6.759v13.615h2.395v3.117H404.162z M406.558,301.971
			v-3.707h4.199v3.707H406.558z"/>
		<path fill="#FFFFFF" d="M417.416,306.827c1.411-1.607,3.281-2.395,5.545-2.395c2.821,0,4.265,1.509,4.691,2.1l0.131,0.263h0.065
			c-0.032-0.328-0.065-0.722-0.065-1.181v-4.232h-2.592v-3.117h6.726v19.454c0,0.492,0.229,0.722,0.722,0.722h1.509v3.117h-3.937
			c-1.443,0-2.133-0.722-2.133-1.771v-0.197l0.099-0.755h-0.065c-0.099,0.164-0.131,0.394-0.755,1.083
			c-0.722,0.886-2.197,2.034-4.724,2.034c-2.198,0-3.97-0.82-5.314-2.428c-1.346-1.607-2.002-3.74-2.002-6.332
			C415.316,310.534,416.006,308.434,417.416,306.827z M423.649,318.44c2.396,0,4.232-1.771,4.232-5.15
			c0-1.477-0.361-2.723-1.083-3.74c-0.688-1.017-1.706-1.542-3.018-1.542c-2.461,0-4.266,2.001-4.266,5.183
			C419.516,316.34,421.189,318.44,423.649,318.44z M437.56,298.264c0.164,0.492,0.263,1.083,0.263,1.706
			c0,1.936-1.214,3.477-3.052,4.232l-1.607-1.378c0.886-0.754,1.313-1.64,1.313-2.592c0-0.59-0.131-1.247-0.394-1.968H437.56z"/>
		<path fill="#FFFFFF" d="M436.675,321.557v-3.117h2.428v-9.809c0-0.459-0.229-0.689-0.722-0.689h-1.87v-3.117h4.363
			c1.477,0,2.198,0.624,2.198,1.87v0.754l-0.065,0.722h0.065c0.951-1.969,3.183-3.74,5.708-3.74c2.494,0,4.035,1.214,4.659,3.642
			h0.065c0.951-2.067,3.28-3.642,5.807-3.642c3.576,0,5.38,2.132,5.38,6.364v7.644h2.428v3.117h-6.594v-9.973
			c0-2.198-0.492-3.346-2.297-3.346c-1.345,0-2.395,0.59-3.149,1.739c-0.754,1.148-1.115,2.526-1.115,4.199v4.265h2.428v3.117
			h-6.562v-9.973c0-2.132-0.459-3.346-2.264-3.346c-1.378,0-2.427,0.623-3.182,1.837s-1.115,2.625-1.115,4.298v4.068h2.395v3.117
			H436.675z"/>
		<path fill="#FFFFFF" d="M471.387,306.892c1.574-1.64,3.608-2.46,6.135-2.46c2.329,0,4.166,0.754,5.479,2.264
			c1.312,1.477,1.968,3.379,1.968,5.676l-0.098,1.411h-11.581c0.263,2.985,2.362,4.658,5.02,4.658c1.607,0,3.444-0.722,4.265-1.345
			l0.591-0.426l1.607,2.953l-0.854,0.656c-0.36,0.262-1.115,0.623-2.296,1.05c-1.148,0.426-2.362,0.623-3.609,0.623
			c-2.689,0-4.854-0.853-6.528-2.526c-1.64-1.706-2.46-3.773-2.46-6.233C469.024,310.599,469.812,308.5,471.387,306.892z
			 M480.671,311.321c-0.033-2.231-1.411-3.675-3.248-3.675c-2.1,0-3.642,1.444-4.035,3.675H480.671z"/>
		<path fill="#FFFFFF" d="M513.381,298.822c2.001,0.624,3.51,2.001,3.51,3.707v3.149h-3.903v-1.804
			c-0.066-1.706-3.019-2.395-4.987-2.329c-2.264,0-4.133,0.754-5.609,2.23c-1.443,1.477-2.165,3.412-2.165,5.84
			c0,2.592,0.754,4.691,2.264,6.299c1.509,1.575,3.411,2.362,5.741,2.362c0.623,0,1.279-0.065,1.968-0.164
			c0.689-0.098,1.378-0.361,2.067-0.722c0.688-0.361,1.017-0.853,1.017-1.411v-1.804h3.904v3.182c0,1.607-1.443,2.953-3.445,3.609
			c-1.968,0.656-3.97,0.984-5.773,0.984c-3.511,0-6.397-1.148-8.727-3.478c-2.297-2.329-3.444-5.216-3.444-8.661
			s1.147-6.266,3.444-8.53c2.329-2.264,5.184-3.412,8.563-3.412C509.411,297.871,511.38,298.166,513.381,298.822z M505.343,296.722
			l-3.018-4.461h3.478l1.64,2.657h0.066l1.64-2.657h3.478l-3.018,4.461H505.343z"/>
		<path fill="#FFFFFF" d="M522.339,306.892c1.574-1.64,3.608-2.46,6.135-2.46c2.329,0,4.166,0.754,5.479,2.264
			c1.312,1.477,1.968,3.379,1.968,5.676l-0.098,1.411h-11.581c0.263,2.985,2.362,4.658,5.02,4.658c1.607,0,3.444-0.722,4.265-1.345
			l0.591-0.426l1.607,2.953l-0.854,0.656c-0.36,0.262-1.115,0.623-2.296,1.05c-1.148,0.426-2.362,0.623-3.609,0.623
			c-2.689,0-4.854-0.853-6.528-2.526c-1.64-1.706-2.46-3.773-2.46-6.233C519.977,310.599,520.764,308.5,522.339,306.892z
			 M531.623,311.321c-0.033-2.231-1.411-3.675-3.248-3.675c-2.1,0-3.642,1.444-4.035,3.675H531.623z"/>
		<path fill="#FFFFFF" d="M538.283,315.979h3.543v0.984c0,1.083,1.443,1.739,3.28,1.739c1.706,0,2.854-0.624,2.854-1.706
			c0-0.722-0.361-1.148-1.083-1.509c-0.229-0.131-0.886-0.394-1.181-0.525c-0.295-0.131-1.181-0.426-1.542-0.558
			c-1.542-0.525-2.362-0.886-3.543-1.673c-1.148-0.82-1.739-1.969-1.739-3.51c0-1.608,0.656-2.822,1.969-3.609
			c1.313-0.788,2.854-1.181,4.626-1.181c1.477,0,2.821,0.295,4.101,0.886c1.279,0.591,1.936,1.443,1.936,2.592v2.132h-3.576v-0.951
			c0-0.82-0.983-1.378-2.46-1.378c-1.411,0-2.428,0.492-2.428,1.509c0,0.426,0.164,0.82,0.524,1.148
			c0.755,0.656,1.444,0.853,2.985,1.345c1.674,0.525,2.428,0.82,3.707,1.64c1.28,0.788,1.87,1.936,1.87,3.51
			c0,1.607-0.656,2.887-2.001,3.773s-3.018,1.312-5.052,1.312c-3.052,0-6.791-1.345-6.791-4.035V315.979z"/>
		<path fill="#FFFFFF" d="M554.261,321.557v-3.117h2.428v-17.059h-2.592v-3.117h6.759v12.893h2.197l2.724-3.215h-1.936v-3.117h8.037
			v3.117h-2.165l-3.642,4.298v0.065c0.033,0,0.623,0.295,1.279,1.411l2.362,4.134c0.229,0.394,0.688,0.59,1.378,0.59h0.951v3.117
			h-3.116c-1.444,0-1.969-0.263-2.625-1.443l-3.019-5.282c-0.229-0.427-0.722-0.624-1.443-0.624h-0.983v4.232h1.804v3.117H554.261z"
			/>
		<path fill="#FFFFFF" d="M576.865,319.49c-1.771-1.673-2.657-3.772-2.657-6.299c0-2.526,0.886-4.625,2.657-6.266
			c1.771-1.673,3.938-2.493,6.528-2.493c2.592,0,4.758,0.82,6.529,2.493c1.804,1.641,2.689,3.74,2.689,6.266
			c0,2.526-0.886,4.626-2.657,6.299c-1.771,1.641-3.937,2.46-6.528,2.46S578.637,321.13,576.865,319.49z M579.884,316.964
			c0.951,0.951,2.133,1.443,3.543,1.443c1.378,0,2.559-0.492,3.511-1.443c0.951-0.984,1.443-2.231,1.443-3.773
			c0-1.509-0.492-2.756-1.443-3.74c-0.952-0.984-2.133-1.477-3.511-1.477s-2.559,0.492-3.543,1.477
			c-0.951,0.984-1.443,2.231-1.443,3.74C578.44,314.733,578.933,315.979,579.884,316.964z"/>
	</g>
</g>
</svg>
