<?xml version="1.0" encoding="UTF-8" standalone="no"?>
<!-- Created with Inkscape (http://www.inkscape.org/) -->

<svg
   xmlns:dc="http://purl.org/dc/elements/1.1/"
   xmlns:cc="http://creativecommons.org/ns#"
   xmlns:rdf="http://www.w3.org/1999/02/22-rdf-syntax-ns#"
   xmlns:svg="http://www.w3.org/2000/svg"
   xmlns="http://www.w3.org/2000/svg"
   xmlns:sodipodi="http://sodipodi.sourceforge.net/DTD/sodipodi-0.dtd"
   xmlns:inkscape="http://www.inkscape.org/namespaces/inkscape"
   width="210mm"
   height="297mm"
   viewBox="0 0 210 297"
   version="1.1"
   id="svg8"
   inkscape:version="0.92.0 r15299"
   sodipodi:docname="logo-USUS-2017-krivky.svg">
  <defs
     id="defs2" />
  <sodipodi:namedview
     id="base"
     pagecolor="#ffffff"
     bordercolor="#666666"
     borderopacity="1.0"
     inkscape:pageopacity="0.0"
     inkscape:pageshadow="2"
     inkscape:zoom="0.70000001"
     inkscape:cx="25.769294"
     inkscape:cy="620.60915"
     inkscape:document-units="mm"
     inkscape:current-layer="text4869"
     showgrid="false"
     showguides="true"
     inkscape:guide-bbox="true"
     inkscape:window-width="1920"
     inkscape:window-height="1018"
     inkscape:window-x="1358"
     inkscape:window-y="108"
     inkscape:window-maximized="1">
    <sodipodi:guide
       position="179.91666,224.51786"
       orientation="0,1"
       id="guide4875"
       inkscape:locked="false" />
    <sodipodi:guide
       position="196.54761,175.75893"
       orientation="0,1"
       id="guide4877"
       inkscape:locked="false" />
    <sodipodi:guide
       position="80.13095,285.75001"
       orientation="1,0"
       id="guide4616"
       inkscape:locked="false" />
    <sodipodi:guide
       position="108.85714,294.82143"
       orientation="1,0"
       id="guide4618"
       inkscape:locked="false" />
  </sodipodi:namedview>
  <metadata
     id="metadata5">
    <rdf:RDF>
      <cc:Work
         rdf:about="">
        <dc:format>image/svg+xml</dc:format>
        <dc:type
           rdf:resource="http://purl.org/dc/dcmitype/StillImage" />
        <dc:title></dc:title>
      </cc:Work>
    </rdf:RDF>
  </metadata>
  <g
     inkscape:label="Layer 1"
     inkscape:groupmode="layer"
     id="layer1">
    <g
       id="g4863"
       transform="matrix(0.26458333,0,0,0.26458333,17.256054,36.476151)">
      <g
         id="Layer_2" />
      <path
         id="path4560"
         d="m -475.97571,-349.44072 h -2.789 v -3.248 h 9.907 v 3.248 h -2.821 v 11.286 c 0,1.345 0.263,2.428 0.788,3.313 0.853,1.378 2.329,2.067 4.396,2.067 2.034,0 3.478,-0.689 4.363,-2.1 0.525,-0.886 0.787,-1.969 0.787,-3.313 v -11.253 h -2.789 v -3.248 h 9.875 v 3.248 h -2.789 v 11.286 c 0,2.329 -0.558,4.297 -1.706,5.839 -1.673,2.198 -4.56,3.313 -7.742,3.313 -3.313,0 -6.135,-1.214 -7.742,-3.28 -1.148,-1.444 -1.739,-3.412 -1.739,-5.873 v -11.285 z"
         inkscape:connector-curvature="0" />
      <path
         id="path4562"
         d="m -452.28871,-329.39572 v -3.117 h 2.428 v -17.059 h -2.592 v -3.117 h 6.758 v 12.893 h 2.198 l 2.723,-3.215 h -1.936 v -3.117 h 8.038 v 3.117 h -2.165 l -3.642,4.298 v 0.065 c 0.033,0 0.623,0.295 1.279,1.411 l 2.362,4.134 c 0.229,0.394 0.689,0.59 1.378,0.59 h 0.951 v 3.117 h -3.117 c -1.443,0 -1.968,-0.263 -2.625,-1.443 l -3.018,-5.282 c -0.229,-0.427 -0.722,-0.624 -1.443,-0.624 h -0.984 v 4.232 h 1.804 v 3.117 z"
         inkscape:connector-curvature="0" />
      <path
         id="path4564"
         d="m -430.86471,-349.57172 h -2.592 v -3.117 h 6.726 v 17.715 c 0,1.607 0.394,2.296 1.706,2.296 l 0.788,-0.033 v 3.346 c -0.459,0.066 -0.951,0.099 -1.509,0.099 -1.542,0 -2.789,-0.394 -3.74,-1.148 -0.918,-0.787 -1.378,-2.231 -1.378,-4.297 v -14.861 z"
         inkscape:connector-curvature="0" />
      <path
         id="path4566"
         d="m -421.71071,-329.39572 v -3.117 h 2.427 v -10.498 h -2.591 v -3.117 h 6.758 v 13.615 h 2.395 v 3.117 z m 2.394,-19.585 v -3.707 h 4.199 v 3.707 z"
         inkscape:connector-curvature="0" />
      <path
         id="path4568"
         d="m -408.45671,-344.12572 c 1.411,-1.607 3.28,-2.395 5.544,-2.395 2.822,0 4.265,1.509 4.691,2.1 l 0.131,0.263 h 0.065 c -0.033,-0.328 -0.065,-0.722 -0.065,-1.181 v -4.232 h -2.592 v -3.117 h 6.726 v 19.454 c 0,0.492 0.229,0.722 0.722,0.722 h 1.509 v 3.117 h -3.937 c -1.443,0 -2.132,-0.722 -2.132,-1.771 v -0.197 l 0.098,-0.755 h -0.065 c -0.099,0.164 -0.131,0.394 -0.754,1.083 -0.722,0.886 -2.198,2.034 -4.724,2.034 -2.198,0 -3.97,-0.82 -5.315,-2.428 -1.345,-1.607 -2.001,-3.74 -2.001,-6.332 -0.001,-2.658 0.688,-4.757 2.099,-6.365 z m 6.233,11.613 c 2.395,0 4.232,-1.771 4.232,-5.15 0,-1.477 -0.361,-2.723 -1.083,-3.74 -0.689,-1.017 -1.706,-1.542 -3.018,-1.542 -2.46,0 -4.265,2.001 -4.265,5.183 10e-4,3.15 1.674,5.249 4.134,5.249 z m 13.91,-20.175 c 0.164,0.492 0.262,1.083 0.262,1.706 0,1.936 -1.214,3.477 -3.051,4.232 l -1.607,-1.378 c 0.886,-0.754 1.312,-1.64 1.312,-2.592 0,-0.59 -0.131,-1.247 -0.394,-1.968 z"
         inkscape:connector-curvature="0" />
      <path
         id="path4570"
         d="m -389.19871,-329.39572 v -3.117 h 2.427 v -9.809 c 0,-0.459 -0.229,-0.689 -0.722,-0.689 h -1.87 v -3.117 h 4.363 c 1.476,0 2.198,0.624 2.198,1.87 v 0.754 l -0.065,0.722 h 0.065 c 0.952,-1.969 3.182,-3.74 5.708,-3.74 2.493,0 4.035,1.214 4.658,3.642 h 0.066 c 0.951,-2.067 3.281,-3.642 5.807,-3.642 3.576,0 5.38,2.132 5.38,6.364 v 7.644 h 2.428 v 3.117 h -6.594 v -9.973 c 0,-2.198 -0.492,-3.346 -2.296,-3.346 -1.345,0 -2.395,0.59 -3.149,1.739 -0.754,1.148 -1.116,2.526 -1.116,4.199 v 4.265 h 2.428 v 3.117 h -6.561 v -9.973 c 0,-2.132 -0.459,-3.346 -2.264,-3.346 -1.378,0 -2.428,0.623 -3.182,1.837 -0.755,1.214 -1.116,2.625 -1.116,4.298 v 4.068 h 2.395 v 3.117 h -8.988 z"
         inkscape:connector-curvature="0" />
      <path
         id="path4572"
         d="m -354.48771,-344.05972 c 1.575,-1.64 3.609,-2.46 6.135,-2.46 2.329,0 4.167,0.754 5.479,2.264 1.313,1.477 1.969,3.379 1.969,5.676 l -0.099,1.411 h -11.581 c 0.262,2.985 2.362,4.658 5.02,4.658 1.607,0 3.444,-0.722 4.265,-1.345 l 0.59,-0.426 1.608,2.953 -0.853,0.656 c -0.361,0.262 -1.116,0.623 -2.296,1.05 -1.148,0.426 -2.362,0.623 -3.609,0.623 -2.69,0 -4.855,-0.853 -6.528,-2.526 -1.641,-1.706 -2.46,-3.773 -2.46,-6.233 -10e-4,-2.594 0.786,-4.694 2.36,-6.301 z m 9.285,4.429 c -0.033,-2.231 -1.411,-3.675 -3.248,-3.675 -2.1,0 -3.642,1.444 -4.035,3.675 z"
         inkscape:connector-curvature="0" />
      <path
         id="path4574"
         d="m -330.33971,-334.97272 h 3.543 v 0.984 c 0,1.083 1.443,1.739 3.281,1.739 1.706,0 2.854,-0.624 2.854,-1.706 0,-0.722 -0.361,-1.148 -1.083,-1.509 -0.23,-0.131 -0.886,-0.394 -1.181,-0.525 -0.295,-0.131 -1.181,-0.426 -1.542,-0.558 -1.542,-0.525 -2.362,-0.886 -3.543,-1.673 -1.148,-0.82 -1.739,-1.969 -1.739,-3.51 0,-1.608 0.656,-2.822 1.968,-3.609 1.313,-0.788 2.854,-1.181 4.626,-1.181 1.476,0 2.821,0.295 4.101,0.886 1.279,0.591 1.936,1.443 1.936,2.592 v 2.132 h -3.576 v -0.951 c 0,-0.82 -0.984,-1.378 -2.46,-1.378 -1.411,0 -2.428,0.492 -2.428,1.509 0,0.426 0.164,0.82 0.525,1.148 0.754,0.656 1.443,0.853 2.985,1.345 1.673,0.525 2.428,0.82 3.707,1.64 1.279,0.788 1.87,1.936 1.87,3.51 0,1.607 -0.656,2.887 -2.001,3.773 -1.345,0.886 -3.018,1.312 -5.052,1.312 -3.051,0 -6.791,-1.345 -6.791,-4.035 z"
         inkscape:connector-curvature="0" />
      <path
         id="path4576"
         d="m -314.98571,-343.01072 v -3.117 h 8.038 v 3.117 h -1.87 l 2.887,8.267 c 0.164,0.525 0.361,1.214 0.394,1.575 l 0.033,0.263 h 0.099 c 0.065,-0.656 0.197,-1.279 0.394,-1.837 l 2.92,-8.267 h -1.903 v -3.117 h 8.038 v 3.117 h -2.001 l -5.118,13.615 h -4.79 l -5.085,-13.615 h -2.036 z"
         inkscape:connector-curvature="0" />
      <path
         id="path4578"
         d="m -292.11871,-344.05972 c 1.575,-1.64 3.609,-2.46 6.135,-2.46 2.329,0 4.167,0.754 5.479,2.264 1.313,1.477 1.969,3.379 1.969,5.676 l -0.099,1.411 h -11.581 c 0.262,2.985 2.362,4.658 5.02,4.658 1.607,0 3.444,-0.722 4.265,-1.345 l 0.59,-0.426 1.608,2.953 -0.853,0.656 c -0.361,0.262 -1.116,0.623 -2.296,1.05 -1.148,0.426 -2.362,0.623 -3.609,0.623 -2.69,0 -4.855,-0.853 -6.528,-2.526 -1.641,-1.706 -2.46,-3.773 -2.46,-6.233 -0.002,-2.594 0.785,-4.694 2.36,-6.301 z m 3.97,-4.134 -3.019,-4.462 h 3.478 l 1.641,2.657 h 0.065 l 1.641,-2.657 h 3.477 l -3.018,4.462 z m 5.314,8.563 c -0.033,-2.231 -1.411,-3.675 -3.248,-3.675 -2.1,0 -3.642,1.444 -4.036,3.675 z"
         inkscape:connector-curvature="0" />
      <path
         id="path4580"
         d="m -274.10671,-343.01072 h -2.559 v -3.117 h 2.69 v -4.56 h 4.035 v 4.56 h 3.806 v 3.117 h -3.806 v 7.053 c 0,2.854 2.166,3.248 3.346,3.248 l 0.755,-0.033 v 3.412 c -0.361,0.066 -0.788,0.099 -1.28,0.099 -1.148,0 -2.132,-0.099 -3.478,-0.624 -1.87,-0.722 -3.51,-2.296 -3.51,-5.675 v -7.48 z"
         inkscape:connector-curvature="0" />
      <g
         aria-label="Upracme svet"
         style="font-style:normal;font-variant:normal;font-weight:normal;font-stretch:normal;font-size:32px;line-height:24.99999809px;font-family:Sanchez;-inkscape-font-specification:'Sanchez , Normal';font-variant-ligatures:normal;font-variant-caps:normal;font-variant-numeric:normal;font-feature-settings:normal;text-align:start;writing-mode:lr-tb;text-anchor:start;opacity:1;fill:#000000;fill-opacity:1;fill-rule:evenodd;stroke:#000000;stroke-width:1.51181102;stroke-linecap:round;stroke-linejoin:miter;stroke-miterlimit:4;stroke-dasharray:none;stroke-dashoffset:0;stroke-opacity:1"
         id="text4869">
        <path
           d="m 42.231694,126.33707 c 0,3.52 -1.664,5.952 -5.824,5.952 -4.48,0 -5.888,-2.624 -5.888,-6.144 v -12.064 h 2.464 c 0.256,0 0.416,-0.128 0.416,-0.384 v -1.632 c 0,-0.256 -0.16,-0.384 -0.416,-0.384 h -7.68 c -0.288,0 -0.416,0.128 -0.416,0.384 v 1.632 c 0,0.256 0.16,0.384 0.416,0.384 h 2.432 v 11.968 c 0,5.856 3.232,8.832 8.672,8.832 5.408,0 8.608,-2.976 8.608,-8.832 v -11.968 h 2.464 c 0.256,0 0.384,-0.128 0.384,-0.384 v -1.632 c 0,-0.256 -0.128,-0.384 -0.384,-0.384 h -7.712 c -0.256,0 -0.384,0.128 -0.384,0.384 v 1.632 c 0,0.256 0.128,0.384 0.384,0.384 h 2.464 z"
           style="letter-spacing:0.2px"
           id="path4762" />
        <path
           d="m 54.928195,141.85707 c 0.256,0 0.416,-0.128 0.416,-0.384 v -1.376 c 0,-0.256 -0.16,-0.384 -0.416,-0.384 h -2.08 v -6.496 c 0,-0.448 -0.096,-1.472 -0.096,-1.472 h 0.096 c 0.672,1.536 2.368,3.136 5.216,3.136 4.384,0 7.168,-3.392 7.168,-8.128 0,-4.928 -2.944,-8.064 -7.2,-8.064 -2.88,0 -4.608,1.632 -5.312,3.136 h -0.032 l 0.032,-2.528 c 0,-0.256 -0.16,-0.384 -0.416,-0.384 h -3.744 c -0.256,0 -0.416,0.128 -0.416,0.384 v 1.376 c 0,0.256 0.16,0.384 0.416,0.384 h 1.728 v 18.656 h -1.792 c -0.256,0 -0.416,0.128 -0.416,0.384 v 1.376 c 0,0.256 0.16,0.384 0.416,0.384 z m 2.752,-9.216 c -2.464,0 -4.896,-1.984 -4.896,-5.6 0,-4.224 2.464,-6.112 4.896,-6.112 2.784,0 4.928,2.24 4.928,5.888 0,3.52 -2.112,5.824 -4.928,5.824 z"
           style="letter-spacing:0.2px"
           id="path4764" />
        <path
           d="m 74.308196,134.65707 c 0.256,0 0.416,-0.128 0.416,-0.384 v -1.376 c 0,-0.256 -0.16,-0.384 -0.416,-0.384 h -1.696 v -5.376 c 0,-2.752 2.144,-5.76 6.016,-5.76 h 0.672 c 0.256,0 0.416,-0.16 0.416,-0.416 v -1.696 c 0,-0.256 -0.16,-0.416 -0.416,-0.416 -5.792,0 -6.848,4.448 -6.848,4.448 h -0.096 v -4 c 0,-0.256 -0.16,-0.384 -0.416,-0.384 h -3.744 c -0.256,0 -0.416,0.128 -0.416,0.384 v 1.376 c 0,0.256 0.16,0.384 0.416,0.384 h 1.76 v 11.456 h -1.76 c -0.256,0 -0.416,0.128 -0.416,0.384 v 1.376 c 0,0.256 0.16,0.384 0.416,0.384 z"
           style="letter-spacing:0.2px"
           id="path4766" />
        <path
           d="m 97.067193,134.65707 c 0.256,0 0.384,-0.128 0.384,-0.384 v -1.376 c 0,-0.256 -0.128,-0.384 -0.384,-0.384 h -1.792 v -7.424 c 0,-4.672 -2.592,-6.4 -6.72,-6.4 -4.32,0 -6.08,1.856 -6.24,2.048 -0.192,0.16 -0.224,0.32 -0.064,0.512 l 0.896,1.12 c 0.128,0.16 0.32,0.16 0.48,0.096 0.128,0 1.44,-1.472 4.832,-1.472 2.464,0 4.16,0.96 4.16,4 v 0.384 h -2.688 c -5.056,0 -8.576,1.44 -8.576,5.088 0,2.784 2.272,4.448 5.248,4.448 3.872,0 5.664,-2.432 6.24,-3.232 h 0.064 v 1.632 c 0,0.992 0.448,1.344 1.376,1.344 z m -4.448,-4.768 c -0.736,0.96 -2.528,2.752 -5.216,2.752 -2.016,0 -3.296,-1.088 -3.296,-2.528 0,-2.4 2.656,-2.816 5.984,-2.816 h 2.528 z"
           style="letter-spacing:0.2px"
           id="path4768" />
        <path
           d="m 113.0942,130.04907 c -0.192,-0.16 -0.416,-0.128 -0.544,0.096 -0.448,0.736 -2.336,2.496 -5.088,2.496 -2.656,0 -5.344,-2.08 -5.344,-5.888 0,-3.84 2.848,-5.824 5.248,-5.824 2.784,0 4.512,1.888 4.544,3.264 v 0.544 c 0,0.256 0.16,0.384 0.384,0.384 h 1.472 c 0.224,0 0.384,-0.128 0.384,-0.384 v -5.44 c 0,-0.256 -0.128,-0.416 -0.384,-0.416 h -1.216 c -0.256,0 -0.416,0.16 -0.416,0.416 l 0.032,1.76 h -0.032 c -0.672,-0.96 -2.176,-2.368 -5.088,-2.368 -3.872,0 -7.616003,2.848 -7.616003,8.032 0,5.12 3.552003,8.16 7.872003,8.16 4.224,0 6.432,-2.656 6.816,-3.36 0.128,-0.192 0.128,-0.384 -0.096,-0.576 z"
           style="letter-spacing:0.2px"
           id="path4770" />
        <path
           d="m 143.82419,134.65707 c 0.256,0 0.416,-0.128 0.416,-0.384 v -1.376 c 0,-0.256 -0.16,-0.384 -0.416,-0.384 h -1.792 l -0.032,-8.256 c 0,-3.36 -1.952,-5.568 -5.408,-5.568 -3.296,0 -4.672,1.952 -5.152,2.656 -0.8,-1.664 -2.464,-2.656 -4.768,-2.656 -3.456,0 -4.8,2.144 -5.184,2.784 h -0.096 l 0.064,-1.6 c 0,-0.768 -0.32,-0.96 -1.024,-0.96 h -3.136 c -0.256,0 -0.416,0.128 -0.416,0.384 v 1.376 c 0,0.256 0.16,0.384 0.416,0.384 h 1.76 v 11.456 h -1.76 c -0.256,0 -0.416,0.128 -0.416,0.384 v 1.376 c 0,0.256 0.16,0.384 0.416,0.384 h 5.984 c 0.224,0 0.384,-0.128 0.384,-0.384 v -1.376 c 0,-0.256 -0.128,-0.384 -0.384,-0.384 h -1.568 v -8.768 c 0,0.032 0.992,-2.752 4.256,-2.752 2.368,0 3.52,1.504 3.52,3.904 v 7.616 h -1.696 c -0.256,0 -0.416,0.128 -0.416,0.384 v 1.376 c 0,0.256 0.16,0.384 0.416,0.384 h 6.112 c 0.224,0 0.384,-0.128 0.384,-0.384 v -1.376 c 0,-0.256 -0.128,-0.384 -0.384,-0.384 h -1.792 v -8.032 c 0,-0.416 -0.064,-0.896 -0.192,-1.28 0.48,-0.736 1.6,-2.208 3.968,-2.208 2.368,0 3.488,1.504 3.488,3.904 v 8.416 c 0,0.992 0.448,1.344 1.408,1.344 z"
           style="letter-spacing:0.2px"
           id="path4772" />
        <path
           d="m 160.32019,127.10507 c 0.288,0 0.448,-0.16 0.448,-0.416 0.096,-4.96 -2.56,-8 -7.136,-8 -3.84,0 -7.552,2.848 -7.552,8.032 0,5.12 3.552,8.16 7.872,8.16 4.224,0 6.4,-2.656 6.816,-3.36 0.128,-0.192 0.096,-0.384 -0.128,-0.576 l -0.864,-0.864 c -0.224,-0.16 -0.416,-0.128 -0.576,0.096 -0.448,0.736 -2.336,2.464 -5.088,2.464 -2.528,0 -5.152,-1.792 -5.312,-5.536 z m -11.456,-1.952 c 0.384,-3.072 2.624,-4.352 4.832,-4.352 2.752,0 4.288,1.76 4.416,4.352 z"
           style="letter-spacing:0.2px"
           id="path4774" />
        <path
           d="m 180.7717,134.88107 c 4.256,0 5.888,-2.176 5.888,-4.512 0,-5.376 -9.792,-3.488 -9.792,-7.072 0,-1.632 1.472,-2.496 3.04,-2.496 2.912,0 3.968,1.664 3.968,2.56 v 0.448 c 0,0.256 0.192,0.416 0.448,0.416 h 1.248 c 0.256,0 0.416,-0.16 0.416,-0.416 v -4.448 c 0,-0.256 -0.16,-0.416 -0.416,-0.416 h -1.024 c -0.256,0 -0.416,0.16 -0.416,0.416 0,0.032 0.064,1.184 0.064,1.184 h -0.064 c -0.768,-1.024 -2.144,-1.856 -4.544,-1.856 -3.04,0 -5.344,1.696 -5.344,4.544 0,5.568 9.632,3.904 9.632,7.072 0,1.568 -1.184,2.496 -3.456,2.496 -3.616,0 -4.512,-2.72 -4.512,-2.72 v -0.64 c 0,-0.256 -0.192,-0.416 -0.448,-0.416 h -1.248 c -0.256,0 -0.416,0.16 -0.416,0.416 v 4.8 c 0,0.256 0.16,0.416 0.416,0.416 h 1.088 c 0.256,0 0.448,-0.16 0.448,-0.416 0,-0.096 -0.064,-1.664 -0.064,-1.664 h 0.064 c 0.256,0.544 1.728,2.304 5.024,2.304 z"
           style="letter-spacing:0.2px"
           id="path4776" />
        <path
           d="m 198.6462,134.65707 c 0.448,0 0.576,-0.128 0.736,-0.576 l 5.152,-13.024 h 1.76 c 0.256,0 0.416,-0.128 0.416,-0.384 v -1.376 c 0,-0.256 -0.16,-0.384 -0.416,-0.384 h -5.952 c -0.256,0 -0.384,0.128 -0.384,0.384 v 1.376 c 0,0.256 0.128,0.384 0.384,0.384 h 1.44 l -4.16,10.784 h -0.064 l -4.096,-10.784 h 1.408 c 0.256,0 0.384,-0.128 0.384,-0.384 v -1.376 c 0,-0.256 -0.128,-0.384 -0.384,-0.384 h -5.952 c -0.256,0 -0.384,0.128 -0.384,0.384 v 1.376 c 0,0.256 0.16,0.384 0.384,0.384 h 1.792 l 5.088,13.024 c 0.16,0.448 0.256,0.576 0.704,0.576 z"
           style="letter-spacing:0.2px"
           id="path4778" />
        <path
           d="m 221.99519,127.10507 c 0.288,0 0.448,-0.16 0.448,-0.416 0.096,-4.96 -2.56,-8 -7.136,-8 -3.84,0 -7.552,2.848 -7.552,8.032 0,5.12 3.552,8.16 7.872,8.16 4.224,0 6.4,-2.656 6.816,-3.36 0.128,-0.192 0.096,-0.384 -0.128,-0.576 l -0.864,-0.864 c -0.224,-0.16 -0.416,-0.128 -0.576,0.096 -0.448,0.736 -2.336,2.464 -5.088,2.464 -2.528,0 -5.152,-1.792 -5.312,-5.536 z m -11.456,-1.952 c 0.384,-3.072 2.624,-4.352 4.832,-4.352 2.752,0 4.288,1.76 4.416,4.352 z"
           style="letter-spacing:0.2px"
           id="path4780" />
        <path
           d="m 234.87519,132.03307 c -0.16,-0.192 -0.352,-0.224 -0.576,-0.032 -0.128,0.128 -0.736,0.608 -1.696,0.608 -1.728,0 -2.752,-1.088 -2.752,-3.232 v -8.32 h 4.064 c 0.256,0 0.448,-0.16 0.448,-0.416 v -1.312 c 0,-0.256 -0.192,-0.416 -0.448,-0.416 h -4.064 v -3.232 c 0,-0.256 -0.16,-0.448 -0.416,-0.448 h -1.792 c -0.256,0 -0.448,0.192 -0.448,0.448 v 3.232 h -1.792 c -0.256,0 -0.448,0.16 -0.448,0.416 v 1.312 c 0,0.256 0.192,0.416 0.448,0.416 h 1.792 v 8.384 c 0,3.616 1.952,5.44 5.152,5.44 1.888,0 2.944,-0.992 3.232,-1.248 0.192,-0.192 0.256,-0.416 0.064,-0.608 z"
           style="letter-spacing:0.2px"
           id="path4782" />
      </g>
      <g
         aria-label="Upracme Slovensko"
         style="font-style:normal;font-variant:normal;font-weight:normal;font-stretch:normal;font-size:32px;line-height:24.99999809px;font-family:Sanchez;-inkscape-font-specification:'Sanchez, Normal';font-variant-ligatures:normal;font-variant-caps:normal;font-variant-numeric:normal;font-feature-settings:normal;text-align:start;letter-spacing:0.2px;writing-mode:lr-tb;text-anchor:start;opacity:1;fill:#000000;fill-opacity:1;fill-rule:evenodd;stroke:#000000;stroke-width:1.51181102;stroke-linecap:round;stroke-linejoin:miter;stroke-miterlimit:4;stroke-dasharray:none;stroke-dashoffset:0;stroke-opacity:1"
         id="text4873">
        <path
           d="m 366.51742,127.76566 c 0,3.52 -1.664,5.952 -5.824,5.952 -4.48,0 -5.888,-2.624 -5.888,-6.144 v -12.064 h 2.464 c 0.256,0 0.416,-0.128 0.416,-0.384 v -1.632 c 0,-0.256 -0.16,-0.384 -0.416,-0.384 h -7.68 c -0.288,0 -0.416,0.128 -0.416,0.384 v 1.632 c 0,0.256 0.16,0.384 0.416,0.384 h 2.432 v 11.968 c 0,5.856 3.232,8.832 8.672,8.832 5.408,0 8.608,-2.976 8.608,-8.832 v -11.968 h 2.464 c 0.256,0 0.384,-0.128 0.384,-0.384 v -1.632 c 0,-0.256 -0.128,-0.384 -0.384,-0.384 h -7.712 c -0.256,0 -0.384,0.128 -0.384,0.384 v 1.632 c 0,0.256 0.128,0.384 0.384,0.384 h 2.464 z"
           style=""
           id="path4818" />
        <path
           d="m 379.21392,143.28566 c 0.256,0 0.416,-0.128 0.416,-0.384 v -1.376 c 0,-0.256 -0.16,-0.384 -0.416,-0.384 h -2.08 v -6.496 c 0,-0.448 -0.096,-1.472 -0.096,-1.472 h 0.096 c 0.672,1.536 2.368,3.136 5.216,3.136 4.384,0 7.168,-3.392 7.168,-8.128 0,-4.928 -2.944,-8.064 -7.2,-8.064 -2.88,0 -4.608,1.632 -5.312,3.136 h -0.032 l 0.032,-2.528 c 0,-0.256 -0.16,-0.384 -0.416,-0.384 h -3.744 c -0.256,0 -0.416,0.128 -0.416,0.384 v 1.376 c 0,0.256 0.16,0.384 0.416,0.384 h 1.728 v 18.656 h -1.792 c -0.256,0 -0.416,0.128 -0.416,0.384 v 1.376 c 0,0.256 0.16,0.384 0.416,0.384 z m 2.752,-9.216 c -2.464,0 -4.896,-1.984 -4.896,-5.6 0,-4.224 2.464,-6.112 4.896,-6.112 2.784,0 4.928,2.24 4.928,5.888 0,3.52 -2.112,5.824 -4.928,5.824 z"
           style=""
           id="path4820" />
        <path
           d="m 398.59392,136.08566 c 0.256,0 0.416,-0.128 0.416,-0.384 v -1.376 c 0,-0.256 -0.16,-0.384 -0.416,-0.384 h -1.696 v -5.376 c 0,-2.752 2.144,-5.76 6.016,-5.76 h 0.672 c 0.256,0 0.416,-0.16 0.416,-0.416 v -1.696 c 0,-0.256 -0.16,-0.416 -0.416,-0.416 -5.792,0 -6.848,4.448 -6.848,4.448 h -0.096 v -4 c 0,-0.256 -0.16,-0.384 -0.416,-0.384 h -3.744 c -0.256,0 -0.416,0.128 -0.416,0.384 v 1.376 c 0,0.256 0.16,0.384 0.416,0.384 h 1.76 v 11.456 h -1.76 c -0.256,0 -0.416,0.128 -0.416,0.384 v 1.376 c 0,0.256 0.16,0.384 0.416,0.384 z"
           style=""
           id="path4822" />
        <path
           d="m 421.35292,136.08566 c 0.256,0 0.384,-0.128 0.384,-0.384 v -1.376 c 0,-0.256 -0.128,-0.384 -0.384,-0.384 h -1.792 v -7.424 c 0,-4.672 -2.592,-6.4 -6.72,-6.4 -4.32,0 -6.08,1.856 -6.24,2.048 -0.192,0.16 -0.224,0.32 -0.064,0.512 l 0.896,1.12 c 0.128,0.16 0.32,0.16 0.48,0.096 0.128,0 1.44,-1.472 4.832,-1.472 2.464,0 4.16,0.96 4.16,4 v 0.384 h -2.688 c -5.056,0 -8.576,1.44 -8.576,5.088 0,2.784 2.272,4.448 5.248,4.448 3.872,0 5.664,-2.432 6.24,-3.232 h 0.064 v 1.632 c 0,0.992 0.448,1.344 1.376,1.344 z m -4.448,-4.768 c -0.736,0.96 -2.528,2.752 -5.216,2.752 -2.016,0 -3.296,-1.088 -3.296,-2.528 0,-2.4 2.656,-2.816 5.984,-2.816 h 2.528 z"
           style=""
           id="path4824" />
        <path
           d="m 437.37992,131.47766 c -0.192,-0.16 -0.416,-0.128 -0.544,0.096 -0.448,0.736 -2.336,2.496 -5.088,2.496 -2.656,0 -5.344,-2.08 -5.344,-5.888 0,-3.84 2.848,-5.824 5.248,-5.824 2.784,0 4.512,1.888 4.544,3.264 v 0.544 c 0,0.256 0.16,0.384 0.384,0.384 h 1.472 c 0.224,0 0.384,-0.128 0.384,-0.384 v -5.44 c 0,-0.256 -0.128,-0.416 -0.384,-0.416 h -1.216 c -0.256,0 -0.416,0.16 -0.416,0.416 l 0.032,1.76 h -0.032 c -0.672,-0.96 -2.176,-2.368 -5.088,-2.368 -3.872,0 -7.616,2.848 -7.616,8.032 0,5.12 3.552,8.16 7.872,8.16 4.224,0 6.432,-2.656 6.816,-3.36 0.128,-0.192 0.128,-0.384 -0.096,-0.576 z"
           style=""
           id="path4826" />
        <path
           d="m 468.10992,136.08566 c 0.256,0 0.416,-0.128 0.416,-0.384 v -1.376 c 0,-0.256 -0.16,-0.384 -0.416,-0.384 h -1.792 l -0.032,-8.256 c 0,-3.36 -1.952,-5.568 -5.408,-5.568 -3.296,0 -4.672,1.952 -5.152,2.656 -0.8,-1.664 -2.464,-2.656 -4.768,-2.656 -3.456,0 -4.8,2.144 -5.184,2.784 h -0.096 l 0.064,-1.6 c 0,-0.768 -0.32,-0.96 -1.024,-0.96 h -3.136 c -0.256,0 -0.416,0.128 -0.416,0.384 v 1.376 c 0,0.256 0.16,0.384 0.416,0.384 h 1.76 v 11.456 h -1.76 c -0.256,0 -0.416,0.128 -0.416,0.384 v 1.376 c 0,0.256 0.16,0.384 0.416,0.384 h 5.984 c 0.224,0 0.384,-0.128 0.384,-0.384 v -1.376 c 0,-0.256 -0.128,-0.384 -0.384,-0.384 h -1.568 v -8.768 c 0,0.032 0.992,-2.752 4.256,-2.752 2.368,0 3.52,1.504 3.52,3.904 v 7.616 h -1.696 c -0.256,0 -0.416,0.128 -0.416,0.384 v 1.376 c 0,0.256 0.16,0.384 0.416,0.384 h 6.112 c 0.224,0 0.384,-0.128 0.384,-0.384 v -1.376 c 0,-0.256 -0.128,-0.384 -0.384,-0.384 h -1.792 v -8.032 c 0,-0.416 -0.064,-0.896 -0.192,-1.28 0.48,-0.736 1.6,-2.208 3.968,-2.208 2.368,0 3.488,1.504 3.488,3.904 v 8.416 c 0,0.992 0.448,1.344 1.408,1.344 z"
           style=""
           id="path4828" />
        <path
           d="m 484.60592,128.53366 c 0.288,0 0.448,-0.16 0.448,-0.416 0.096,-4.96 -2.56,-8 -7.136,-8 -3.84,0 -7.552,2.848 -7.552,8.032 0,5.12 3.552,8.16 7.872,8.16 4.224,0 6.4,-2.656 6.816,-3.36 0.128,-0.192 0.096,-0.384 -0.128,-0.576 l -0.864,-0.864 c -0.224,-0.16 -0.416,-0.128 -0.576,0.096 -0.448,0.736 -2.336,2.464 -5.088,2.464 -2.528,0 -5.152,-1.792 -5.312,-5.536 z m -11.456,-1.952 c 0.384,-3.072 2.624,-4.352 4.832,-4.352 2.752,0 4.288,1.76 4.416,4.352 z"
           style=""
           id="path4830" />
        <path
           d="m 500.48143,136.08566 c 0.256,0 0.384,-0.128 0.384,-0.384 l -0.032,-3.136 c 0.832,1.344 3.2,3.744 7.648,3.744 5.664,0 8.032,-3.008 8.032,-6.464 0,-7.872 -14.464,-5.152 -14.464,-10.72 0,-2.048 1.824,-3.584 4.704,-3.584 4.288,0 5.792,2.688 5.792,4 v 0.896 c 0,0.256 0.128,0.384 0.384,0.384 h 2.016 c 0.256,0 0.384,-0.128 0.384,-0.384 v -6.976 c 0,-0.256 -0.128,-0.384 -0.384,-0.384 h -1.792 c -0.256,0 -0.416,0.128 -0.416,0.384 l 0.064,1.984 c -1.12,-1.408 -3.04,-2.528 -6.336,-2.528 -4.672,0 -7.488,2.72 -7.488,6.208 0,8.224 14.208,5.44 14.208,10.72 0,2.464 -1.984,3.872 -5.248,3.872 -5.152,0 -6.848,-4.352 -6.848,-4.832 v -0.672 c 0,-0.256 -0.16,-0.416 -0.384,-0.416 h -2.016 c -0.256,0 -0.416,0.16 -0.416,0.416 v 7.488 c 0,0.256 0.128,0.384 0.416,0.384 z"
           style=""
           id="path4832" />
        <path
           d="m 525.93142,136.08566 c 0.256,0 0.416,-0.128 0.416,-0.384 v -1.376 c 0,-0.256 -0.16,-0.384 -0.416,-0.384 h -1.696 v -20.032 c 0,-0.544 -0.224,-0.8 -0.864,-0.8 h -3.552 c -0.256,0 -0.416,0.128 -0.416,0.384 v 1.376 c 0,0.256 0.16,0.384 0.416,0.384 h 1.76 v 18.688 h -1.76 c -0.256,0 -0.416,0.128 -0.416,0.384 v 1.376 c 0,0.256 0.16,0.384 0.416,0.384 z"
           style=""
           id="path4834" />
        <path
           d="m 536.75892,136.30966 c 4.576,0 7.968,-3.168 7.968,-8.16 0,-4.992 -3.488,-8.032 -7.936,-8.032 -4.448,0 -8,2.976 -8,8.032 0,5.024 3.424,8.16 7.968,8.16 z m 0,-2.24 c -2.848,0 -5.28,-2.272 -5.28,-5.888 0,-3.648 2.528,-5.824 5.312,-5.824 2.752,0 5.28,2.176 5.28,5.824 0,3.616 -2.432,5.888 -5.312,5.888 z"
           style=""
           id="path4836" />
        <path
           d="m 555.83192,136.08566 c 0.448,0 0.576,-0.128 0.736,-0.576 l 5.152,-13.024 h 1.76 c 0.256,0 0.416,-0.128 0.416,-0.384 v -1.376 c 0,-0.256 -0.16,-0.384 -0.416,-0.384 h -5.952 c -0.256,0 -0.384,0.128 -0.384,0.384 v 1.376 c 0,0.256 0.128,0.384 0.384,0.384 h 1.44 l -4.16,10.784 h -0.064 l -4.096,-10.784 h 1.408 c 0.256,0 0.384,-0.128 0.384,-0.384 v -1.376 c 0,-0.256 -0.128,-0.384 -0.384,-0.384 h -5.952 c -0.256,0 -0.384,0.128 -0.384,0.384 v 1.376 c 0,0.256 0.16,0.384 0.384,0.384 h 1.792 l 5.088,13.024 c 0.16,0.448 0.256,0.576 0.704,0.576 z"
           style=""
           id="path4838" />
        <path
           d="m 579.18091,128.53366 c 0.288,0 0.448,-0.16 0.448,-0.416 0.096,-4.96 -2.56,-8 -7.136,-8 -3.84,0 -7.552,2.848 -7.552,8.032 0,5.12 3.552,8.16 7.872,8.16 4.224,0 6.4,-2.656 6.816,-3.36 0.128,-0.192 0.096,-0.384 -0.128,-0.576 l -0.864,-0.864 c -0.224,-0.16 -0.416,-0.128 -0.576,0.096 -0.448,0.736 -2.336,2.464 -5.088,2.464 -2.528,0 -5.152,-1.792 -5.312,-5.536 z m -11.456,-1.952 c 0.384,-3.072 2.624,-4.352 4.832,-4.352 2.752,0 4.288,1.76 4.416,4.352 z"
           style=""
           id="path4840" />
        <path
           d="m 599.35243,136.08566 c 0.256,0 0.416,-0.128 0.416,-0.384 v -1.376 c 0,-0.256 -0.16,-0.384 -0.416,-0.384 h -1.792 v -8.256 c -0.032,-3.36 -2.016,-5.568 -5.472,-5.568 -3.456,0 -4.768,2.144 -5.152,2.784 h -0.096 l 0.064,-2.176 c 0,-0.256 -0.16,-0.384 -0.416,-0.384 h -3.744 c -0.256,0 -0.416,0.128 -0.416,0.384 v 1.376 c 0,0.256 0.16,0.384 0.416,0.384 h 1.76 v 11.456 h -1.76 c -0.256,0 -0.416,0.128 -0.416,0.384 v 1.376 c 0,0.256 0.16,0.384 0.416,0.384 h 6.112 c 0.256,0 0.416,-0.128 0.416,-0.384 v -1.376 c 0,-0.256 -0.16,-0.384 -0.416,-0.384 h -1.696 v -8.8 c 0.032,-0.032 1.024,-2.72 4.256,-2.72 2.368,0 3.52,1.504 3.52,3.904 v 8.416 c 0,0.992 0.448,1.344 1.376,1.344 z"
           style=""
           id="path4842" />
        <path
           d="m 608.94492,136.30966 c 4.256,0 5.888,-2.176 5.888,-4.512 0,-5.376 -9.792,-3.488 -9.792,-7.072 0,-1.632 1.472,-2.496 3.04,-2.496 2.912,0 3.968,1.664 3.968,2.56 v 0.448 c 0,0.256 0.192,0.416 0.448,0.416 h 1.248 c 0.256,0 0.416,-0.16 0.416,-0.416 v -4.448 c 0,-0.256 -0.16,-0.416 -0.416,-0.416 h -1.024 c -0.256,0 -0.416,0.16 -0.416,0.416 0,0.032 0.064,1.184 0.064,1.184 h -0.064 c -0.768,-1.024 -2.144,-1.856 -4.544,-1.856 -3.04,0 -5.344,1.696 -5.344,4.544 0,5.568 9.632,3.904 9.632,7.072 0,1.568 -1.184,2.496 -3.456,2.496 -3.616,0 -4.512,-2.72 -4.512,-2.72 v -0.64 c 0,-0.256 -0.192,-0.416 -0.448,-0.416 h -1.248 c -0.256,0 -0.416,0.16 -0.416,0.416 v 4.8 c 0,0.256 0.16,0.416 0.416,0.416 h 1.088 c 0.256,0 0.448,-0.16 0.448,-0.416 0,-0.096 -0.064,-1.664 -0.064,-1.664 h 0.064 c 0.256,0.544 1.728,2.304 5.024,2.304 z"
           style=""
           id="path4844" />
        <path
           d="m 634.18992,136.08566 c 0.224,0 0.384,-0.128 0.384,-0.384 v -1.376 c 0,-0.256 -0.128,-0.384 -0.384,-0.384 h -1.376 l -5.984,-8.032 3.904,-3.424 h 2.08 c 0.256,0 0.384,-0.128 0.384,-0.384 v -1.376 c 0,-0.256 -0.128,-0.384 -0.384,-0.384 h -6.144 c -0.256,0 -0.384,0.128 -0.384,0.384 v 1.376 c 0,0.256 0.128,0.384 0.384,0.384 h 1.152 l -5.824,5.344 v -14.336 c 0,-0.256 -0.128,-0.384 -0.384,-0.384 h -4.032 c -0.256,0 -0.416,0.128 -0.416,0.384 v 1.376 c 0,0.256 0.16,0.384 0.416,0.384 h 1.76 v 18.688 h -1.76 c -0.256,0 -0.416,0.128 -0.416,0.384 v 1.376 c 0,0.256 0.16,0.384 0.416,0.384 h 6.112 c 0.256,0 0.416,-0.128 0.416,-0.384 v -1.376 c 0,-0.256 -0.16,-0.384 -0.416,-0.384 h -1.696 v -3.648 l 3.104,-2.88 5.664,7.68 c 0.448,0.64 1.024,0.992 1.696,0.992 z"
           style=""
           id="path4846" />
        <path
           d="m 643.27143,136.30966 c 4.576,0 7.968,-3.168 7.968,-8.16 0,-4.992 -3.488,-8.032 -7.936,-8.032 -4.448,0 -8,2.976 -8,8.032 0,5.024 3.424,8.16 7.968,8.16 z m 0,-2.24 c -2.848,0 -5.28,-2.272 -5.28,-5.888 0,-3.648 2.528,-5.824 5.312,-5.824 2.752,0 5.28,2.176 5.28,5.824 0,3.616 -2.432,5.888 -5.312,5.888 z"
           style=""
           id="path4848" />
      </g>
      <g
         id="g4944">
        <g
           id="g4500">
          <circle
             id="circle4486"
             r="17.065001"
             cy="94.200996"
             cx="275.63501"
             style="fill:#ffffff" />
          <circle
             id="circle4488"
             r="17.065001"
             cy="90.831001"
             cx="306.31799"
             style="fill:#ffffff" />
          <circle
             id="circle4490"
             r="17.065001"
             cy="116.062"
             cx="324.50699"
             style="fill:#ffffff" />
          <circle
             id="circle4492"
             r="17.065001"
             cy="144.545"
             cx="312.362"
             style="fill:#ffffff" />
          <circle
             id="circle4494"
             r="17.065001"
             cy="148.959"
             cx="281.82001"
             style="fill:#ffffff" />
          <circle
             id="circle4496"
             r="17.065001"
             cy="123.804"
             cx="263.76099"
             style="fill:#ffffff" />
          <ellipse
             id="ellipse4498"
             ry="22.129"
             rx="21.375999"
             cy="118.903"
             cx="294.25"
             style="fill:#ffffff" />
        </g>
        <path
           id="path4502"
           d="m 297.965,144.508 c 0.154,-8.322 6.736,-14.71 14.972,-14.633 7.987,0.074 14.891,6.935 14.496,15.664 -0.346,7.67 -7.066,14.103 -14.981,13.968 -8.139,-0.138 -14.637,-6.865 -14.487,-14.999 z"
           inkscape:connector-curvature="0"
           style="fill:#a9bd5b" />
        <path
           id="path4504"
           d="m 306.257,105.757 c -8.176,-0.012 -14.703,-6.65 -14.69,-14.938 0.014,-8.168 6.657,-14.672 14.967,-14.653 7.999,0.019 14.585,6.701 14.581,14.795 -0.003,8.202 -6.636,14.808 -14.858,14.796 z"
           inkscape:connector-curvature="0"
           style="fill:#885d40" />
        <path
           id="path4506"
           d="m 278.527,124.007 c -0.023,8.235 -6.595,14.752 -14.871,14.744 -8.186,-0.007 -14.649,-6.63 -14.614,-14.974 0.034,-8.081 6.662,-14.673 14.705,-14.625 8.273,0.049 14.803,6.612 14.78,14.855 z"
           inkscape:connector-curvature="0"
           style="fill:#158c46" />
        <path
           id="path4508"
           d="m 339.305,116.216 c 10e-4,8.269 -6.536,14.796 -14.813,14.79 -8.088,-0.006 -14.821,-6.77 -14.736,-14.803 0.087,-8.256 6.675,-14.802 14.882,-14.79 8.147,0.012 14.666,6.593 14.667,14.803 z"
           inkscape:connector-curvature="0"
           style="fill:#ed902a" />
        <path
           id="path4510"
           d="m 292.993,109.545 c 0.966,1.517 1.95,2.876 2.73,4.344 0.648,1.219 1.211,1.144 2.01,0.226 0.264,-0.303 0.612,-0.533 0.921,-0.797 1.6,-1.366 1.6,-1.366 2.509,0.457 1.189,2.384 1.189,2.384 3.475,1.002 0.347,-0.21 0.699,-0.413 1.049,-0.619 1.595,-0.938 1.595,-0.938 2.28,0.726 2.327,5.66 0.83,12.399 -3.674,16.528 -4.605,4.223 -11.408,5.115 -16.878,2.213 -5.461,-2.897 -8.606,-8.976 -7.782,-15.041 0.217,-1.602 0.217,-1.602 1.646,-0.908 2.317,1.126 2.484,1.186 3.363,-1.246 0.878,-2.429 2.151,-3.807 4.894,-3.198 1.219,0.271 1.913,-0.301 2.319,-1.446 0.267,-0.747 0.718,-1.43 1.138,-2.241 z"
           inkscape:connector-curvature="0"
           style="fill:#106db1" />
        <path
           id="path4512"
           d="m 281.873,163.897 c -8.154,0.035 -14.865,-6.638 -14.799,-14.677 0.007,-0.816 0.092,-1.224 1.08,-1.098 1.578,0.201 2.66,-0.553 3.325,-2.003 0.658,-1.434 1.279,-2.894 2.213,-4.183 1.516,-2.092 3.011,-2.517 5.41,-1.555 1.443,0.578 2.787,1.378 3.883,2.439 2.803,2.717 6.209,2.815 9.747,2.487 0.626,-0.058 1.275,-0.146 1.853,-0.374 1.017,-0.4 1.411,-0.236 1.672,0.944 2.037,9.193 -4.943,17.981 -14.384,18.02 z"
           inkscape:connector-curvature="0"
           style="fill:#e0292b" />
        <path
           id="path4514"
           d="m 263.232,94.318 c 6.003,-0.047 11.446,-1.935 15.688,-6.625 0.679,-0.75 1.058,-0.714 1.663,-0.02 0.442,0.507 0.996,0.917 1.501,1.369 1.941,1.737 4.181,2.253 6.677,1.563 0.79,-0.219 1.18,-0.126 1.372,0.779 1.966,9.275 -5.407,18.135 -14.895,17.861 -7.522,-0.218 -13.761,-6.167 -14.34,-13.672 -0.103,-1.332 -0.103,-1.332 2.334,-1.255 z"
           inkscape:connector-curvature="0"
           style="fill:#e45b2c" />
        <path
           id="path4516"
           d="m 286.653,89.778 c -1.44,0.124 -2.636,-0.585 -3.735,-1.497 -0.765,-0.634 -1.532,-1.278 -2.211,-1.999 -0.808,-0.859 -1.318,-0.83 -2.13,0.116 -4.342,5.062 -9.968,7.084 -16.541,6.744 -0.755,-0.039 -1.093,-0.168 -0.973,-1.098 0.788,-6.14 6.218,-11.506 12.56,-12.319 6.602,-0.846 13.253,2.897 15.552,8.71 0.281,0.711 0.151,0.95 -0.573,1.105 -0.625,0.135 -1.239,0.244 -1.949,0.238 z"
           inkscape:connector-curvature="0"
           style="fill:#e45b2c" />
        <path
           id="path4518"
           d="m 289.882,144.323 c -2.012,0.156 -4.06,-0.51 -5.866,-2.122 -1.343,-1.198 -2.86,-2.205 -4.571,-2.867 -2.91,-1.126 -4.911,-0.525 -6.704,2.035 -0.886,1.264 -1.487,2.68 -2.171,4.052 -0.218,0.438 -0.468,0.899 -0.819,1.222 -0.626,0.575 -1.511,0.613 -2.175,0.29 -0.649,-0.316 -0.171,-1.053 -0.032,-1.576 1.604,-6.071 6.559,-10.32 12.832,-11.031 5.808,-0.658 11.692,2.523 14.496,7.838 0.719,1.362 0.671,1.485 -0.867,1.816 -1.24,0.269 -2.498,0.399 -4.123,0.343 z"
           inkscape:connector-curvature="0"
           style="fill:#e0292b" />
        <path
           id="path4520"
           d="m 292.859,107.26 c -0.746,1.48 -1.418,2.739 -2.017,4.032 -0.287,0.618 -0.675,0.987 -1.348,0.821 -3.451,-0.855 -4.938,1.131 -5.907,3.976 -0.134,0.392 -0.228,1.204 -0.841,1.02 -0.841,-0.252 -1.608,-0.773 -2.363,-1.249 -0.081,-0.051 0.096,-0.586 0.216,-0.869 2.224,-5.257 6.18,-8.424 11.809,-9.156 5.52,-0.718 10.079,1.303 13.616,5.629 0.574,0.702 0.383,0.986 -0.317,1.41 -2.898,1.756 -2.884,1.78 -4.39,-1.244 -0.716,-1.438 -0.697,-1.414 -1.953,-0.414 -0.867,0.69 -1.693,2.143 -2.56,1.916 -0.811,-0.213 -1.29,-1.717 -1.902,-2.662 -0.652,-1.007 -1.289,-2.024 -2.043,-3.21 z"
           inkscape:connector-curvature="0"
           style="fill:#106db1" />
        <path
           id="path4522"
           d="m 313.927,155.189 c -3.41,-0.081 -5.981,-1.549 -8.242,-3.687 -0.305,-0.289 -0.595,-0.708 -0.252,-1.06 0.447,-0.458 0.802,0.008 1.113,0.319 1.033,1.029 2.207,1.87 3.53,2.467 3.629,1.639 7.123,0.804 9.996,-2.366 0.91,-1.004 1.717,-2.09 2.411,-3.256 0.242,-0.406 0.513,-0.848 1.044,-0.524 0.512,0.312 0.145,0.717 -0.06,1.044 -2.002,3.198 -4.307,6.039 -8.268,6.88 -0.481,0.102 -0.976,0.141 -1.272,0.183 z"
           inkscape:connector-curvature="0"
           style="fill:#fdfdfc" />
        <path
           id="path4524"
           d="m 315.647,140.319 c 0.023,-1.051 0.657,-1.564 1.615,-1.636 0.937,-0.071 1.736,0.802 1.672,1.748 -0.068,1.004 -0.654,1.58 -1.64,1.646 -0.931,0.062 -1.667,-0.772 -1.647,-1.758 z"
           inkscape:connector-curvature="0"
           style="fill:#fcfdfa" />
        <path
           id="path4526"
           d="m 307.302,144.733 c -0.894,-0.106 -1.488,-0.653 -1.605,-1.625 -0.11,-0.917 0.707,-1.738 1.665,-1.752 0.909,-0.014 1.774,0.826 1.702,1.737 -0.079,0.997 -0.691,1.526 -1.762,1.64 z"
           inkscape:connector-curvature="0"
           style="fill:#fcfdfb" />
        <path
           id="path4528"
           d="m 314.235,82.529 c 0.257,-0.005 0.568,0.059 0.608,0.466 0.05,0.497 -0.363,0.591 -0.702,0.667 -1.892,0.424 -3.79,0.825 -5.686,1.233 -1.878,0.404 -1.885,0.407 -1.039,2.068 1.31,2.572 2.605,5.152 3.963,7.699 0.399,0.748 0.319,1.054 -0.518,1.299 -1.338,0.391 -2.639,0.91 -3.963,1.353 -0.368,0.123 -0.846,0.34 -1.034,-0.22 -0.177,-0.526 0.268,-0.691 0.661,-0.831 0.934,-0.332 1.852,-0.723 2.808,-0.971 0.811,-0.21 0.863,-0.502 0.492,-1.204 -1.473,-2.792 -2.863,-5.628 -4.342,-8.417 -0.442,-0.833 -0.496,-1.192 0.603,-1.395 2.481,-0.459 4.936,-1.058 7.402,-1.599 0.221,-0.048 0.443,-0.088 0.747,-0.148 z"
           inkscape:connector-curvature="0"
           style="fill:#fcfcfc" />
        <path
           id="path4530"
           d="m 314.351,87.808 c -0.066,0.89 -0.614,1.456 -1.613,1.519 -0.963,0.061 -1.731,-0.715 -1.695,-1.688 0.037,-1.02 0.625,-1.572 1.612,-1.644 0.956,-0.07 1.709,0.719 1.696,1.813 z"
           inkscape:connector-curvature="0"
           style="fill:#fbfbfa" />
        <path
           id="path4532"
           d="m 301.707,90.977 c -0.974,0.035 -1.784,-0.698 -1.759,-1.647 0.027,-1.008 0.614,-1.583 1.579,-1.702 0.944,-0.116 1.702,0.66 1.716,1.658 0.013,0.976 -0.605,1.657 -1.536,1.691 z"
           inkscape:connector-curvature="0"
           style="fill:#fcfbfa" />
        <path
           id="path4534"
           d="m 262.865,135.638 c -1.861,-0.126 -3.671,-0.433 -5.103,-1.794 -1.631,-1.55 -1.564,-3.603 0.145,-5.042 2.552,-2.149 7.572,-2.15 10.099,-0.002 1.686,1.433 1.757,3.544 0.134,5.058 -1.479,1.378 -3.335,1.69 -5.275,1.78 z"
           inkscape:connector-curvature="0"
           style="fill:#fcfdfc" />
        <path
           id="path4536"
           d="m 258.779,114.951 c 0.957,0.011 1.744,0.805 1.65,1.75 -0.098,0.982 -0.666,1.558 -1.683,1.578 -0.955,0.019 -1.7,-0.789 -1.654,-1.746 0.044,-0.9 0.782,-1.593 1.687,-1.582 z"
           inkscape:connector-curvature="0"
           style="fill:#fafcfa" />
        <path
           id="path4538"
           d="m 270.387,117.216 c 0.023,0.987 -0.696,1.737 -1.679,1.697 -1.006,-0.041 -1.581,-0.572 -1.614,-1.604 -0.032,-0.984 0.706,-1.743 1.658,-1.732 0.892,0.011 1.614,0.734 1.635,1.639 z"
           inkscape:connector-curvature="0"
           style="fill:#fafcfb" />
        <path
           id="path4540"
           d="m 326.66,113.79 c 0.274,-0.697 -0.095,-1.096 -0.701,-1.361 -0.625,-0.274 -1.226,-0.26 -1.785,0.178 -0.566,0.444 -0.284,0.941 -0.142,1.472 0.811,3.047 -0.879,5.862 -3.884,6.516 -2.717,0.591 -5.527,-1.339 -6.028,-4.143 -0.518,-2.895 1.492,-5.563 4.54,-5.975 1.264,-0.171 2.432,0.193 3.443,0.944 0.585,0.435 1.023,0.722 1.72,0.111 0.606,-0.532 1.529,-0.608 2.188,-0.232 1.02,0.582 1.432,0.106 2.048,-0.609 1.504,-1.746 4.013,-2.123 6.068,-1.05 1.956,1.021 3.085,3.359 2.646,5.479 -0.484,2.336 -2.413,4.039 -4.725,4.173 -2.237,0.129 -4.289,-1.232 -5.063,-3.353 -0.253,-0.689 -0.347,-1.399 -0.325,-2.15 z"
           inkscape:connector-curvature="0"
           style="fill:#fdfdfc" />
        <path
           id="path4542"
           d="m 298.315,118.72 c 0.091,-0.838 0.657,-1.415 1.63,-1.5 0.92,-0.081 1.686,0.762 1.67,1.728 -0.017,1.056 -0.645,1.567 -1.604,1.651 -0.936,0.081 -1.721,-0.771 -1.696,-1.879 z"
           inkscape:connector-curvature="0"
           style="fill:#f8fbfc" />
        <path
           id="path4544"
           d="m 290.235,121.54 c -1.209,0.024 -2.004,-0.709 -1.94,-1.662 0.066,-0.982 0.61,-1.576 1.628,-1.628 0.952,-0.048 1.766,0.732 1.708,1.679 -0.06,0.983 -0.589,1.57 -1.396,1.611 z"
           inkscape:connector-curvature="0"
           style="fill:#fbfcfc" />
        <path
           id="path4546"
           d="m 277.387,150.782 c -1.092,-0.036 -1.816,-0.819 -1.747,-1.79 0.074,-1.029 0.697,-1.535 1.682,-1.562 0.927,-0.025 1.772,0.875 1.643,1.765 -0.137,0.951 -0.704,1.527 -1.578,1.587 z"
           inkscape:connector-curvature="0"
           style="fill:#fdfafa" />
        <path
           id="path4548"
           d="m 286.694,149.05 c 1.125,0.145 1.682,0.727 1.611,1.822 -0.068,1.044 -0.705,1.522 -1.689,1.523 -0.958,0 -1.701,-0.848 -1.59,-1.794 0.117,-1 0.756,-1.474 1.668,-1.551 z"
           inkscape:connector-curvature="0"
           style="fill:#fdfbfa" />
        <path
           id="path4550"
           d="m 272.088,96.865 c -0.047,1.029 -0.593,1.623 -1.569,1.742 -0.881,0.108 -1.772,-0.767 -1.787,-1.663 -0.015,-0.892 0.84,-1.788 1.727,-1.714 0.98,0.082 1.547,0.653 1.629,1.635 z"
           inkscape:connector-curvature="0"
           style="fill:#fdfbfa" />
        <path
           id="path4552"
           d="m 280.235,95.296 c -1.126,-0.016 -1.793,-0.728 -1.739,-1.746 0.056,-1.039 0.679,-1.538 1.655,-1.583 0.942,-0.044 1.693,0.785 1.63,1.753 -0.066,1.026 -0.683,1.504 -1.546,1.576 z"
           inkscape:connector-curvature="0"
           style="fill:#fdfbfa" />
        <path
           id="path4554"
           d="m 263.077,128.275 c 1.511,0.064 3.001,0.36 4.219,1.413 1.265,1.094 1.242,2.34 -0.013,3.446 -2.096,1.846 -6.597,1.839 -8.69,-0.013 -1.22,-1.08 -1.233,-2.396 0.025,-3.451 1.267,-1.064 2.802,-1.362 4.459,-1.395 z"
           inkscape:connector-curvature="0"
           style="fill:#158d46" />
        <path
           id="path4556"
           d="m 323.144,115.494 c 0.017,2.237 -1.783,4.091 -3.986,4.105 -2.109,0.013 -3.979,-1.828 -4.013,-3.951 -0.034,-2.176 1.836,-4.102 4.003,-4.124 2.102,-0.021 3.979,1.844 3.996,3.97 z"
           inkscape:connector-curvature="0"
           style="fill:#ed912a" />
        <path
           id="path4558"
           d="m 331.821,110.143 c 2.094,0.025 3.943,1.906 3.951,4.018 0.007,2.153 -1.943,4.089 -4.072,4.041 -2.221,-0.05 -3.957,-1.901 -3.899,-4.158 0.057,-2.179 1.859,-3.927 4.02,-3.901 z"
           inkscape:connector-curvature="0"
           style="fill:#ed912a" />
      </g>
      <g
         id="g4622">
        <circle
           style="fill:#ffffff"
           cx="275.63501"
           cy="280.86801"
           r="17.065001"
           id="circle4608" />
        <circle
           style="fill:#ffffff"
           cx="306.31799"
           cy="277.49701"
           r="17.065001"
           id="circle4610" />
        <circle
           style="fill:#ffffff"
           cx="324.50699"
           cy="302.729"
           r="17.065001"
           id="circle4612" />
        <circle
           style="fill:#ffffff"
           cx="312.362"
           cy="331.211"
           r="17.065001"
           id="circle4614" />
        <circle
           style="fill:#ffffff"
           cx="281.82001"
           cy="335.62601"
           r="17.065001"
           id="circle4616" />
        <circle
           style="fill:#ffffff"
           cx="263.76099"
           cy="310.47101"
           r="17.065001"
           id="circle4618" />
        <ellipse
           style="fill:#ffffff"
           cx="294.25"
           cy="305.57001"
           rx="21.375999"
           ry="22.129"
           id="ellipse4620" />
      </g>
      <path
         style="fill:#a9bd5b"
         inkscape:connector-curvature="0"
         d="m 297.965,331.175 c 0.154,-8.322 6.736,-14.71 14.972,-14.633 7.987,0.074 14.891,6.935 14.496,15.664 -0.346,7.671 -7.066,14.103 -14.981,13.968 -8.139,-0.138 -14.637,-6.865 -14.487,-14.999 z"
         id="path4624" />
      <path
         style="fill:#885d40"
         inkscape:connector-curvature="0"
         d="m 306.257,292.424 c -8.176,-0.012 -14.703,-6.65 -14.69,-14.938 0.014,-8.168 6.657,-14.672 14.967,-14.653 7.999,0.019 14.585,6.701 14.581,14.794 -0.003,8.203 -6.636,14.808 -14.858,14.797 z"
         id="path4626" />
      <path
         style="fill:#158c46"
         inkscape:connector-curvature="0"
         d="m 278.527,310.674 c -0.023,8.235 -6.595,14.752 -14.871,14.745 -8.186,-0.007 -14.649,-6.63 -14.614,-14.974 0.034,-8.081 6.662,-14.673 14.705,-14.625 8.273,0.048 14.803,6.61 14.78,14.854 z"
         id="path4628" />
      <path
         style="fill:#ed902a"
         inkscape:connector-curvature="0"
         d="m 339.306,302.883 c 0.001,8.269 -6.536,14.796 -14.813,14.79 -8.088,-0.006 -14.821,-6.77 -14.736,-14.803 0.087,-8.256 6.675,-14.802 14.882,-14.79 8.146,0.011 14.666,6.592 14.667,14.803 z"
         id="path4630" />
      <path
         style="fill:#106db1"
         inkscape:connector-curvature="0"
         d="m 292.993,296.212 c 0.966,1.517 1.95,2.876 2.73,4.344 0.648,1.219 1.211,1.144 2.01,0.226 0.264,-0.303 0.612,-0.533 0.921,-0.797 1.6,-1.366 1.6,-1.366 2.509,0.457 1.189,2.384 1.189,2.384 3.475,1.002 0.347,-0.21 0.699,-0.413 1.049,-0.619 1.595,-0.938 1.595,-0.938 2.28,0.726 2.327,5.66 0.83,12.399 -3.674,16.528 -4.606,4.223 -11.408,5.115 -16.878,2.213 -5.461,-2.897 -8.606,-8.976 -7.782,-15.041 0.217,-1.602 0.217,-1.602 1.646,-0.908 2.317,1.126 2.484,1.186 3.363,-1.246 0.878,-2.429 2.151,-3.807 4.894,-3.198 1.219,0.271 1.913,-0.301 2.319,-1.446 0.267,-0.748 0.718,-1.43 1.138,-2.241 z"
         id="path4632" />
      <path
         style="fill:#e0292b"
         inkscape:connector-curvature="0"
         d="m 281.874,350.564 c -8.154,0.035 -14.865,-6.638 -14.799,-14.677 0.007,-0.816 0.092,-1.224 1.08,-1.098 1.578,0.201 2.66,-0.553 3.325,-2.003 0.658,-1.434 1.279,-2.894 2.213,-4.183 1.516,-2.092 3.011,-2.517 5.41,-1.555 1.443,0.578 2.788,1.378 3.883,2.439 2.803,2.717 6.209,2.815 9.747,2.487 0.626,-0.058 1.275,-0.146 1.853,-0.374 1.017,-0.4 1.411,-0.236 1.672,0.944 2.036,9.192 -4.944,17.98 -14.384,18.02 z"
         id="path4634" />
      <path
         style="fill:#e45b2c"
         inkscape:connector-curvature="0"
         d="m 263.232,280.984 c 6.003,-0.047 11.446,-1.935 15.688,-6.625 0.679,-0.75 1.058,-0.714 1.663,-0.02 0.442,0.507 0.996,0.917 1.501,1.369 1.941,1.737 4.181,2.253 6.677,1.563 0.79,-0.219 1.18,-0.126 1.372,0.779 1.966,9.275 -5.407,18.135 -14.895,17.861 -7.522,-0.218 -13.761,-6.167 -14.34,-13.672 -0.103,-1.332 -0.103,-1.332 2.334,-1.255 z"
         id="path4636" />
      <path
         style="fill:#e45b2c"
         inkscape:connector-curvature="0"
         d="m 286.653,276.445 c -1.44,0.124 -2.636,-0.585 -3.735,-1.497 -0.765,-0.634 -1.532,-1.278 -2.211,-1.999 -0.808,-0.859 -1.318,-0.83 -2.13,0.116 -4.342,5.062 -9.968,7.084 -16.541,6.744 -0.755,-0.039 -1.093,-0.168 -0.973,-1.098 0.788,-6.14 6.218,-11.506 12.56,-12.319 6.602,-0.846 13.253,2.897 15.552,8.71 0.281,0.711 0.151,0.95 -0.573,1.105 -0.624,0.135 -1.239,0.244 -1.949,0.238 z"
         id="path4638" />
      <path
         style="fill:#e0292b"
         inkscape:connector-curvature="0"
         d="m 289.882,330.99 c -2.012,0.156 -4.06,-0.51 -5.866,-2.122 -1.343,-1.198 -2.86,-2.205 -4.571,-2.867 -2.91,-1.126 -4.911,-0.525 -6.704,2.035 -0.886,1.264 -1.487,2.68 -2.171,4.052 -0.218,0.438 -0.468,0.899 -0.819,1.222 -0.626,0.575 -1.511,0.613 -2.175,0.29 -0.649,-0.316 -0.17,-1.053 -0.032,-1.576 1.604,-6.071 6.559,-10.32 12.832,-11.031 5.808,-0.658 11.692,2.523 14.496,7.838 0.719,1.362 0.671,1.485 -0.867,1.816 -1.24,0.268 -2.498,0.399 -4.123,0.343 z"
         id="path4640" />
      <path
         style="fill:#106db1"
         inkscape:connector-curvature="0"
         d="m 292.859,293.926 c -0.746,1.48 -1.418,2.739 -2.017,4.032 -0.287,0.618 -0.675,0.987 -1.348,0.821 -3.451,-0.855 -4.938,1.131 -5.907,3.976 -0.134,0.392 -0.228,1.204 -0.841,1.02 -0.841,-0.252 -1.608,-0.773 -2.363,-1.249 -0.081,-0.051 0.096,-0.586 0.216,-0.869 2.224,-5.257 6.18,-8.424 11.809,-9.156 5.52,-0.718 10.079,1.303 13.616,5.629 0.574,0.702 0.383,0.986 -0.317,1.41 -2.898,1.756 -2.884,1.78 -4.39,-1.244 -0.716,-1.438 -0.697,-1.414 -1.953,-0.414 -0.867,0.69 -1.693,2.143 -2.56,1.916 -0.811,-0.213 -1.29,-1.717 -1.902,-2.662 -0.652,-1.006 -1.289,-2.023 -2.043,-3.21 z"
         id="path4642" />
      <path
         style="fill:#fdfdfc"
         inkscape:connector-curvature="0"
         d="m 313.927,341.856 c -3.41,-0.081 -5.981,-1.549 -8.242,-3.687 -0.305,-0.289 -0.595,-0.708 -0.252,-1.06 0.447,-0.458 0.802,0.008 1.113,0.319 1.033,1.029 2.207,1.87 3.53,2.467 3.629,1.639 7.123,0.804 9.996,-2.366 0.91,-1.004 1.717,-2.09 2.411,-3.256 0.242,-0.406 0.513,-0.848 1.044,-0.524 0.512,0.312 0.145,0.717 -0.06,1.044 -2.002,3.198 -4.307,6.039 -8.268,6.88 -0.481,0.102 -0.976,0.141 -1.272,0.183 z"
         id="path4644" />
      <path
         style="fill:#fcfdfa"
         inkscape:connector-curvature="0"
         d="m 315.647,326.986 c 0.023,-1.051 0.657,-1.564 1.615,-1.636 0.937,-0.071 1.736,0.802 1.672,1.748 -0.068,1.004 -0.654,1.58 -1.64,1.646 -0.931,0.062 -1.667,-0.773 -1.647,-1.758 z"
         id="path4646" />
      <path
         style="fill:#fcfdfb"
         inkscape:connector-curvature="0"
         d="m 307.302,331.4 c -0.894,-0.106 -1.488,-0.653 -1.605,-1.625 -0.11,-0.917 0.707,-1.738 1.665,-1.752 0.909,-0.014 1.774,0.826 1.702,1.737 -0.079,0.997 -0.691,1.526 -1.762,1.64 z"
         id="path4648" />
      <path
         style="fill:#fcfcfc"
         inkscape:connector-curvature="0"
         d="m 314.235,269.196 c 0.257,-0.005 0.568,0.059 0.608,0.466 0.05,0.497 -0.363,0.591 -0.702,0.667 -1.892,0.424 -3.79,0.825 -5.686,1.233 -1.878,0.404 -1.885,0.407 -1.039,2.068 1.31,2.572 2.605,5.152 3.963,7.699 0.399,0.748 0.319,1.054 -0.518,1.299 -1.338,0.391 -2.639,0.91 -3.963,1.353 -0.368,0.123 -0.846,0.34 -1.034,-0.22 -0.177,-0.526 0.268,-0.691 0.661,-0.831 0.934,-0.332 1.852,-0.723 2.808,-0.971 0.811,-0.21 0.863,-0.502 0.492,-1.204 -1.473,-2.792 -2.863,-5.628 -4.343,-8.417 -0.442,-0.833 -0.496,-1.192 0.603,-1.395 2.481,-0.459 4.936,-1.058 7.402,-1.599 0.222,-0.048 0.444,-0.088 0.748,-0.148 z"
         id="path4650" />
      <path
         style="fill:#fbfbfa"
         inkscape:connector-curvature="0"
         d="m 314.351,274.475 c -0.066,0.89 -0.614,1.456 -1.613,1.519 -0.963,0.061 -1.731,-0.715 -1.695,-1.688 0.037,-1.02 0.625,-1.572 1.612,-1.644 0.956,-0.07 1.709,0.718 1.696,1.813 z"
         id="path4652" />
      <path
         style="fill:#fcfbfa"
         inkscape:connector-curvature="0"
         d="m 301.707,277.643 c -0.974,0.035 -1.784,-0.698 -1.759,-1.647 0.027,-1.008 0.614,-1.583 1.579,-1.702 0.944,-0.116 1.702,0.66 1.716,1.658 0.013,0.977 -0.605,1.658 -1.536,1.691 z"
         id="path4654" />
      <path
         style="fill:#fcfdfc"
         inkscape:connector-curvature="0"
         d="m 262.865,322.305 c -1.861,-0.126 -3.671,-0.433 -5.104,-1.794 -1.631,-1.55 -1.564,-3.603 0.145,-5.042 2.552,-2.149 7.572,-2.15 10.099,-0.002 1.686,1.433 1.757,3.544 0.134,5.058 -1.478,1.377 -3.334,1.69 -5.274,1.78 z"
         id="path4656" />
      <path
         style="fill:#fafcfa"
         inkscape:connector-curvature="0"
         d="m -521.221,87.331285 c 0.957,0.011 1.744,0.805 1.65,1.75 -0.098,0.982 -0.666,1.558 -1.683,1.578 -0.955,0.019 -1.7,-0.789 -1.654,-1.746 0.044,-0.9 0.782,-1.592 1.687,-1.582 z"
         id="path4658" />
      <path
         style="fill:#fafcfb"
         inkscape:connector-curvature="0"
         d="m 270.387,303.882 c 0.023,0.987 -0.696,1.737 -1.679,1.697 -1.006,-0.041 -1.581,-0.572 -1.614,-1.604 -0.032,-0.984 0.706,-1.743 1.658,-1.732 0.892,0.012 1.614,0.735 1.635,1.639 z"
         id="path4660" />
      <path
         style="fill:#fdfdfc"
         inkscape:connector-curvature="0"
         d="m 326.661,300.457 c 0.274,-0.697 -0.095,-1.096 -0.701,-1.361 -0.625,-0.274 -1.226,-0.26 -1.785,0.178 -0.566,0.444 -0.284,0.941 -0.142,1.472 0.811,3.047 -0.879,5.862 -3.884,6.516 -2.717,0.591 -5.527,-1.339 -6.028,-4.143 -0.518,-2.895 1.492,-5.563 4.54,-5.975 1.264,-0.171 2.432,0.193 3.443,0.944 0.585,0.435 1.023,0.722 1.72,0.111 0.606,-0.532 1.529,-0.608 2.188,-0.232 1.02,0.582 1.432,0.106 2.048,-0.609 1.504,-1.746 4.013,-2.123 6.068,-1.05 1.956,1.021 3.085,3.359 2.646,5.479 -0.484,2.336 -2.413,4.039 -4.725,4.173 -2.237,0.129 -4.289,-1.232 -5.064,-3.353 -0.253,-0.689 -0.347,-1.399 -0.324,-2.15 z"
         id="path4662" />
      <path
         style="fill:#f8fbfc"
         inkscape:connector-curvature="0"
         d="m 298.315,305.387 c 0.091,-0.838 0.657,-1.415 1.63,-1.5 0.92,-0.081 1.686,0.762 1.67,1.728 -0.017,1.056 -0.645,1.567 -1.604,1.651 -0.935,0.08 -1.721,-0.771 -1.696,-1.879 z"
         id="path4664" />
      <path
         style="fill:#fbfcfc"
         inkscape:connector-curvature="0"
         d="m 290.235,308.207 c -1.209,0.024 -2.004,-0.709 -1.94,-1.662 0.066,-0.982 0.61,-1.576 1.628,-1.628 0.952,-0.048 1.766,0.732 1.708,1.679 -0.06,0.983 -0.589,1.569 -1.396,1.611 z"
         id="path4666" />
      <path
         style="fill:#fdfafa"
         inkscape:connector-curvature="0"
         d="m 277.387,337.449 c -1.092,-0.036 -1.816,-0.819 -1.747,-1.79 0.074,-1.029 0.697,-1.535 1.682,-1.562 0.927,-0.025 1.772,0.875 1.643,1.765 -0.137,0.951 -0.704,1.527 -1.578,1.587 z"
         id="path4668" />
      <path
         style="fill:#fdfbfa"
         inkscape:connector-curvature="0"
         d="m 286.694,335.717 c 1.125,0.145 1.682,0.727 1.611,1.822 -0.068,1.044 -0.705,1.522 -1.689,1.523 -0.958,0 -1.701,-0.848 -1.59,-1.794 0.117,-1.001 0.756,-1.475 1.668,-1.551 z"
         id="path4670" />
      <path
         style="fill:#fdfbfa"
         inkscape:connector-curvature="0"
         d="m 272.088,283.532 c -0.047,1.029 -0.593,1.622 -1.569,1.742 -0.881,0.108 -1.772,-0.767 -1.787,-1.663 -0.015,-0.893 0.84,-1.788 1.727,-1.714 0.98,0.081 1.547,0.653 1.629,1.635 z"
         id="path4672" />
      <path
         style="fill:#fdfbfa"
         inkscape:connector-curvature="0"
         d="m 280.235,281.963 c -1.126,-0.016 -1.793,-0.728 -1.739,-1.746 0.056,-1.039 0.679,-1.538 1.655,-1.583 0.942,-0.044 1.693,0.785 1.63,1.753 -0.066,1.026 -0.682,1.504 -1.546,1.576 z"
         id="path4674" />
      <path
         style="fill:#158d46"
         inkscape:connector-curvature="0"
         d="m 263.077,314.942 c 1.511,0.064 3.001,0.36 4.219,1.413 1.265,1.094 1.242,2.34 -0.013,3.446 -2.096,1.846 -6.597,1.839 -8.69,-0.013 -1.22,-1.08 -1.233,-2.396 0.025,-3.451 1.267,-1.064 2.802,-1.363 4.459,-1.395 z"
         id="path4676" />
      <path
         style="fill:#ed912a"
         inkscape:connector-curvature="0"
         d="m 323.144,302.161 c 0.017,2.237 -1.783,4.091 -3.986,4.105 -2.109,0.013 -3.979,-1.828 -4.013,-3.951 -0.034,-2.176 1.836,-4.102 4.003,-4.124 2.102,-0.021 3.979,1.844 3.996,3.97 z"
         id="path4678" />
      <path
         style="fill:#ed912a"
         inkscape:connector-curvature="0"
         d="m 331.821,296.81 c 2.094,0.025 3.943,1.906 3.951,4.018 0.007,2.153 -1.943,4.089 -4.072,4.041 -2.221,-0.05 -3.957,-1.901 -3.899,-4.158 0.057,-2.179 1.859,-3.927 4.02,-3.901 z"
         id="path4680" />
      <g
         aria-label="Upracme svet"
         style="font-style:normal;font-variant:normal;font-weight:normal;font-stretch:normal;font-size:32px;line-height:24.99999809px;font-family:Sanchez;-inkscape-font-specification:'Sanchez , Normal';font-variant-ligatures:normal;font-variant-caps:normal;font-variant-numeric:normal;font-feature-settings:normal;text-align:start;writing-mode:lr-tb;text-anchor:start;opacity:1;fill:#ffffff;fill-opacity:1;fill-rule:evenodd;stroke:#ffffff;stroke-width:1.51181102;stroke-linecap:round;stroke-linejoin:miter;stroke-miterlimit:4;stroke-dasharray:none;stroke-dashoffset:0;stroke-opacity:1"
         id="text4869-2">
        <path
           d="m 42.231694,310.65366 c 0,3.52 -1.664,5.952 -5.824,5.952 -4.48,0 -5.888,-2.624 -5.888,-6.144 v -12.064 h 2.464 c 0.256,0 0.416,-0.128 0.416,-0.384 v -1.632 c 0,-0.256 -0.16,-0.384 -0.416,-0.384 h -7.68 c -0.288,0 -0.416,0.128 -0.416,0.384 v 1.632 c 0,0.256 0.16,0.384 0.416,0.384 h 2.432 v 11.968 c 0,5.856 3.232,8.832 8.672,8.832 5.408,0 8.608,-2.976 8.608,-8.832 v -11.968 h 2.464 c 0.256,0 0.384,-0.128 0.384,-0.384 v -1.632 c 0,-0.256 -0.128,-0.384 -0.384,-0.384 h -7.712 c -0.256,0 -0.384,0.128 -0.384,0.384 v 1.632 c 0,0.256 0.128,0.384 0.384,0.384 h 2.464 z"
           style="letter-spacing:0.2px;fill:#ffffff;stroke:#ffffff"
           id="path4739" />
        <path
           d="m 54.928195,326.17366 c 0.256,0 0.416,-0.128 0.416,-0.384 v -1.376 c 0,-0.256 -0.16,-0.384 -0.416,-0.384 h -2.08 v -6.496 c 0,-0.448 -0.096,-1.472 -0.096,-1.472 h 0.096 c 0.672,1.536 2.368,3.136 5.216,3.136 4.384,0 7.168,-3.392 7.168,-8.128 0,-4.928 -2.944,-8.064 -7.2,-8.064 -2.88,0 -4.608,1.632 -5.312,3.136 h -0.032 l 0.032,-2.528 c 0,-0.256 -0.16,-0.384 -0.416,-0.384 h -3.744 c -0.256,0 -0.416,0.128 -0.416,0.384 v 1.376 c 0,0.256 0.16,0.384 0.416,0.384 h 1.728 v 18.656 h -1.792 c -0.256,0 -0.416,0.128 -0.416,0.384 v 1.376 c 0,0.256 0.16,0.384 0.416,0.384 z m 2.752,-9.216 c -2.464,0 -4.896,-1.984 -4.896,-5.6 0,-4.224 2.464,-6.112 4.896,-6.112 2.784,0 4.928,2.24 4.928,5.888 0,3.52 -2.112,5.824 -4.928,5.824 z"
           style="letter-spacing:0.2px;fill:#ffffff;stroke:#ffffff"
           id="path4741" />
        <path
           d="m 74.308196,318.97366 c 0.256,0 0.416,-0.128 0.416,-0.384 v -1.376 c 0,-0.256 -0.16,-0.384 -0.416,-0.384 h -1.696 v -5.376 c 0,-2.752 2.144,-5.76 6.016,-5.76 h 0.672 c 0.256,0 0.416,-0.16 0.416,-0.416 v -1.696 c 0,-0.256 -0.16,-0.416 -0.416,-0.416 -5.792,0 -6.848,4.448 -6.848,4.448 h -0.096 v -4 c 0,-0.256 -0.16,-0.384 -0.416,-0.384 h -3.744 c -0.256,0 -0.416,0.128 -0.416,0.384 v 1.376 c 0,0.256 0.16,0.384 0.416,0.384 h 1.76 v 11.456 h -1.76 c -0.256,0 -0.416,0.128 -0.416,0.384 v 1.376 c 0,0.256 0.16,0.384 0.416,0.384 z"
           style="letter-spacing:0.2px;fill:#ffffff;stroke:#ffffff"
           id="path4743" />
        <path
           d="m 97.067193,318.97366 c 0.256,0 0.384,-0.128 0.384,-0.384 v -1.376 c 0,-0.256 -0.128,-0.384 -0.384,-0.384 h -1.792 v -7.424 c 0,-4.672 -2.592,-6.4 -6.72,-6.4 -4.32,0 -6.08,1.856 -6.24,2.048 -0.192,0.16 -0.224,0.32 -0.064,0.512 l 0.896,1.12 c 0.128,0.16 0.32,0.16 0.48,0.096 0.128,0 1.44,-1.472 4.832,-1.472 2.464,0 4.16,0.96 4.16,4 v 0.384 h -2.688 c -5.056,0 -8.576,1.44 -8.576,5.088 0,2.784 2.272,4.448 5.248,4.448 3.872,0 5.664,-2.432 6.24,-3.232 h 0.064 v 1.632 c 0,0.992 0.448,1.344 1.376,1.344 z m -4.448,-4.768 c -0.736,0.96 -2.528,2.752 -5.216,2.752 -2.016,0 -3.296,-1.088 -3.296,-2.528 0,-2.4 2.656,-2.816 5.984,-2.816 h 2.528 z"
           style="letter-spacing:0.2px;fill:#ffffff;stroke:#ffffff"
           id="path4745" />
        <path
           d="m 113.0942,314.36566 c -0.192,-0.16 -0.416,-0.128 -0.544,0.096 -0.448,0.736 -2.336,2.496 -5.088,2.496 -2.656,0 -5.344,-2.08 -5.344,-5.888 0,-3.84 2.848,-5.824 5.248,-5.824 2.784,0 4.512,1.888 4.544,3.264 v 0.544 c 0,0.256 0.16,0.384 0.384,0.384 h 1.472 c 0.224,0 0.384,-0.128 0.384,-0.384 v -5.44 c 0,-0.256 -0.128,-0.416 -0.384,-0.416 h -1.216 c -0.256,0 -0.416,0.16 -0.416,0.416 l 0.032,1.76 h -0.032 c -0.672,-0.96 -2.176,-2.368 -5.088,-2.368 -3.872,0 -7.616003,2.848 -7.616003,8.032 0,5.12 3.552003,8.16 7.872003,8.16 4.224,0 6.432,-2.656 6.816,-3.36 0.128,-0.192 0.128,-0.384 -0.096,-0.576 z"
           style="letter-spacing:0.2px;fill:#ffffff;stroke:#ffffff"
           id="path4747" />
        <path
           d="m 143.82419,318.97366 c 0.256,0 0.416,-0.128 0.416,-0.384 v -1.376 c 0,-0.256 -0.16,-0.384 -0.416,-0.384 h -1.792 l -0.032,-8.256 c 0,-3.36 -1.952,-5.568 -5.408,-5.568 -3.296,0 -4.672,1.952 -5.152,2.656 -0.8,-1.664 -2.464,-2.656 -4.768,-2.656 -3.456,0 -4.8,2.144 -5.184,2.784 h -0.096 l 0.064,-1.6 c 0,-0.768 -0.32,-0.96 -1.024,-0.96 h -3.136 c -0.256,0 -0.416,0.128 -0.416,0.384 v 1.376 c 0,0.256 0.16,0.384 0.416,0.384 h 1.76 v 11.456 h -1.76 c -0.256,0 -0.416,0.128 -0.416,0.384 v 1.376 c 0,0.256 0.16,0.384 0.416,0.384 h 5.984 c 0.224,0 0.384,-0.128 0.384,-0.384 v -1.376 c 0,-0.256 -0.128,-0.384 -0.384,-0.384 h -1.568 v -8.768 c 0,0.032 0.992,-2.752 4.256,-2.752 2.368,0 3.52,1.504 3.52,3.904 v 7.616 h -1.696 c -0.256,0 -0.416,0.128 -0.416,0.384 v 1.376 c 0,0.256 0.16,0.384 0.416,0.384 h 6.112 c 0.224,0 0.384,-0.128 0.384,-0.384 v -1.376 c 0,-0.256 -0.128,-0.384 -0.384,-0.384 h -1.792 v -8.032 c 0,-0.416 -0.064,-0.896 -0.192,-1.28 0.48,-0.736 1.6,-2.208 3.968,-2.208 2.368,0 3.488,1.504 3.488,3.904 v 8.416 c 0,0.992 0.448,1.344 1.408,1.344 z"
           style="letter-spacing:0.2px;fill:#ffffff;stroke:#ffffff"
           id="path4749" />
        <path
           d="m 160.32019,311.42166 c 0.288,0 0.448,-0.16 0.448,-0.416 0.096,-4.96 -2.56,-8 -7.136,-8 -3.84,0 -7.552,2.848 -7.552,8.032 0,5.12 3.552,8.16 7.872,8.16 4.224,0 6.4,-2.656 6.816,-3.36 0.128,-0.192 0.096,-0.384 -0.128,-0.576 l -0.864,-0.864 c -0.224,-0.16 -0.416,-0.128 -0.576,0.096 -0.448,0.736 -2.336,2.464 -5.088,2.464 -2.528,0 -5.152,-1.792 -5.312,-5.536 z m -11.456,-1.952 c 0.384,-3.072 2.624,-4.352 4.832,-4.352 2.752,0 4.288,1.76 4.416,4.352 z"
           style="letter-spacing:0.2px;fill:#ffffff;stroke:#ffffff"
           id="path4751" />
        <path
           d="m 180.7717,319.19766 c 4.256,0 5.888,-2.176 5.888,-4.512 0,-5.376 -9.792,-3.488 -9.792,-7.072 0,-1.632 1.472,-2.496 3.04,-2.496 2.912,0 3.968,1.664 3.968,2.56 v 0.448 c 0,0.256 0.192,0.416 0.448,0.416 h 1.248 c 0.256,0 0.416,-0.16 0.416,-0.416 v -4.448 c 0,-0.256 -0.16,-0.416 -0.416,-0.416 h -1.024 c -0.256,0 -0.416,0.16 -0.416,0.416 0,0.032 0.064,1.184 0.064,1.184 h -0.064 c -0.768,-1.024 -2.144,-1.856 -4.544,-1.856 -3.04,0 -5.344,1.696 -5.344,4.544 0,5.568 9.632,3.904 9.632,7.072 0,1.568 -1.184,2.496 -3.456,2.496 -3.616,0 -4.512,-2.72 -4.512,-2.72 v -0.64 c 0,-0.256 -0.192,-0.416 -0.448,-0.416 h -1.248 c -0.256,0 -0.416,0.16 -0.416,0.416 v 4.8 c 0,0.256 0.16,0.416 0.416,0.416 h 1.088 c 0.256,0 0.448,-0.16 0.448,-0.416 0,-0.096 -0.064,-1.664 -0.064,-1.664 h 0.064 c 0.256,0.544 1.728,2.304 5.024,2.304 z"
           style="letter-spacing:0.2px;fill:#ffffff;stroke:#ffffff"
           id="path4753" />
        <path
           d="m 198.6462,318.97366 c 0.448,0 0.576,-0.128 0.736,-0.576 l 5.152,-13.024 h 1.76 c 0.256,0 0.416,-0.128 0.416,-0.384 v -1.376 c 0,-0.256 -0.16,-0.384 -0.416,-0.384 h -5.952 c -0.256,0 -0.384,0.128 -0.384,0.384 v 1.376 c 0,0.256 0.128,0.384 0.384,0.384 h 1.44 l -4.16,10.784 h -0.064 l -4.096,-10.784 h 1.408 c 0.256,0 0.384,-0.128 0.384,-0.384 v -1.376 c 0,-0.256 -0.128,-0.384 -0.384,-0.384 h -5.952 c -0.256,0 -0.384,0.128 -0.384,0.384 v 1.376 c 0,0.256 0.16,0.384 0.384,0.384 h 1.792 l 5.088,13.024 c 0.16,0.448 0.256,0.576 0.704,0.576 z"
           style="letter-spacing:0.2px;fill:#ffffff;stroke:#ffffff"
           id="path4755" />
        <path
           d="m 221.99519,311.42166 c 0.288,0 0.448,-0.16 0.448,-0.416 0.096,-4.96 -2.56,-8 -7.136,-8 -3.84,0 -7.552,2.848 -7.552,8.032 0,5.12 3.552,8.16 7.872,8.16 4.224,0 6.4,-2.656 6.816,-3.36 0.128,-0.192 0.096,-0.384 -0.128,-0.576 l -0.864,-0.864 c -0.224,-0.16 -0.416,-0.128 -0.576,0.096 -0.448,0.736 -2.336,2.464 -5.088,2.464 -2.528,0 -5.152,-1.792 -5.312,-5.536 z m -11.456,-1.952 c 0.384,-3.072 2.624,-4.352 4.832,-4.352 2.752,0 4.288,1.76 4.416,4.352 z"
           style="letter-spacing:0.2px;fill:#ffffff;stroke:#ffffff"
           id="path4757" />
        <path
           d="m 234.87519,316.34966 c -0.16,-0.192 -0.352,-0.224 -0.576,-0.032 -0.128,0.128 -0.736,0.608 -1.696,0.608 -1.728,0 -2.752,-1.088 -2.752,-3.232 v -8.32 h 4.064 c 0.256,0 0.448,-0.16 0.448,-0.416 v -1.312 c 0,-0.256 -0.192,-0.416 -0.448,-0.416 h -4.064 v -3.232 c 0,-0.256 -0.16,-0.448 -0.416,-0.448 h -1.792 c -0.256,0 -0.448,0.192 -0.448,0.448 v 3.232 h -1.792 c -0.256,0 -0.448,0.16 -0.448,0.416 v 1.312 c 0,0.256 0.192,0.416 0.448,0.416 h 1.792 v 8.384 c 0,3.616 1.952,5.44 5.152,5.44 1.888,0 2.944,-0.992 3.232,-1.248 0.192,-0.192 0.256,-0.416 0.064,-0.608 z"
           style="letter-spacing:0.2px;fill:#ffffff;stroke:#ffffff"
           id="path4759" />
      </g>
      <g
         aria-label="Upracme Slovensko"
         style="font-style:normal;font-variant:normal;font-weight:normal;font-stretch:normal;font-size:32px;line-height:24.99999809px;font-family:Sanchez;-inkscape-font-specification:'Sanchez, Normal';font-variant-ligatures:normal;font-variant-caps:normal;font-variant-numeric:normal;font-feature-settings:normal;text-align:start;letter-spacing:0.2px;writing-mode:lr-tb;text-anchor:start;opacity:1;fill:#ffffff;fill-opacity:1;fill-rule:evenodd;stroke:#ffffff;stroke-width:1.51181102;stroke-linecap:round;stroke-linejoin:miter;stroke-miterlimit:4;stroke-dasharray:none;stroke-dashoffset:0;stroke-opacity:1"
         id="text4873-6">
        <path
           d="m 366.09127,312.08222 c 0,3.52 -1.664,5.952 -5.824,5.952 -4.48,0 -5.888,-2.624 -5.888,-6.144 v -12.064 h 2.464 c 0.256,0 0.416,-0.128 0.416,-0.384 v -1.632 c 0,-0.256 -0.16,-0.384 -0.416,-0.384 h -7.68 c -0.288,0 -0.416,0.128 -0.416,0.384 v 1.632 c 0,0.256 0.16,0.384 0.416,0.384 h 2.432 v 11.968 c 0,5.856 3.232,8.832 8.672,8.832 5.408,0 8.608,-2.976 8.608,-8.832 v -11.968 h 2.464 c 0.256,0 0.384,-0.128 0.384,-0.384 v -1.632 c 0,-0.256 -0.128,-0.384 -0.384,-0.384 h -7.712 c -0.256,0 -0.384,0.128 -0.384,0.384 v 1.632 c 0,0.256 0.128,0.384 0.384,0.384 h 2.464 z"
           style=""
           id="path4785" />
        <path
           d="m 378.78777,327.60222 c 0.256,0 0.416,-0.128 0.416,-0.384 v -1.376 c 0,-0.256 -0.16,-0.384 -0.416,-0.384 h -2.08 v -6.496 c 0,-0.448 -0.096,-1.472 -0.096,-1.472 h 0.096 c 0.672,1.536 2.368,3.136 5.216,3.136 4.384,0 7.168,-3.392 7.168,-8.128 0,-4.928 -2.944,-8.064 -7.2,-8.064 -2.88,0 -4.608,1.632 -5.312,3.136 h -0.032 l 0.032,-2.528 c 0,-0.256 -0.16,-0.384 -0.416,-0.384 h -3.744 c -0.256,0 -0.416,0.128 -0.416,0.384 v 1.376 c 0,0.256 0.16,0.384 0.416,0.384 h 1.728 v 18.656 h -1.792 c -0.256,0 -0.416,0.128 -0.416,0.384 v 1.376 c 0,0.256 0.16,0.384 0.416,0.384 z m 2.752,-9.216 c -2.464,0 -4.896,-1.984 -4.896,-5.6 0,-4.224 2.464,-6.112 4.896,-6.112 2.784,0 4.928,2.24 4.928,5.888 0,3.52 -2.112,5.824 -4.928,5.824 z"
           style=""
           id="path4787" />
        <path
           d="m 398.16777,320.40222 c 0.256,0 0.416,-0.128 0.416,-0.384 v -1.376 c 0,-0.256 -0.16,-0.384 -0.416,-0.384 h -1.696 v -5.376 c 0,-2.752 2.144,-5.76 6.016,-5.76 h 0.672 c 0.256,0 0.416,-0.16 0.416,-0.416 v -1.696 c 0,-0.256 -0.16,-0.416 -0.416,-0.416 -5.792,0 -6.848,4.448 -6.848,4.448 h -0.096 v -4 c 0,-0.256 -0.16,-0.384 -0.416,-0.384 h -3.744 c -0.256,0 -0.416,0.128 -0.416,0.384 v 1.376 c 0,0.256 0.16,0.384 0.416,0.384 h 1.76 v 11.456 h -1.76 c -0.256,0 -0.416,0.128 -0.416,0.384 v 1.376 c 0,0.256 0.16,0.384 0.416,0.384 z"
           style=""
           id="path4789" />
        <path
           d="m 420.92677,320.40222 c 0.256,0 0.384,-0.128 0.384,-0.384 v -1.376 c 0,-0.256 -0.128,-0.384 -0.384,-0.384 h -1.792 v -7.424 c 0,-4.672 -2.592,-6.4 -6.72,-6.4 -4.32,0 -6.08,1.856 -6.24,2.048 -0.192,0.16 -0.224,0.32 -0.064,0.512 l 0.896,1.12 c 0.128,0.16 0.32,0.16 0.48,0.096 0.128,0 1.44,-1.472 4.832,-1.472 2.464,0 4.16,0.96 4.16,4 v 0.384 h -2.688 c -5.056,0 -8.576,1.44 -8.576,5.088 0,2.784 2.272,4.448 5.248,4.448 3.872,0 5.664,-2.432 6.24,-3.232 h 0.064 v 1.632 c 0,0.992 0.448,1.344 1.376,1.344 z m -4.448,-4.768 c -0.736,0.96 -2.528,2.752 -5.216,2.752 -2.016,0 -3.296,-1.088 -3.296,-2.528 0,-2.4 2.656,-2.816 5.984,-2.816 h 2.528 z"
           style=""
           id="path4791" />
        <path
           d="m 436.95378,315.79422 c -0.192,-0.16 -0.416,-0.128 -0.544,0.096 -0.448,0.736 -2.336,2.496 -5.088,2.496 -2.656,0 -5.344,-2.08 -5.344,-5.888 0,-3.84 2.848,-5.824 5.248,-5.824 2.784,0 4.512,1.888 4.544,3.264 v 0.544 c 0,0.256 0.16,0.384 0.384,0.384 h 1.472 c 0.224,0 0.384,-0.128 0.384,-0.384 v -5.44 c 0,-0.256 -0.128,-0.416 -0.384,-0.416 h -1.216 c -0.256,0 -0.416,0.16 -0.416,0.416 l 0.032,1.76 h -0.032 c -0.672,-0.96 -2.176,-2.368 -5.088,-2.368 -3.872,0 -7.616,2.848 -7.616,8.032 0,5.12 3.552,8.16 7.872,8.16 4.224,0 6.432,-2.656 6.816,-3.36 0.128,-0.192 0.128,-0.384 -0.096,-0.576 z"
           style=""
           id="path4793" />
        <path
           d="m 467.68377,320.40222 c 0.256,0 0.416,-0.128 0.416,-0.384 v -1.376 c 0,-0.256 -0.16,-0.384 -0.416,-0.384 h -1.792 l -0.032,-8.256 c 0,-3.36 -1.952,-5.568 -5.408,-5.568 -3.296,0 -4.672,1.952 -5.152,2.656 -0.8,-1.664 -2.464,-2.656 -4.768,-2.656 -3.456,0 -4.8,2.144 -5.184,2.784 h -0.096 l 0.064,-1.6 c 0,-0.768 -0.32,-0.96 -1.024,-0.96 h -3.136 c -0.256,0 -0.416,0.128 -0.416,0.384 v 1.376 c 0,0.256 0.16,0.384 0.416,0.384 h 1.76 v 11.456 h -1.76 c -0.256,0 -0.416,0.128 -0.416,0.384 v 1.376 c 0,0.256 0.16,0.384 0.416,0.384 h 5.984 c 0.224,0 0.384,-0.128 0.384,-0.384 v -1.376 c 0,-0.256 -0.128,-0.384 -0.384,-0.384 h -1.568 v -8.768 c 0,0.032 0.992,-2.752 4.256,-2.752 2.368,0 3.52,1.504 3.52,3.904 v 7.616 h -1.696 c -0.256,0 -0.416,0.128 -0.416,0.384 v 1.376 c 0,0.256 0.16,0.384 0.416,0.384 h 6.112 c 0.224,0 0.384,-0.128 0.384,-0.384 v -1.376 c 0,-0.256 -0.128,-0.384 -0.384,-0.384 h -1.792 v -8.032 c 0,-0.416 -0.064,-0.896 -0.192,-1.28 0.48,-0.736 1.6,-2.208 3.968,-2.208 2.368,0 3.488,1.504 3.488,3.904 v 8.416 c 0,0.992 0.448,1.344 1.408,1.344 z"
           style=""
           id="path4795" />
        <path
           d="m 484.17977,312.85022 c 0.288,0 0.448,-0.16 0.448,-0.416 0.096,-4.96 -2.56,-8 -7.136,-8 -3.84,0 -7.552,2.848 -7.552,8.032 0,5.12 3.552,8.16 7.872,8.16 4.224,0 6.4,-2.656 6.816,-3.36 0.128,-0.192 0.096,-0.384 -0.128,-0.576 l -0.864,-0.864 c -0.224,-0.16 -0.416,-0.128 -0.576,0.096 -0.448,0.736 -2.336,2.464 -5.088,2.464 -2.528,0 -5.152,-1.792 -5.312,-5.536 z m -11.456,-1.952 c 0.384,-3.072 2.624,-4.352 4.832,-4.352 2.752,0 4.288,1.76 4.416,4.352 z"
           style=""
           id="path4797" />
        <path
           d="m 500.05528,320.40222 c 0.256,0 0.384,-0.128 0.384,-0.384 l -0.032,-3.136 c 0.832,1.344 3.2,3.744 7.648,3.744 5.664,0 8.032,-3.008 8.032,-6.464 0,-7.872 -14.464,-5.152 -14.464,-10.72 0,-2.048 1.824,-3.584 4.704,-3.584 4.288,0 5.792,2.688 5.792,4 v 0.896 c 0,0.256 0.128,0.384 0.384,0.384 h 2.016 c 0.256,0 0.384,-0.128 0.384,-0.384 v -6.976 c 0,-0.256 -0.128,-0.384 -0.384,-0.384 h -1.792 c -0.256,0 -0.416,0.128 -0.416,0.384 l 0.064,1.984 c -1.12,-1.408 -3.04,-2.528 -6.336,-2.528 -4.672,0 -7.488,2.72 -7.488,6.208 0,8.224 14.208,5.44 14.208,10.72 0,2.464 -1.984,3.872 -5.248,3.872 -5.152,0 -6.848,-4.352 -6.848,-4.832 v -0.672 c 0,-0.256 -0.16,-0.416 -0.384,-0.416 h -2.016 c -0.256,0 -0.416,0.16 -0.416,0.416 v 7.488 c 0,0.256 0.128,0.384 0.416,0.384 z"
           style=""
           id="path4799" />
        <path
           d="m 525.50528,320.40222 c 0.256,0 0.416,-0.128 0.416,-0.384 v -1.376 c 0,-0.256 -0.16,-0.384 -0.416,-0.384 h -1.696 v -20.032 c 0,-0.544 -0.224,-0.8 -0.864,-0.8 h -3.552 c -0.256,0 -0.416,0.128 -0.416,0.384 v 1.376 c 0,0.256 0.16,0.384 0.416,0.384 h 1.76 v 18.688 h -1.76 c -0.256,0 -0.416,0.128 -0.416,0.384 v 1.376 c 0,0.256 0.16,0.384 0.416,0.384 z"
           style=""
           id="path4801" />
        <path
           d="m 536.33277,320.62622 c 4.576,0 7.968,-3.168 7.968,-8.16 0,-4.992 -3.488,-8.032 -7.936,-8.032 -4.448,0 -8,2.976 -8,8.032 0,5.024 3.424,8.16 7.968,8.16 z m 0,-2.24 c -2.848,0 -5.28,-2.272 -5.28,-5.888 0,-3.648 2.528,-5.824 5.312,-5.824 2.752,0 5.28,2.176 5.28,5.824 0,3.616 -2.432,5.888 -5.312,5.888 z"
           style=""
           id="path4803" />
        <path
           d="m 555.40577,320.40222 c 0.448,0 0.576,-0.128 0.736,-0.576 l 5.152,-13.024 h 1.76 c 0.256,0 0.416,-0.128 0.416,-0.384 v -1.376 c 0,-0.256 -0.16,-0.384 -0.416,-0.384 h -5.952 c -0.256,0 -0.384,0.128 -0.384,0.384 v 1.376 c 0,0.256 0.128,0.384 0.384,0.384 h 1.44 l -4.16,10.784 h -0.064 l -4.096,-10.784 h 1.408 c 0.256,0 0.384,-0.128 0.384,-0.384 v -1.376 c 0,-0.256 -0.128,-0.384 -0.384,-0.384 h -5.952 c -0.256,0 -0.384,0.128 -0.384,0.384 v 1.376 c 0,0.256 0.16,0.384 0.384,0.384 h 1.792 l 5.088,13.024 c 0.16,0.448 0.256,0.576 0.704,0.576 z"
           style=""
           id="path4805" />
        <path
           d="m 578.75477,312.85022 c 0.288,0 0.448,-0.16 0.448,-0.416 0.096,-4.96 -2.56,-8 -7.136,-8 -3.84,0 -7.552,2.848 -7.552,8.032 0,5.12 3.552,8.16 7.872,8.16 4.224,0 6.4,-2.656 6.816,-3.36 0.128,-0.192 0.096,-0.384 -0.128,-0.576 l -0.864,-0.864 c -0.224,-0.16 -0.416,-0.128 -0.576,0.096 -0.448,0.736 -2.336,2.464 -5.088,2.464 -2.528,0 -5.152,-1.792 -5.312,-5.536 z m -11.456,-1.952 c 0.384,-3.072 2.624,-4.352 4.832,-4.352 2.752,0 4.288,1.76 4.416,4.352 z"
           style=""
           id="path4807" />
        <path
           d="m 598.92628,320.40222 c 0.256,0 0.416,-0.128 0.416,-0.384 v -1.376 c 0,-0.256 -0.16,-0.384 -0.416,-0.384 h -1.792 v -8.256 c -0.032,-3.36 -2.016,-5.568 -5.472,-5.568 -3.456,0 -4.768,2.144 -5.152,2.784 h -0.096 l 0.064,-2.176 c 0,-0.256 -0.16,-0.384 -0.416,-0.384 h -3.744 c -0.256,0 -0.416,0.128 -0.416,0.384 v 1.376 c 0,0.256 0.16,0.384 0.416,0.384 h 1.76 v 11.456 h -1.76 c -0.256,0 -0.416,0.128 -0.416,0.384 v 1.376 c 0,0.256 0.16,0.384 0.416,0.384 h 6.112 c 0.256,0 0.416,-0.128 0.416,-0.384 v -1.376 c 0,-0.256 -0.16,-0.384 -0.416,-0.384 h -1.696 v -8.8 c 0.032,-0.032 1.024,-2.72 4.256,-2.72 2.368,0 3.52,1.504 3.52,3.904 v 8.416 c 0,0.992 0.448,1.344 1.376,1.344 z"
           style=""
           id="path4809" />
        <path
           d="m 608.51878,320.62622 c 4.256,0 5.888,-2.176 5.888,-4.512 0,-5.376 -9.792,-3.488 -9.792,-7.072 0,-1.632 1.472,-2.496 3.04,-2.496 2.912,0 3.968,1.664 3.968,2.56 v 0.448 c 0,0.256 0.192,0.416 0.448,0.416 h 1.248 c 0.256,0 0.416,-0.16 0.416,-0.416 v -4.448 c 0,-0.256 -0.16,-0.416 -0.416,-0.416 h -1.024 c -0.256,0 -0.416,0.16 -0.416,0.416 0,0.032 0.064,1.184 0.064,1.184 h -0.064 c -0.768,-1.024 -2.144,-1.856 -4.544,-1.856 -3.04,0 -5.344,1.696 -5.344,4.544 0,5.568 9.632,3.904 9.632,7.072 0,1.568 -1.184,2.496 -3.456,2.496 -3.616,0 -4.512,-2.72 -4.512,-2.72 v -0.64 c 0,-0.256 -0.192,-0.416 -0.448,-0.416 h -1.248 c -0.256,0 -0.416,0.16 -0.416,0.416 v 4.8 c 0,0.256 0.16,0.416 0.416,0.416 h 1.088 c 0.256,0 0.448,-0.16 0.448,-0.416 0,-0.096 -0.064,-1.664 -0.064,-1.664 h 0.064 c 0.256,0.544 1.728,2.304 5.024,2.304 z"
           style=""
           id="path4811" />
        <path
           d="m 633.76377,320.40222 c 0.224,0 0.384,-0.128 0.384,-0.384 v -1.376 c 0,-0.256 -0.128,-0.384 -0.384,-0.384 h -1.376 l -5.984,-8.032 3.904,-3.424 h 2.08 c 0.256,0 0.384,-0.128 0.384,-0.384 v -1.376 c 0,-0.256 -0.128,-0.384 -0.384,-0.384 h -6.144 c -0.256,0 -0.384,0.128 -0.384,0.384 v 1.376 c 0,0.256 0.128,0.384 0.384,0.384 h 1.152 l -5.824,5.344 v -14.336 c 0,-0.256 -0.128,-0.384 -0.384,-0.384 h -4.032 c -0.256,0 -0.416,0.128 -0.416,0.384 v 1.376 c 0,0.256 0.16,0.384 0.416,0.384 h 1.76 v 18.688 h -1.76 c -0.256,0 -0.416,0.128 -0.416,0.384 v 1.376 c 0,0.256 0.16,0.384 0.416,0.384 h 6.112 c 0.256,0 0.416,-0.128 0.416,-0.384 v -1.376 c 0,-0.256 -0.16,-0.384 -0.416,-0.384 h -1.696 v -3.648 l 3.104,-2.88 5.664,7.68 c 0.448,0.64 1.024,0.992 1.696,0.992 z"
           style=""
           id="path4813" />
        <path
           d="m 642.84529,320.62622 c 4.576,0 7.968,-3.168 7.968,-8.16 0,-4.992 -3.488,-8.032 -7.936,-8.032 -4.448,0 -8,2.976 -8,8.032 0,5.024 3.424,8.16 7.968,8.16 z m 0,-2.24 c -2.848,0 -5.28,-2.272 -5.28,-5.888 0,-3.648 2.528,-5.824 5.312,-5.824 2.752,0 5.28,2.176 5.28,5.824 0,3.616 -2.432,5.888 -5.312,5.888 z"
           style=""
           id="path4815" />
      </g>
    </g>
  </g>
</svg>
